<mxfile host="app.diagrams.net" agent="Mozilla/5.0 (Windows NT 10.0; Win64; x64) AppleWebKit/537.36 (KHTML, like Gecko) Chrome/139.0.0.0 Safari/537.36" version="28.0.5">
  <diagram name="페이지-1" id="ap27ZkD1tWg2jAxd01Ab">
    <mxGraphModel dx="854" dy="591" grid="1" gridSize="10" guides="1" tooltips="1" connect="1" arrows="1" fold="1" page="1" pageScale="1" pageWidth="827" pageHeight="1169" math="0" shadow="0">
      <root>
        <mxCell id="0" />
        <mxCell id="1" parent="0" />
        <mxCell id="6JbfAsY4XZxCklSKtB8j-1" value="" style="shape=image;verticalLabelPosition=bottom;labelBackgroundColor=default;verticalAlign=top;aspect=fixed;imageAspect=0;image=data:image/png,iVBORw0KGgoAAAANSUhEUgAAAY8AAAGWCAYAAACAQw+0AAAAAXNSR0IArs4c6QAAAARnQU1BAACxjwv8YQUAAAAJcEhZcwAADsMAAA7DAcdvqGQAAP+lSURBVHhe7J13nF3Fefe/c865bXvV7mpXq15QoQhEbwaXuOKWOIkTk8R24hLHeZPYsRPX104cd2MbsME0U20wiCZRBYguAeq9r3a1/fZ6zpmZ949zV4gLGK205Srv+eozAt0599y5c5/z/KY8MyO01hofHx8fH59RYJS+4OPj4+Pj81b44uHj4+PjM2p88fDx8fHxGTW+ePj4+Pj4jBqhtdaPPvoo3/3ud4lGo6X5ZUsul2PKlCkEAgGUUqXZZUcul8MwDEKhUGlWWZJOpzEMg3A4XJpVljiOQz6fp7q6ujSrLNFak81mCQaDBAKB0uyyJJfLkc/nS18ua4LBIJWVlaUvlxWGYWAYBo7jEI/HqaurwzDKv10vtNb63nvv5Qtf+AKHDh0qzS9LtNZorbn99ttpaWkpzS47lFJce+21TJ8+nXe/+92Ue4Cb1po77riDSCTC+9//fkzTBEAIUXpp2bBmzRpuuukmfvGLX5RmlR1CCKSU/OhHP+L888/nvPPOK72k7HAch+uvv57f/e53pVllzUUXXcQ3v/nN0pfLEtu2+ed//me+9a1v0dzcXJpdfmit9T333KM7Ojo0cEKlffv26RMB27b1l7/8ZX3jjTeWZpUlUkr9ve99T//iF7/QjuOUZpclDz74oD777LNLXy5bHMfRf/M3f6OXL19emlWW5PN5/aUvfel1z2C5p49+9KOlX6VsSafT+qyzztJdXV2lWWVJ+feNfHx8fHzKDl88fHx8fHxGjS8ePj4+Pj6jxhcPHx8fH59R44uHj4+Pj8+o8cXDx8fHx2fU+OLh4+Pj4zNqfPHw8fHx8Rk1vnj4+Pj4+IwaXzx8fHx8fEbNuIqHEIIp9VXMaq3FGtdPOgY0oDRoDQpQCq1sZGIQbeeRSoJW5bMPldJoqVHKRSNRWqK1i1PI4qT70NpGK+V9n0nmNftDSK9+NS4KhZI5nHQ/aKf0bZOOt2eaRGkXiY1SBbR0cZNDaDsLSiLLoH5H0FqhlUIrB4XC0aC0Ip9NoTLJ8rHdN0UgMDFNg9lTG5laXwl4+6iVAxrvcdIStJJoLdFIpGsj03G043gupNTmi2nC0YDEs4mRsmoXrSROtAcp7TF1D+Pq0ivCQT7/odP45/fOoSZURkahNdnEMMnunbixg2hspJbkD+widdPXcG76V4zMMAqNKpPNADOZDMm+vdhD+yEXR2tNIR4nfv13EVf/I+LASwjtAuVRXpRiaP8OCoP7kLkYQpkgbeKr7iR/1RdwXn4QnPLZoVVqRSLWT7p3NyragyFNhBSkNj9D4tov4D52JVLmYLIcwxuQScZIHtpNfqgL8ilMJckOdJG+4d9wrvscDOyBMt9xWhuKzoZKrvz82VyysA6D8imvlpLUYA/Z/j3I9ABCGShbkl6zgsKVf49++S6EskvfNmlorUgM95Lp3U1++IAnFFKTXv8czq//BePObyJyw2PWwBxX8ThjbjN/+7YOTNzSrElFK8XBLS+x8e6fcvDRqxC5QbL7NpFa/iuMrt24O3bg3PFtGDyAULL07ZPCwX3b2bL8KqIP/RKn+3lyfXuI3fULwgdeJh9NYC+/Fr17DbiF0rdOCkLmeeHW/6HroZ+S2b0aJ9nL8IqbEI/chIj2Ya+4Hnfdw2VTXtcusOP5lexZ/mMya29HuzFSm5/Buf9aIv2DFJ5agXrwKoxUP6Is5EOzZ/MaNt19BelVv8btfYXcwW1k7ryCUNduCj19FO78MapnC6jyev5eRRMw4FPvX8rJbQIDCUKXTQPIyafZuPIm9j34E9Lr/4CbjxFd8wDyoevR0UEK91+PXHM3Ip9CoBHFko+kiUZKm+0vrGDPfT8n/tyNkI+TfuUJnBXX4MaHSa9bg3v/NajhXpSSx23F4yAeAgHURCw+/96TaK1S6DJqTXhoBAqUi53Pkdi1mdQdvyKwbyeF5k4Ga+tJbN6Mc9eV0L2z+PCpyW1zugIlTZK2Q+bgAbJ3/ZbAxhdQ1Q0M1k4l3tVH7p6bULteAlkcwioD8rZDsr+b4QfvgIf/AJEaYk3TiWYU6Xtvwn5+JTg59BF/JgOhDUyC2A6kU2kSzz9P6o5rMONxYk3tDASqiK9aSf7B36IHD4Ge/Pq1tIGhTGLZPOm9O0nfeT3Wzm049W0M1bYR27ub7N3XoQ5sAyUne1Dl9Qg4e0E7l1/UjCEcxGF3ZEyS+y1BCBwEBdsll0oz/Ng9OHdeh+Uq4k3TGNJVJO68Afupe9CZxKQPExoYBJVA2opEKkfipRfI3HsrRiJOpmUaQ4EaEi88jf3QLTDUi1DHV94xFQ+BgUBgCMGfXryYd55UiYlTLqb6GhSKTD5LYs9Bor+5FmPnXmRrO3ZLC+60mUQbpzGwbj2pO29E9ezzHj6tJu+5E5BXLrGBIWL3PoJ+ZR2ycQrJqe2ojlaSbR0MH+ghcet1ODvXecMVk1XWERTkBpKkH30c+cgKqG4g2zkHZ8o08m3TGUraJG69kfxDd0Mh7wnHyCDyhOM1cRLZLAOvbCJ5yzUE42mczpk4ba3kZ8xmMFhLdNUTZJbfihrsnVxnoUFojeM4DB3qI7b8ftSWjcgpLWRaW1GdU0k0tTO8eTOJ316NPLCjOA4+eQJdSktNBV/90GKaKgsYQnudDk3ZCJxGIKUgG88Qe/olCnffTlCaZDpmI1um4U6byTAR4st/T/6hP6DTidJbTCzaG5JPZzNEt+widcu1GPEodmcnTvMU3OkzGYxUEXvmcbL33IhOx0vvMCrGVDy8x08zr2MK//aeGVQIF6Q3iVNuKFdS6I9RuWsQenqRCzpJt9bjmJpAOExkzmxSU6cy/MJzRK+/AhkfBGFMWoNIapdMdJiKTYew+pLY7Y3kOqaghYllWVhTW8h0thPde4Do9/4LvWPjpLSORx55pSGVzeLuGSS4bxijuZrMrDbsgIVlWgRaGpEnzWYgnSL+uzvIrliOsPOTVb0gNPl8GvdAHzW7ooRzDu5JM8lVVyBMg6qqaswl8+mrCND3yIOk7/4tOnV8D99xIcB2HVJDMSIbuwn0J9HT28m3NaExCVoWwekdpKd1Et+5keiPv4Xu7irOABtjNex9zAQE/PUF8zlrhomhJDga5MjjNfF2+4ZoTS5fwN4/TGj3IJZlUljYSa4yAoaBUV9NYMl8BqUkdtetZB6+F53Plt5lwtBo3HyB7L4+OrYOI9Jp9LzpZCsjaMMgWF2NOWc2Q5EqBh59mMSvfgz2sc87jql4IKAyZPBPfzKfziqJ6QKOQIz0mCfPNbwWpQnGs7R1ZaguGATOWUyutQ6FxhDCGw+0TCrmzyUzewbR9RuI/fDb6MG+yXHISmFkc7R2x2nISQLTWpAzp6BNA13UMzMUpHLuTNKLZxFLJ+n58f/gbNkEcmLHu4UGqcHN5Wk+lKJjqEC4rZn8nOm4QQtFAYTGCAgq2towzz6TAZkldufN5B5/BOXk0WLiPZuWksrBJJ19WSoiEbhgPvmKwOGGsDIF4do66k4/g3RLC30PP0D2jmvRmfSkNJK1UohMjuaDSZodg8jcDpz2JpQWjJzSYwUtInM6Sc6ay2BfL4P//Q3Unn1oddhLTwoCmDu9jQ+cOZUKqxgh5IBQI4Pek48GlOtQO5iifTBHqKYGd9lJ5CMRBBItJMLUBOrqCJx1OtHKCLHbf0v+0ZVQOHaHfFy4LsFoms6+HDoE1rLZpKuCuKZACdCGJlxdRcUpC0m3NjD89CpiP/svdCpxTDY8puJhCcGli2dyyZx6wjkXXXDRWZeWcIizZtRz7uxmTutsoDow8ZFXGpBaI6UisWEj8rHHaQoEUafOxGmoxFAatMBVEi288c5gMEDt4pnYszuIbd3C8E+/g7tnF9px0GpiOv9KSuK7d2OsWEFLPI05fxrOvDYwBAjQAgxtgDLAMGhaMAtn6QJSqSgD1/6S/PqXkE7OC0OdgAEBjcYe6Kf7t79lznAOa1oDem4LRsDCVGAICyE0SAOUorq9luB5pxAPaAZuvY7sqsfRTh49UUOERaGLPf0U1c89R21tDc5pM8kGLETARBleMQwFAelQWW1RuXQuubap9N27ktRvrkX2eROQ49mc1yPtcQ3ScYlt3ULF6idpL+SxFswlO70dbRloSxRtQiC0RSAcpunUeRQWL2B48BDDV/0AuWUDwpm8UOmaSIhPLJvG0nqLQFZhpiFUsJjbUMk5s+s4f3Y9C5vrMDERWGPtpt4SrTWFVJLYoyuZumkDtc21GEs6cYMmFiC0QGgQ0kC5ksr6SiqWLSZTV8nA9VeTvf9udCI+oZFuMl+g/+knqXxpLVUVAcwzT8WuqiEgTAwNpgZTAbiEaiJUnH0K6eltDD67muS1VyEPHRp1ecf0V2mrq+LPlrYxLeBCXkJOodMOb5tTz1V/sZib/3oh/3bRDKqsiW9fCLwx4r5nn6b/6p8Q6N0H86eSbagkmSuQyDukcg4FRwAB0tpgh9vA7uA0Bk+7iNSSxQxs2Ebs2l/j7tkJWnljtONMYu9eeq/9FcFt61Az60jObiKaL5DIuiSzDtm8ixKKrLbY69SwVTcwtOBUsmcuJXaoi6Hrrsbe8ApIOSHlzfQeovuWG1GPPIDZXoszZwoxoUlkHVJZh3TOwVEKR2v22xVsdhs51HoS8WXnETcNhm66hsy9d4NjF6VofFFOgZ777yZ6/dWEdAZ3QSvJgEEqp7wy5xxcCQiDgUKAbW4dB2o7SZx5LsmZ7fQ9dBfJW29EHeodV7ETCozi/ePbttH7m6sw921FzWsi1VFDPFcgkXFI5hzytgITspiHbSK28DQKpy5m+MABotddg71966TMixlCcPqsKbxvYSshx0VkJTojCaO4/KIObvrEKdz0iTO4sLPWC2qZCKMtwU6lOXjLzaRvu4FgbYjcvEYGA4p4ziWeccnkXRwtUMKky61ki9vA3obZxM88h2hDDf03X0fyvrtQyWNr0Y8apel55GFSN19HIB9HnzyNWBBiGZtk1iGdc5FKgCGIqiA7nVoOhDsYOued5GZMZ2D1EyRvvR7Z31Mc1iz9gDdmzMTDMg0unj+Nt02tx8oryIBIg04pqt0A7WaY5mADD6zpYTjnHm35xhThuhy87iZ07wHsuU3EagI8v+0gqzcM8cLGKC9tirJjb5yCNNgh6vmVeS4/0RdwpXEh6TMuwTltEQPbN5FdvxblFrweyjiz+7nnyG5Yh9tZT2ZaLWu27eeJjYd4bkM/L22J8dLmYXKOwY7gVH4VvJBfOG/jl/YFbFr0J7jnnsJAbzf5px5HSy80T+hxHLHQmtjG9WSefhzdWkFqThM7UllWre/imU0DrNkcZf3WGH1DBVJEuN84javkhVwhL2B123mEzj+DpISBO38HiSjo8W9kZIaGGbzpZkI5m+y8KXQpl9Vbe1m9/hAvbhripY1DHDiUIyUq+V14KVfot/Hzwtu4sfL95N/2DhLzpzGw9jncrZuP+qE7JkRx6lDDzkefJL91O27nFOIt1TyxeRePb+zl2Y0DrNkwzLotMWw3wB7Rwq+CF3KF+zZ+Yp/L5lPfT+GMJfTt30f+xedQ0otyG9dyl1AZMPm78+YyIyIhJxEZIA0iA00E6TAjxHsNHtjWizocADtxaKB3125idy/HCFpk5zaxO51m9aYuVq/vZc3mYV7eEqVvKEfWDHFt+HyuFJdwhbyIe1rfg3zbO4g1VhN9bCVyr9fIHHcKBQ7ecDNGOo49v4F+S/HQ+t08tamP5zcOsXbTMPt7sqAjrHencq2+iJ/bF/Er6wLCFy0lP6uNgTUv4hw44PX4ObrhiTETD6VhbdcQn7t7PZ+4dQO/3yEoOBFE1sDMGLiFICue6eH+nQNM1rIaEQiw+LvfJPKlLzNQF6IvOUz3cI7htEs8I4nnDRIZEyksZPVUkjUtJCunctCsx42YNF1yKjN+8D9UvPMyzEBkQsz65A98gIb/+E+GT5pN2lbsOpAlmTJIZCXxtEM8kUe7FjIYIdPQSqKmlQGrmZhZR/1pC5j1rf+k5hOfwQgGEWKcp52EoOncC5jzgysYXDyNpOnQ0x9lIK5Ipl3iGZtE2iaTdjEsi3xtI9maNqLBFhJmJZGZU5jxH39H2/d/gqhrGd+yFqlqbmbu939E8jOfJhkJ0DMcYzBaIJHxWpnJrCSVcrCloNAynXT1VOIVU+gRTYiaKqZ94O10/uhHhM6/EMxxLLDXcEQbsOTjf0b1v3yO3mn1xHJ59vemSKYVyaxLMusSTWRxHZdCZZBkYwvJ6lYSwTaGgw00nn8KM777VSr+7C8wrAqE8IY/J4q8VFz/7H4uv2Ujn/nDVnpyBiprIvNByFpk0mH+ffkaerM2CgV6JEx+YhDAtMULmf/Tn9D7rktIBhXdQxkGo5DPKuLpArFUgVzGxdWQaG8nVd3OcLiVXtEMLQ3M/tSf0vqdH2GddAoYY+Zi35xQkIX//R0C//BphirD9AxE6R/Okcq4JDI2iaxLf7SAo13Mmjrita3EqjvoEVOgvo62j1xK+3f+k8DikxGiOKVwFDYxZt9MKcX2ngHu3dTFXVt6eXIwi501cAsKO6/p6ZX85+PryB+Foo0bQlA1bRqBljaUANexUVq9OkmnNUppXOnimAUCQYugpQhoRUAbRAIGlR1TCNTXek/yBBCqryfc2YkyTTSQc10cw8AxLJQw0Rjez2gIhDARQRPXMjG0QSAQpmpqG2ZTE55yjD+Rmhoqp3fiBoNoNAXXRQoDaRi4hoESFgoDU4CwBKZlYBkmpjYQRpBQcx0V0zvBMo/KgI8XEQhQu3gRKhxCA7aUOIBjWEhhHlHHGtMwEIBhmWhLY6KorKkh0jENEYmU3nrMGdH+qtYphDo6UIZAa03OcXEN4dmEYaGF4a1kMgTSMBBBE2laBKRnE5Ud7Vg1NRNmE0fiSMWqLXu5e3MPd285xEDawCmAyCrsjMEdz3fx3FByUgM0zVCI2kULcQMBFBpXSlwNrrCKNuzVr0AQDAQwTIFhmN7iUWESbqwh0tGGCIdLbz0+GAY1c2ZBTQ0KgeO6IAJAsaxFG1ZCY1sKYRmYAU0AF0uZBKuqqZwxC7OyuvTOf5QxE48R9OHldAKRVeiMIJsw+MWTW+mxHW+tedFmx7sh/FYoVVwVanhrhl0p0VojlKIxn2Shs4+T1SGWhoapNHJoDLThRS5MBlophNIYWmBoL9yY4sxArZNkcWEvS929nCG6mUE/pp7YSKs3QivlyZsWGEogXbfYipZMd3pYIrs4VRxkljmMiYvQ5lF1mccDbwjHW29gaOHtySUlGoGBw8z8HpbqvZzOfk4zDxKhMHkGfLi9o19jE07BPhzMUW+nOC23l9PdPZxuHGSa0YeJM3llPgKNRggDswBGSiOyBlu6stywYTcFqQ5/wUkvqtII7TUfhPbmnpT0ekKmdliYPsASuZtl7OdUs4tKnSna8Ji71rfgVW/qSBctLLQQKKWRdnGaQEOTk2SR3Mcp6iCnB3oRI7t/HENFj8s31EKjXAc3LynkDB7f3ccD3YcojDiFSXIOAGiBAhwlkdozUu8PmKaBEAItc8zNHeBvUg/xD85DfMF6mlY15HWjJ3AU9vB4tAApvP2XhFYY2ps8NQ3vKke7dGa7+OvUo3ym8DD/FHiGZWJvcVuYiSrtq2it0VKhitEbQr8612IIA6kkATvJu7Mv8veFR/gcq3hncA+WclCGF940/lPlb44ATAQGCiE0CgfLyfKO6Fo+ZT/CZ/VjfMZ8mmYdO2wNE11abxNH0CMNoKJNBCwThMZRDp2ZXv4m+RifKTzMF61nOVPsw9COZ+0TXeDXob2NJgsOTkERjWvu2nKQ7amMF0I42WhQ0vWWn2hvYaXwmo8YQuBqTdDJ8Bf9j/CZ3KN8Vq/io+JlanXS2w9vgkYmRhAClJAorZBSFlfrewu2TdMALdCywKJcF5/KPsbn3Yf5QuQFIjL3WlN4VYPeknERDzRIqXHzmt5YgTt2d3OwYBcdwqtFfe2/JgYtvK6+qyVSeWLgVZjAMAzvR1ASZduYToaAmyKiM4gjDOgo63ZMUSO1d3ivLe2FvAqNI12QBYIyS0hmqKSAyUjrbeJLq4u7u46Ix5F462gUrnQIyjxBmSascoSE++rwYfE/kyogQiCEV8dKSaR0MaRDQOYIyjxhUez1CYolncDSFj/IC79+7acawutFF1yFdl0CKkdQZqkQhWIkzUhTafLRGKi8RuY1r/RluHd/L2mlDzfSvGsmgcOOSeMCrlbe81eM/BIGuBocVxJ004RkhrDKERixicmoX+HVm8JrVBx+ecQmlMZ1XYQqEFI5wjJLhII31HaMQTTjIB6ew1LSQLohnuiN80RvP+44xsAfNUWjUMWGlzYjCEy0FggDMB20kUdJA9sV5BVklE3OzeNO8GK7ERTeVipSFCgYOXTIBGGg0ZhCEDBAOXlcJGlpE7fzJAtZbNfBUsV3T9SaiWLghLfsRKAp4JgKDBMpisMUpsDQLlorstIlbueIF7JkXRt5LBZ8nGjtDUM4KktOZZFKI0QQpb2GgmUYBIQCJBlpk3DyJAo5sk4BOaFTua9FKwOpHGwjj7IUQhhoFIahCRgabbu45Em7NomiTRRcB7O4tfhoQjLHC0MrzALknCpu2r6bffmUd9RA6YUTzIh0CctE4qAtjTBNFF5wgSkEQtoo7ZBVDkknT8LOkbXzCKm8EOjiMQQTgga0gdDg4pAVYGF720UJsAyNqQsoZZPXBZJOnnghR6qQBaUQSnlBYYdF8+gQWmu9fPlyvvCFL9Dd3V2afwyYGGg+ft65fLapnn9+/AlezqSRoyjU0bJv3z5mzJhR+vKborVmV/QgD+56lEP7n8eVAXRVK9qIYJgGgYBFqCKItodx7BiWCBCQGtO0sKwQgVCIqR0LOLf1HKaFmjGPUnsdx+FrX/saCxcu5PLLLy/NflM0ikPpYR7c/Qy7DjxPIZPErWjDssKYARPTNAkaFpGwphAvjl8KjWkECJgW4XCIutZ5nDPtPOaH2o66vEopfvCDH1BVVcVnPvMZLMsqveRNGcrFeK5vE8+8shzt5kiLSgIV9RiBIKYRwjIEAUug7UEMN+u1hAUEAhaBQJC6pqksnHY+Z1TPJSKso24lr1ixgu985zs8//zzpVlvjtLYyuGF/m08sesZUn0bsamESANGMIQZMLGESSgQwM0PYsp0sV1pYFkBAgGLiopq5sy6gDPrF9JkVh11eV3X5dOf/jQf/OAHueyyy0qz/yjd8T7u3f4Ie7rXUMjlEXUzMETgsE2EzCDhkCAf24dRXBwyYhMVFREa2xdybuu5zAo144UAvDWFQoGvf/3r/PCHPyzNOmYaAgYPfeCdrD8Q5/+89AKZ0gvGgI9+9KPceeedpS//ETQZJ8ezhzbz+IaVuPl+8kYlIlSLGQhgWkECwiQSsrAz/ZgyA8U9/SzLIGgFqaxtZv7M8zmrfgE1InyUNewdu3DppZdy5513Mm3atNLsN0VqzZrebaze/QR9PRsoiAqsyhYM08S0TExhURmpwM33gJMGb0AL0xSErRDhqlpmzTiTc5qW0mhUHLUNj4N4CAQGZ82ZT6fMs3zf3nELzR2teLhobti8kv2BYVTQQBdXaI8GSxicXzufi2oWExHBo6rmYxYPrXmuez0PpbbiVgi0KO5QfBQfKvDGwIWGhfXz+EjtMsJHedDOsYqHRrNpaA8rB14mVuGCKA62HUV5D6Oh3qjmk+1vp0kUnfFRvP+YxENronaCX+14iHSNRgmvLzEam9BArVHJuxpOZ2lkOsZRRjAdq3horVm14zmeVHtwK735Ra2Pro5GbMLQcFbDYt5Zcwqho7SJ8RCPCtPkC6cvYfmmXezKZVGjafYeJaMWDw0Hot3c2v002RpwjaOwiZHMkQWNGpqsOt7bfCYLgi1HLdDHKh557XDtxvvor8ggg95zqI/iuRmxB4CIGeGy5rNZFGo/6kbmOIiHhxUIoFwXNY7DVaMVDw3EnAxKe2OTb1G3b4gAQmaAsBnGPMo7HKt4AGSdHDlcKG4v4vWnS696E4rXWYZFjRk5aiM+VvEAyMsCWZlHCY3Q4qgdG3jfTRSbH9XBCgIjju0o3n8s4qEBV0uSTgZGnPBo6hfvJobwWnAR4+gaExyHeABknCx5vHNQvDKPYsPO4nUhI0ClGT4cLPJWjId4GMLCNDSuwmt6jMOCulGLB2C7Nmld8Bpq2hOHPyoeR1J0d6YwqDDDhMyjf3aOVTyUVsSdNFoU629k48ujLbPw+k4VZpiQETjqtx2dxIwSAbiuc7giywWhocGsoClQQ1Oghsbg6FNDsIZKM3LUwnG8VAQiNAaqqS9+dlOomqZg1VGlxoCXas3wUQvH8RI2gzQEq4v1W01T6PXletMUqqIxVEVDqJLAyA7G41xsQ5jUB6toDNRQH6yhMVRDU/Do67gpVEVDsJIKwxrvoh6mMhDxyhuooyFYN6o6HrGJKjNUPNRqJBRj4tGoonCUF0ErSEOgmsZANY3BahpHUb9NIS/VBysImUfXqzteDGHQULThxsCIn3iDsr1JagxU0RCoIjwK4WC8xGOkhTwe3dDjQuCF0E2AUxprjMM/ljjiX388eeereGniOPry/fE0/j+QKJ6YbRQ/zzz8qcf6HSYKr+Sv/rKl5XjzdKRNvJrGv67fCK2LZ21rOS69juPn9fU3ujSR9frq53qfWlqWN08jYb2jxSh9wcfHx8fH563wxcPHx8fHZ9T44uHj4+PjM2p88fDx8fHxGTW+ePj4+Pj4jBpfPHx8fHx8Ro0vHj4+Pj4+o8YXDx8fHx+fUeOLh4+Pj4/PqBm3va0mgu3bt9PZ2Vn6ctnhOA7f/va3WbBgAX/1V39Vml12KKX48Y9/THV1NZ/61KdGtbfVZPHwww/zve99jyeeeMI7l7vMcV2Xz33uc3zgAx/gfe97X2l22WHbNt/+9rf56U9/WppV1nzwgx/ktttuK325LMlms7z73e/mlltuGdXeVpPFYfH44he/yMDAwAnx4AHkcjm++MUvUldXV5pVdjiOw5NPPsnUqVNZunRpaXbZobVm9erVhMNhli1bhmGUfwd1586drFq1is985jOlWWWJUop77rmHRYsWsWDBgtLsskNKyaOPPsrq1atLs8qaRYsW8fGPf7z05bLEdV2uv/56Pvaxj1FbW1uaXXYcFo+rr76a9773vQQCgdJryg7btvnXf/1XpBw5Va/8qaqq4sMf/jBnn312aVZZ8sgjjxAMBrnwwgtPCPHYtm0bK1as4F//9V9Ls8oSpRS33norp556KkuWLCnNLjtc1+X+++/n0UcfLc0qa5YuXcrf//3fv+GpluWG4zj8/Oc/55Of/OQJ0ShGa63vuece/elPf1pns1mtlCr7lEgkdCgU0sU9GE+I1NjYqK+//notpXzd9ym35Lqu/q//+i/985//XNu2/br8ckwPPvigPuecc173erkm27b15ZdfrpcvX/66vHJMuVxOf+lLX3qdXZd7+shHPqK11q/7PuWY0um0Puuss/SBAwdel1eO6XCT0juz+cRJJyKl38FPY5dOxDo+Ect7olL6XcoxnUhlFWJi9+r28fHx8flfgi8ePj4+Pj6jxhcPHx8fH59R44uHj4+Pj8+o8cXDx8fHx2fU+OLh4+Pj4zNqfPHw8fHx8Rk1vnj4+Pj4+IwaXzx8xpwjl/j6+Pj872R8xUNrtGuDOnH2oDINg8pQ+e8iO4KWLrh26cvli1KeTejy32sITkwb1q7jlfkEQQgIBy0C5vi6ozFDn4A27BTG3IbH4NfSoBWJ4QEKwz2o9DBIB9DkureTWnkVctMjYGdK31h2GELwttNnc/XnziRUmjnJFHJZMsOHcBJ9aCcNaJx0lNjTf8Be8XOIdoEup7a+JtnfhR3tRueT3gMnXTJbnyG/4ufoA6+ALB8Hp7Umm4qRG+5GpQa88ipJ/uB20it+jdz4KLi50rdNKrlMisxwD26iD20XbSIxSOLx31J47FpIHCrr/p+BCVi01FXx7b86mz85eQpG0SWJI9JkoZUiExukEO1BpaNFG3bI7lxL9sErUXvWgB5bh3xcaE0uMUw+2oOTHAA0WkkKPTvJLv8Zat2DUEiXvuuYOX7x0AqQbFi9ku6nbiG9/TF0fojEno2k77kK69l7cR+6DrX+YbTKl7UxtzXV8Ol3zeaMmRWTarRvRG/XXnY9fjvRZ29DDmzEjveSevx2wo9cj37+QZyHrkH370Rr5WnIZFeztFl37zX0PX0z+a6XUYUUiRdXkrv3Snj+QZwV16H3vYTSLuXQfnNcm33rn6XrsevJbrgP7WYpdG0j/+C1iOeXYz9wJe4LfwA7VQaVC6Dp2rWJXY/eTPyFO5BDW3GGukk8chvGU3ehVt+N8/Bv0ENdntMrq4aFhxYaISSXnT+Pj5zXSH2FAOFZQzkMfTqFHDueuZ+up35Lduej4OZJbn4eu2gT7n2/QG9/BpQ9ySX1UNJl/yur2LfqeoZfvhvtZMkf2E7+gV8j1j2Ee/9VqDX3Qy6O1qqklkvTW3P84oEGrcnEBskM9ZCL9RHd/CKJW39JcO92MhWtDA8VyD5wO/qFB9GuU3qDsiBkGbzz1KlcOK+KwBtW3pFtoYlvExWyBXIDA2QGusj17ye+8neop1biBKroC7WQenkt9gM3oQcOeo5CqaO1gXFBKEl6sIf8UA/5eD9DTz9A5t7rMRMJhqqaGN6/n/Q910PXRrR00Voz8mdSCq40uUSCVH8P2aFeMgf3Ebv9F+gdW0hVTGEoq8iuvJ38U3eDXR49ECeVJNd3iFRfF7n+gyQeuA3x3MOoSA0DgWYSa5/HfuQ2dKzX65VOQrW+FbPaavnC++cSMd0jnilzwp+vN0IrSTLWT6bvAPnkIMPrniT7h6sQh7pJRKYS6x4m+7urURuf9oaPJxENaK3IJeOk+7rI9u8lf2An8T9ci9y1lURtK90FSD/0O+znH4RcpmgPpaJx9M/fGIiHhzBMcuk0g+teIXbDdQR37cHunEZ61gyS0zoYHhpm6Karkc+sQLtl1NUr0tFYw1+cP5fGsPwj1TJ54oGAnNIMRocZ+MPdsGIlygqTmzabwvTpDFQ0MfzCWnK/uxKRi/2R7zBxKA2xZIaexx6kcOfNVMTSqNmLkO1zSdZNI73rAOmf/hfGvnVoFBJRNN0JrtsiyoBUocDBnZuJ/vA/MHfuodDaTm5GJ+mOGQzHFNn7/kD+8fvAKZS+fcIRQmBLSTQWZfjOO3AeXwFVNWTaO7DndtIfqWL4icfJ3nUDZONH7RQmioDQ/OdHzmF2nU1AOxiIEoc2uWgEjhKk03kGnltD4ZorsQ4OkumcSX7mdIantpPs7iF2y6+R655DyzLoQ2soZB2G93XRd/UPMbZtRk1px5k6C6dzPv2pLMl7bsN+4VFwj8+Gx8DDeA+6UyiQ7B6AjfsJRzOYSxaQaW4AIQi3TCE+dwnxnEPPTb/CeepBsPOlN5o0TAEfOXcu53caWFIh3DGoljFGSZdcchi9rQdzxwBOQz2FOdPJh0zCFRGCs6YTa2hi6Pk1pH7yHVR8cFIfQK29Q7ucvQNYG/YRtF1ypy8lUVGBDloEZzQR7+hksDfG4M9+hrvpJUwnh1AgJqPYWuPaebJ9A0Re6sbsS6NnzkC3NBM0TCrrG8gtnk9vzmbwrpvIPPEAFCbRhjUox6WQTJHfsBd29WK0tJLvbMexLIJmgPDM2cRq6xhatZLMdT9Bp2KTahNHYgjBO5fN5u1LDFAFlALkSLOhPMoIGpV3sA8OY67bh85lkEvmk6+tA8uionMaAwtOZXign+EbrsR96TlwJ68HogFHuWQHE0Q2HiLSM4CcNpVMSysYFpW1NYh584kWXKLXX0XhmcfAfiMBObrG23F7SY2J1iaB4Rj1PRnqtIVYMp1kcxhHCYTWGGjqOuqQZy0l4SoGbr+R/FOPTO7DdwRLZrbxT++YTkC4CC2RTv4Nqu/1r0wcGp3PU9kdpaU/S7CtGXdeK27A8KKXtEuwMkTlojkkp7bQu3Yt8Su/j3twP1qNjG1OEN4oJq7tUNmXpOlgiurKOgqnzsUOOgiVxRBgWEEiC2aQWzKf+EAv0RuvIb/pFfRxtoZGgwaUVmjlDfOZ8QRTDiaoMkJYS2eSb6nBQaO0RhgGla2NBE9bRFrB0K3Xk3nyAXRu7CYgR4dG5bKED8aYFtMEpzaTn92GYwoM5TnnQGWE0MK5pFtaOfTEkySu+ylu7wG0lqhJHsbqbK7hsxfPoCkoMBUYBQ0SBAKBRkxWD7+I1qClxBpK0HAoQ0W4Grl0Prn6CAIHU2sMoHFGC+7Ji4hGh4n99tfYr7wwOVFYGpRUmNEM9XujVLtB3PlTKXQ24oocQjleo6KlCbF4CfFQhP5f/ozsww+gUmm0FkU5MI66zo9bPIRyGHzpRdq27GIKFszvwGmpRmoQaLTwRrEFBtVtTQTPOImUk2PojpvJP/UwTPJYYV1FmG986HSmWA7ClugCmNJiSmWI1uoILdUhwpZRdDWlaWLIDQ5irVlDZ1+SyIypyHltqEgAXXy2TA1aGFBdSfi0k8jNm8ngy+uI//Y65IG9KCUndMJU5vMMrVjBzIEslfVVyIXtyKoIQlsIDISWCASWaVG9sBP31PnEDnWRuOk6nC0bJ+zh01qjNIAmuWsL1WvX02yGseZPI9VSgwwYSAM8+dUEtKCytRFr6UIShiZ6043k7r8bMtkJnVPQWpPpPkh43StMi6axZrajFsyEYAAtBMrwem8CiNRUU3naYtIz2jn01FOkb7sZ1d3tifzR+YgxJxyw+MBpM1g2tZJgQWLkBWbBot6yaK0K0lodpi4S9g4dOkpHNpZordFaEn/xGaZu30lTZQSxqANZV1W0X88fCK3RCGpmtGOcNo/hwW4Gr/0ZhWefAOVOmD2A1wtNb99O9YbttGBiLpyKnNaEwEJoE21oTC0RmETaGjGXLiBWHWLo5uvIrrwXnUqW3vItOT7xkJLeZ1aTuPaX1KZiOCc1Y7dWg2ViaYWFwNACoQWGMDAE1E5vIXjGEpLZDAO/vZ7s/XeOefzx0WIBf33eHC6eFsTIFiAnURlJS4XFnV9Yxn2fP4NrP34ap7bWHB6Nn2jxKMRj9Nx6C4HVqwhMrSZ/UitOVQBtCgyhPeEohlcZQlNRG6HprPnYi6cysPY5Etddg+rumrBH0M3n6L3rDvJ33k5VRQi1cCqyPow2BRhenWm8sSmFxrQCVC+ciThtEbGD3QxfdQXOpvXehP84IwC0pn/9GoZ/+XMq+w8hZk3Baa/BEALDFChDowyBFqC1BBPC0xqpOPtkYoZm+I7bSd71O3QmXZzsH3/soUEO3Xw9wVdewJxRj5zTigwF0AZo89WhH68NqYjUVdBy1hLUzGkMPbWK1M2/Qff1TMrwoBCChW01/OWpU6nXLuQkpF0qTcXn3j2De/7xDO79/Bn87WntmGi0mITeh3Toeex+0jddQ5UsoBa0YDdF0KaB120GXRQ2oR0sE6rnToOzTmNwKEr/tb+k8MgjEzqEFd+1g8FrryLS242xsB17Wi3aAGF6Xl4Vm0AKhWsKKjqmUHfhGQxGBMN/uI30invRmdH1oo9dPLSmd9t2eq+7kdD+Llg6lWRVBS/s7GPlmh5WrRvmmfXD9AwWyIoKfp47h08m3sen4u/hmikfYPDtf8JQKsnADdfiPPskyIkXkDkdzfzlKVOpyGTQaYlIg05qgmnBktoKFtXW0T+s2DuUniC3UIKGrXfdQ+6euxDNAZLzG9jeF+PxNYd4/MUBnlg7xEu7M+S1YINq4SupC/jcwDv5Qvo9bD7nL8ksmsuhtc+Rue03EzPHpDUDTzxG9Pc3Y+g8haXtHETz+CvdPLZ2kCfXRXl+4zDxjCDmWvwwcQqfGXw3n42+j+Uz3kf2rMXED/bQ/f3vogcOeTPu44gQglxvL71f/Qahfftw5zYQb6jg2e2DPL6ujydeHuC5V4boHZDYoopfJ+fxD7F38pnYu/lp419QeP972Wfkid/7e/JPPTESZTo+jHRsFKy96TayjzyMbK0hNaOWdf393L92H4+s7eWZl6Ks353FNUzWyzb+KfkOLo++h8/l303XhX9OZu50+p98nOyDd6GczISHdYdMgz89ewEL60zIuhhpIA1GCqZbEZbW1jAz2Mp96/eDNjBGutcThAb2rdvE4M+uxozGKZzcRo/p8tSmAzz8wkFWvzTIS5uiDEULpHWIL+Xezt/GLuMfYu/l7ll/Suadl9Lb08vQLb/BfeXFCWkEkc2y++tfxdizHXt2PbG2Cp7Z1MPKNf08unaA514ZpntA4hpBnsxP4R/jl/DJ6Lv4WujPqHjPexi0TGK33Ib9yssgj94Yjl08hKCyoY6Giy+k79JlxOuDHIzG2XogzWBKMJxwGU7kGRjOoIRBsn0K2SnTSdZNZ0+ok8y0WVR//L1Yl7wbo3MOGMdelGNBADMbIuw6lGDF1hTP7bOxCxFE1sDICETWYFd3ljuf38tQfuJaEKW0nrQI8Z73M7xwDlkXnt9ykO5ogcF4jnjSobtrCFkIUqhqIDH9JOItcxmu6KAvMIWG80+h6qOXYZ11KZiB0luPA4LwtFk0/cmHGFo6jWHDYU/XAAd608TiWQaHMwzHCwwMZhBmBaJtBtm2ThJ1bcTDtTQsXUDkL/+EygsvQdR6wRbjiQZCNTVUvf1PSL3rvcSaq9jZO8juQ3H64gUGonmG4gUGB9NkpUVq3qnkpswlWTebXXoGbkMb7R/7E9SHP4wxZ/74+rhiIJIGpp16GuLSdzA8s5WMq3lhwwGGog7ReJ6BeI6DPVHcnIFdVUl61ixyU2YyXNnB3qo2Ki89k9BHP4J1yrkIMzjh0QkBE6pMh8e39PLI9mFiOY2T01AAkTdIJyy+dedLHMi5uCivlzqBK4EEUN/WSvUl72To0nOIhxU7Dw6x71COWNKhP5qhZzBDLGHjWAGyc2ZRmDqToYYZbDenE5k9l5ZPfgj9rvdhTJs57jYMQCBEzaXvg3ddyPCUIAd7B9i6N0k0kSUWzzEYy9HTm0FrC13XDFPnIOtmcDBYj9lQTdOHLkJ86J2IzuleeY/SJI7LY9dMbWfG3/4duekzybkGWRsK0kJiIiiOHRYbDlYggGV5SWuNKRStC+fQ8YVPYUzvnJhKPgINPLSxi7+5bQ0fufV5vrxiA0NZiZMHu6DJZAQr1vXz7KHhCTTdEgS0nXcWDX/6EQqVFThSkXMEQnhx8FIIlDDQwutNW0IgAuBaBmiTSE0d0z74PiovfhtYE7DlioCGxYto+9TfkqmrQUhFzi4gjQBSGEjT8MqrBaapERYETIFpGhhKYJgW7ZecxZS//3sIV4yvMy46imBNDXO/9C/Ypy/GVZqcY+NqgcZCCxO0gcZACoUwTTDBsABLYyKZMmsmMz7+cULz5nk/wjhiAMKAzksvoOZDf0I2KMjaNgUpkIaJNAPe3BeghEIHNMISiCBo00Qpk8qGJjr+9P1Elp2BMAPenML4Fvs1pAqSL9y+lg/f8gp//bt1HEgF0DkLN2thZy1WbY5y266DOJriUzrxT199Rztz//WfSbe0IrXGdhVSW2jDQhoGSghvgllrQqEAhmlgGiYIgTIM2pYuouPjH8domzoxfi1gMv8zf4d1zrnYQpDKZJFBE4mFNEyUYaC0gUBhmSEICFTIAC0QlknNrFl0/OVfEuycPpr58uMTjxFGJmO1UgitMItJuo4X+yxd6p0YU3SMNp2gU6SopoBpGkDwaMs65mgMFAKNgdACVQCd05Az2L0/z43rdpObeNt9YzRorVBKIYpOynYcZPHxCqoCzW6MFh2jTSRoVHGMCZp4fg3FH1MLcA2Qh7vtnlW6rvLWcWhJrUzSrGK0iiSNhoOpJ3dhoypGVmnAVJ5zUEoCAqE0zYVhWnWMqSJOhxkjINxilMrEIoRACMOboz+ijFoLbEd6Q1ECQq5DSyFBi4zTQoo2HcdEeg5t4ov9GjSghYlRAJEBM2vQdcjmmpd3kTpi6GQSzcFbsqq1F42HZ9QjdSzRKFxa7CGmqCHaidEhhgjpvGfrYnICErTWSCkxigETWoOUCik9uw66OZrcKFN0nBYrh0BiYhxTYMLYiAcapSVKe4U2iguudDEUMuDk+HBsNf+Wv4cvqfv4VOBFOtUQQujitPXoC378HPmZGqUUuiCRBUU6b/B/n97A3lweNanm+yqek1AgvDBMAMs0EVohtcuszD4+m7iPrxTu42uBJ7nQ2IWlJ2k1v/fDI3mtGBgaTGGgtCSo0nwws5ovOSv5Kg/z/sBmTGyU8FpwE40GJBqU9uYuhMAorkdQwiUo07w3/hT/Zt/HV1jB/7EeZ4ocfvXNE432HJtSynvmlFe/AcMLtXKVy9zMQb6YfICvuvfzzdCTnGXswNQ2YjK82uvQoCXadpFZSTYt+MO2Hl4YiBanuia5jAKk1rha4xajRg00ptZYQqA1VDppPtn7AF/KP8hX9UP8jfECDSo+KfbgRQ4W/diRkZUjuqcVQhVYbG/nC9kVfMVdyVeCT1Dh5jzjOQbGQDyKRqA9LdYjY7MCLMvylFu6VLtZ6mSMBhGnlhiGdiY0fPSt0FKgCgK3EObelw/xxGCcyZvpKMVzFK9BgGmaCAG2dLGcDPVOjAY5TItIEhb2RA9nH2akNazeYMWtIbzeiHRsamWKeneQBjVMjZH1JkeLwy4TjQZcrbyIqeK6Di/eVSGVi3TzVNoZ6twoDW6cJpHFFGpShI5ieb2Q0ld/ZAGYhkCjybsSYdvUulHqnUGaiRPU0huqmKQyvw4tcPOaggNb+vLct7OHpNTFeY5JMt4jkFrjonDRSKFRQoPQmKaBqzTSUdQ5MeqdQRp1jBqRxZysh45XGxRHugohBKZlIQwD6UqCbo5GGaVBDjLVGMbQErQ38qK1FwF5tIzJk6qFN0mvDINgKIQVDmOEIwQrqzEDEVwNrpTYrkvBsZFSFbtUCibNResjEt7QhAywZyDLVbt3kh3X0JnRofFC7VylCIbCWMEwViiMGQoQDIcAhasVOemQdWxybgEppSc6pTcbb7RGCFDCQOFCQBAIhzHDIaxwBCtSgRkMIxEUlEvGLpB1bBwpi938SXBsnif2HhwzgBmOYARNAqEgoVAFASuM1JB1CmTsHBmnQEF6GzpOViNe4JVZKk2wogIrEsYKhwmEQ4RCYbQ2cSiQlzaZI2zC8Ma6ysE3IzQYOYWbC/D73ftZl0kgxWjc1zijNUoLhGURCEYwAmGscAWhcATLsnC1S0465KRNxslTkHbRp424lYn9Jlp5Q2zKsLBCno8IhMOEIhUEQmEcDbZyybkFMo5N1jVRWhT9xOjLekziMfIxjnTYPLyPTdWSl1oq2TVvCumLZhI9u4OhM6fTd2YHu09u46mmAE9WOTwRyfNYKMeqQIYnzRQPF4Z5LrmdPJM0vHJYPBRCQzIruG3nAfbkymPjO41mOJfgxex+1jQqnm0Nk7noJKJndxA9v4PhczoYOncma6fW8mSVwepKl6cqbJ4IZVkVSLBKDLMqt59uNzaqFsXxkLYzvBzdzcuNFi+0VLPv5JmkL5jJ0DntDJ7TQf/ZHWyd18hTtRZPVSieqijwZDjH48EUq6wEj2UOsD7Xg408JoMeDRqNqx02Du3lFTHAuuYQexZOY/j82Qyf28HgudPoP2cae09u5dmGIE9XaZ6q1DwZyfN4IMnjgSSPqX5eSOwhLnOv7x2OE9FMnJezvayfEuTFqRVk3r6Y+PmdDJ7XRv+5HfSfO4u1U+t4ohqeqpQ8VenwRCjLk4EkTxPjqcx++py4N79zZPtpwlFo0+KZ4Qy/P7gPF+UJ2ySi0RTcAi/2bGVLjcNLzZUcWtxJ9ty5RM+dzuC50+k/ZwY7TmrhqboAT1ZKnqyweSKS4/FAklVWkkcKfbySPkBOT8xuCVrD7lg3L6hB1rZE2LKgg/SFs4md18nw2VMZWNbKviVNrG4M8lS15qlKh9UVeVaHkjxpxXnc6eXFzH5SKjcqWxBaa718+XJWrlzJFVdcQTgcLr3mdYzcvzc1yG/3rWKr7EUK25u6PXygS7FJJoS3YlgXDaPYZRYCDMOkPlTLX017J0tD04sxWm9NKpWiubmZQmHsfpyTaur40OzZ3LF9O/tymdHU4VHR2NjIj370Iy6//PKjGzbQoLTk8X1r+EPsFTJWDlc7CNMCvNb9a4ZMShZaiuJ4fTAY4ezmk/mrhvMJc3QRV0opvv/971NdXc1nPvMZrKOM1NJoXh7Ywe3dT9NjxEG43kIqYRSL6i228ypXgVLFaB+vtoVhYAqTzkg7n53+HlqNau98h6OorhUrVvDd736X5557rjTrTZFaMVyI8cvtKzhIDFfnvOEJQ2AIbwpRF7v+WivEYcdWLK8QSDRTI618pO0CzqyYjXU0vy3gui6f+tSn+PCHP8wHPvCB0uw3ZEScVmxbzf2Z9WSCOaRywQyhR+qwWC4QoJzDz6EozjkZhkEwEObtrWfxvrrTiWjLu+Itil0oFPj617/OD3/4w9KsY6bSMvmvC8/mzle28UI8ynis9PrIRz7CXXfdVfrym6K1Zm/0INfseYTeQApX2CgBQnje6fDPK7xdd71BQm9OBDTCEJjCorOigz9ru5AloXZvw8ejIJPJcOmll3LnnXcybdq00uw3JSdtfrT+TnYb/bhGwYtPM6zinLJAFDuaQrzWT3gLnwFh0FTRyCfaL+HU0HTvnJWjKPIxiccIjnRJOFkcw4tZErroHEaBQFBtRYgYRx91NR7iETAMQqZF1nHGpZU+avEouqhMIUsG2/sxR7mlxMilAcOizqo8aiM+VvEAyLp50jKHEkV74M0je0preeQyUwnqQlUEMF+b8Uc4FvHQeN34uJNGCF3cFcX7MC2O7nPRnrOusMJUGqGj7sofi3hQLHMqnyInbK/M2gD92k8t+WfxxSO+joCQGaLaDB+2ibf6quMhHhYm1ZEAybztCcc4RAeOWjwA27VJyhxKFAM+Rvzam1TSkc/kyJSHIQwqrQgVIvBmb3sdxyoeSmuGCnFUceJbYBzVztQjz5+3lY2gJhAhIgKvftG3uoXWWt9zzz367//+73Uul9PHjTqGNEqSyaQOhUKe1J8gqbGxUd9www1aqWP4wsfIsVaxlFL/93//t/7FL36hHccpzX4LlNZaHpHeBKXePB0DDz74oD7nnHNKXy5bHMfRl19+ub733ntLs8qSfD6vv/SlL73Orss9feQjHyn9KmNPqf0etuPR2XI6ndZnnXWW7urqKs0qS96ojeLjM/6IYo/kjZKPz4lEqf0etuP/3cbsi4fPJFL6tPnq4XMiUmq//3/Y8diLR2n9HU3yGRcmp4r9H9fH5/8Hxl48fHx88fDx+V+PLx4+Pj4+PqPGFw8fHx8fn1Hji4ePj4+Pz6jxxcPHx8fHZ9T44uHj4+PjM2oOb0/y0EMP8bOf/WxU25NMFuOxPcl409jYyI9//GMuv/zy0qyy43i2J5ksjmV7ksnkWLcnmWgksDVmk7Zdbr35Fu69997SS8qa8849l6989auTvd/iH0WiUQKy2STf/Ma3+eq/f4Xm5imll5UdvnhMEL54jC++eIwPeeDfXxymT1SAYXrnnJxgSFke54O8McX934pn3WgB4vDpm+XNYfH49a9/zbve9S4CgUDpNWWHbdt8+ctfxnUn6yyQ0VNZWcmHP/xhzjrrrNKsskNrzeOPP04wGOS8887DNIsbFJYxW7ZsYeXKlXzpS1/yTlwsY4QQKKW47bbbOOWUU1iyZEnpJWWDIyy2L34/8UgjWpTRQVJvwURtjz8mlO66WEZnCf0xDovHFVdcwdlnn13WrcwRg3Ach5/85Cd84hOfoLKysvSyssO2bZ555hn27t1LMBgszS5LbNvmvPPO48wzzyyemV3eTmP37t08/fTTfPKTn0Qp76z3ckYIwYMPPsi8efOYP39+aXbZ4Fohhi/6GxIVTZ54nCA+2dvpdmQbalF0yOVa+Nf25srbcl/lsHisWLGCK664gkgkUnpN2ZFKpairq2PPnj3MmDGjNLvscByHz372s1x33XWlWWXNj370I774xS+WdYNihBUrVvCd73yH559/vjSrLHFdl09/+tN88IMf5LLLLivNLhvywFfXxuilAu2dvnIYs5yHsIqaobRCKafooMu1AfRqz0PDEWcilR+iWJNKqRN3zqOpqYkdO3b44jGO+OIxfpzI4rFp5X103/FDDGWXXl5mmCw680zO+taPUDp8RMejvETEOw1JITIJbvy7D2Flkq8e1FRmjPTfTn3bO4/vMKjJwhePicEXj/HjRBaPDb+/he0//TzIfOnlZYbJsksv4R033osrI4cHh2SZ+WXvKGCJkYvyg3MXYqSiZTvEprV3OPT5H/pzf52Hj4/PKNBQPLDuBKBYUO05aOWdfIwuRjWVT9JowxtiA43S5ZuOlDRfPHx8fI4awatHrZY/xYL6Z96NC36t+vj4jIrymjF4MwzvtEqfccMXDx8fHx+fUeOLh4+Pj4/PqPHFw8fHx8dn1PjiccJjvEnyx3t9fHxGlvWNpLFjbO/mU0b44uHj4zN+jLt4aK1PqE3KtFLFVTsnCpqqSBDT8MXCx+NEe+YAQgGToDXu7mjMMLRCnEB1bBmCmsjYLvYdo19LIx0b7dqgJBSN14n1kX32bvTBjWhlF+Ou3yhNPForlGujXK9cWivcVJz8yw+jtq5GKxtdXBhTztRUhPjyn5/BgpaK4pYGk1uvR+I4NtLJgXRAeTaR79qF88If0IP7yqKMR6Kki3JttHQ8G1YKJ9pL/sX7UQfWg3LKqMwapSTSdZDSheICM7eQJfPSQ7gv3Ye202VU3jenuiLIX1yygNNn1pZff1m6WNLGUp5NoBUNsQOcueU+Zg7vwNCy9B1lhkagOe/UWXzx/ScxlvJx/OKhFSiXlx65k66HryG/+UF0PoqTSZC4/yp45Hrs+3+F7t4OWr6BcEy8cWsl6dmylu33/YLhZ2+GfByZyZJ8djlq5a+x7/sFet0KVJnv3SOAT7z7FP7u0nZmNATLSjy0W+CF3/+cvlXXUeh+Ba0csvu349z9I/TD1+M+ci16eB8KRTk8fq7jsPOlp9j30FVkXv49uAVkIkr60dvQK67B+cNP0F3r0apcjgFQdG19iW0P/orhZ2/C6XsFWUiTfnY56pFfox6+FvnMHWBnSt9Ydpy1uJP/88HZzJkSLtl6cXIx7BwNm1fyjs3X8d7uP1DlJqlOHOLc52/kkhd/w7uf/hmzYrsxy1xAptRX8eUPzeGyZc1j4PBfZQzu5bV4ogOHSHRvJzt0ADs+yOBvvkvw5WexC3ky+3aRu/lHEOsptpAmF6012WSU2MEdpHp2gswSfer38PAtuOkMhaFBkndfBa+sQGin9O1lw9zpzfzTe6cSEZny20hNK6JdO8ke2k1+uI/Urs1kbvg27p6tJLMGmbUvIu+5GgpZzGJvdTJRSpGODRA/uJ38wD6wbQbuuQ7x4krS+Ty5ngOkr/0uHNjs9a7LgEwiSurQbtLd23HTg8SeXomz8jasZJJU3KHw6HKcZ+4DJ1f61rJACEGVBd/90yW0hB1PNoQGzLKYsxPKJRA/RP3gdpri+6jKDnHeQz9j0a6nsXM2VQd38t77vsn06D7MMvBrb4Ql4OMXzODsWRGMMW6mjYF4FNGCbD5HvPsA/df+D9bGl3Fq6onPOZWhujbiPT0Mff9fkV3bQZZH600pRSGZpO/BO5F33oIMVJKaN5/u9vmkExD73W+RLzwGtvfwTa57ey2VIYu/u3QmbVXlVKrXorUmk0sT3baRxM0/Rff0o2bMJzlrNsPVdQysfYX8b/4LFTtU+tZJQWsoFAqk+/vYf/2PUc+txKmux557Mj2NnSRiUYZv+CFyx8vglkevVGlNOpkk+ewT2PfciOkKkvNOY3j2AgbzmsQDt1J47kEolF8PxBTwN+8+g5NnWAgcjDIQjCMRRRvO53K4hw5y9u3fZdHujei6qeTnnky0dgrm4CEuvf/7zOzdTuB4/doYr4gXwIIZrbz/vNnUhMe+fTYG4iEAgZSSbG+UzBOvYG7uQrS1k5s9HVERIjhzOompncR7Bxi+8oc4W9aDK8clfOxokUqRHI6R27Cbwh13QU0tzozpqFA1VS1TSMybz0CmwOAdN5J/5jFUoYBE8dqtwSYH0xBcsGQ671k0hbCWKNcT77E1veNAa1Dg2g7pA324D63C6u5HzJtDdkoToroSZs4h2dDMwDPPkbzh56ju/aD0hCv04Y/TGsfOk+iPk3xmE8EnV2HWteC0T0NHQlR0dhKbNpdYzyCxG6/G3vAi2slPeHkPow1cqUnE0mS3HiC58nlQQTKzOrGDASrqqnFmzmKoAIM3X0v20bsgP/kCIjAQxcGpJbNa+Pzbp2KpPEKboEb2zZr8g5uEBrSkYBfI9EbhuZ3M2N+FmtpKdloruiqMNWsO8caZGHsOcNYD1zLr4DYCJaebCn0UCe/rBkTI2ynxOBHCq9/qSJA/O7OVU1sd0DbaHenPHf9nMBaeW2OghYGRzlDVFac+IxGzW8nNbMUWAqE1pmUQntVBfv4sBru7id58DfbW9RPeA9FFs1SAztuEDsao780R7GihsKCDQiSARiNMQU1bM3r+HKLJNMO334Kz+hFMKctiTLatrpKPn9vB7HqBUBrtAqocSuahAbTCGopTdyBORJvIuVPJNFbhaIWlNaGKCKH5s0l3TCX64sskb7sO2b1/7JtHfwSNFzihlfYsOZOl5sAQdUmNmt2OO7MVN2CitcYKmFTPnkFhzkyGug8Svfk32JtfKc7jTQ6ubWN1x2jsSlBRXYczrx23sgKtNFpogi0NsHAeUWEweNstJJf/DnKZSXXMoigMtdURPvW2+Uyr0RhSgqNBUny+Jq98I3g2LAimCtTsT1CbNzHnTyff2YQ0QGiNFTKpPGk2hRltVOzbyOkPXsv0nh2YR5xi+foddN8gMWb+HPB6SyA4dWYTHzyzg1BAo5VGOaoo3GNTv8ctHkpIMtFBWrbuodk1MGZPRXY24pje3se6+McMmtTMn4taMpuBA7sZ/s0vkXt3TOwciNKgNHY2h7l9F51Rl4r2FtSCDnTQAlV0JgIQBtVtzQROnkcinWDgpmuwH10BcvKcBYAhBBcs6eDt8ysxixFh3vM4htZ3nAg08e1b6OxJUquDiPkdFNpqcEwvFFqikUJiVIWpWrqQ7Kw2+l58luQt16CG+0tvN34o75hSrTU6laR6y3Y6shCY3U5uVjOFigBKeO4OIGgK6mZNg4VziR86yMDVP8PZvN7b53si0eBkMlTt3kNnf5yKmmr0kk50TcQb+RAgtADTpKp1ClWnn0p/IED0nt+TvOcOyGVL7zhhiOJBeZeeNIV3zasiKG20o6CgMYvTi8ftlMYADQSSCRbs2E2jo7DmT6XQXocwTAztiYdQAhGwqFkwF3dmOxV71nH2HT9kRv/e1wjIxCMIG/DZd81gfrUkmAcrF8DMGodnk0yM41as4/6dckMD7P36v9Pc04XZVoc9cwpu0ATX65NZShCUFgFtYlqappOmY542n+Hu/fR++z9QB/dOiIB4bUuBkIK+227GfOhBQp2N5Bd3UAgaOAa4AqTwQjQlGssMUD1rKvqiU+nLpun/1RXkH3wA7TrFIayJpzFs8u8Xz/UMOqMwEooaG754cQfX/sVCfv2x0/mTua2YpW+cKLRm4JWXOfSD79GIxloyA7etDmWZh+tLU+yrGwJREaJ22akUZrXR/+wTDP70fyCTmZDGpxLgGhplx9j2sx8Q3rIRY04L7twpWIaFiUAW7UJrr9xm2KRm0UycZYtI9A1y6Hv/hf3SWpRTFPIJQNoFDq24F/XIA9RUVSDPPRVVVQ2GQAmNFkUHocDQkqq2Blrffja92mXwdzeRufv36OzkTKIbAtoa6/ng2SfREdEYeTDSUOkafPzsqVz1F4v59V+eyj+cM4cAAgMLcfxuatQEYkMs/c33WDy0h+CcqWSn1SAD5mvdrQYlJWZYULt0HoUFswnv38YlV32ZmT27MCYpsCJgaN5x7mlc1tlOIAM640LWpr3e4Gd/MY+r/vIUvvvBRTSGjy9w99h/FQ2pQ70c+J8fU3ugC2Y3k55Zz8FYin19OboHC/QPShJ5Rd4M8JyezvL8ApbbC9g561xyp55CPJOi52v/jty7e9yHKwSAlmy++gpyd92K0VKNPaORnmSCAwMpegaz9A7bJNIaQwQYck3uczpZXpjP2pZzEe9+OzE0Q7dej/3kkxiOnPBzDYKmwefffy5zqwUUNCJvoFMKM+dy4bw2/vKMmbxtRhMHBxOHW8sTitYMb1zP4C9/TGVqCHfRNHqrg+wezLC/t8DB/gx9MRfbDuK6EdbY03i4MJuVai7dp72T/PxFRNe/xOD//TKkU4dPLRsvTARGIs2Gr/xfqtauwWyvI9lez55olr0DBbr6svT2Z0hnJK5psc5u5N78fO4tzGbnjIvJnXcWqWyU/mt+hrtl44QtGutatYrkjTdQVVlBfnErA9kEOwfi7BvI0z2YZyjmooEhWcFDzmzuzs/msfASrPe+m3h9Pf133kruqZVoaY+0qiYMUwjeu6CV908NYWYVOitQGQi4gnNnNfI3p0/jo0s6GRyIo/EaHBNYPACMwQFO+/FXOK1vB8xoJD4lyMFYgr19CboGsvRFc2RtjTRNntEdLHfmcr+aR8/SS0gsPR053MeyW77PnJ5dkxKF1dlQww/fPRvTTqMKCiMrkElJYyDI3y6bzd8u7aBNm2h5fGU7dvEA7HyWYEMjqbmzSM2qpSua5ol1fTy9aYg1W6Ks2dzH3oMJ8gRYWXkyNwYv5jou5GbrAqKnXYxx/hmoztmobH7cxQNAKIkaShA6+VQSsxrosTM8tbGbpzZEeXFTgpc2Rtm+J01WB9gW7OC20HlcZ13A1fllpDsWUvGBSyksmI0jJKiJ73nUVUY4ucbkxR1R1h3IkkiCmwWVBpHSZIbh6sd2szdZKH3rxJHOEW6ZTmbRDLJNAXYc7GfVK908u2GAlzeneGXjEL2DWeJmkIfCp3FN4EJ+w/msrlhM1QWnY55zOm5lLbguepwDFLTQFPJ5ImYAe8liEjPq6RqO8+yGbp7d3MsLW4ZYs2mYA9050rqKBxrP4+bghVwvLuZq/TbkKcvg7WfDzHmQlxMzdKg12WgcMXsOQ/OmMGRJVqzZweoN/bywoY81G4ZYu3mQvBtgZ2AKN1RdwLXiYq7MLWNt24VUveNc3JNPRrqWt5vCBBOxDOa11PDSnkFe2JMkmwWZU6icRmQMZDLAbU/s48E9Q8Xe/cROngvAzudQzVPZM2cRyfYath0a5Kl1vTy/YYgXN3rp0ECWFCFubnobN4fewbXyYm4xL4ZzziN79hkMTWknmE1NWINiBAM4ZVYb+w4e4rk9Q+weyGFnNDoj0ClQCdi2J8dNLx0k7hxfz+jYxUNAfecMZvzDPxBbupi0MkjkXNK2gTbDYBggQGqvGx2pDlJdGaIqEkYYJoQs2i9ZRus/fwZr4SLv+nFGWAHm/59/JPKxPyMVMEhlUhRcQBTnZgwD2xHYriJQVU1tbSU1ERPDVGAJaudOY9pnPknlORcigqGxjqx7SxK5Al+972U+f89Gvrm6i20xUAWBzGvcrMHT22I8uLOX/CQ4BfDqse6MpUz74j8R75hCQdkkk2nQBgEhMIWFIUxcVxAMmFRVWVRHAoTDATA1oZowHR97N1P+8Z+grg5DGMdhoG+NQFDZ3MSsr/47hXe8g5whiGay2FKAaSAEWIaJkqCkorqqmkgkTEUkgBkQCFMx9YzFtHz+s1inneaNyYw3QjDvQ5dR+ecfIlkdolBwSaUdBCbaMMGykEqhlMSqNKiqC1NVEyAcCaF1gJoZnUz7u7+i8h3vxAiEPW85AcUeIe0ornpiM59fvpF/eWAL3SmBzAlUVqDzsGl/ip8+txtv34fD4S2ltxk3NGBN7WDnX32WdSefRsrQJNIOtmthGAGUIdDCQLqe/VTVV1BZESYciWAYFoFQmIZLL+CFj36erXNOwzUmdgBZA89u6+KLd63n8/ds5caX+0nmLdyCgc4IEsMGf3i5l3X98eMenTiuZ9OwTAIN3ni2wnvAhFaYSCwtkdL1zr5Fo0xQZgBhBrAQmEJhhkKEGqd4M2gTgRCE6+ugqgKFRkqJRmMYBlrj/Vspb1sS5eCaXiQZGAhMhBkkUFcLFcWHboIpOC47BpJsH0qxK5onnRSIlIHIGPT1S+7ccID96dykdPVHMEMhrPpapCHQSuG6ruemhVe/Unp7hwmtMC0QAQPXUijpotFYlWHM+gb0yMzveFe0YRBubkYFLW9LnaLNam2AEigXb/hEgCsKSAO0YSINb8IxEAwSrK3BCAbGvagjBCoimLXVaOGNuSupiptQGNi2W4weE2gEUhtIw8QxTLS2MUyTQF0NRjhYetsJwdGa3cMZdgym2T2cw84YGCkTI22SiFtc9dwOurL5SbNfAEyTfH0TBcNEaoUqhpBrIVBa4LoSECgBBgZSKIQpEEU/ZoXDOFU1Ey4cFJ/7/lSOHUMZtg9m6IkWkBmBmTawswbregrctmU/Sff4a3hMvLbWEqVl8QB37xtI4a2lUEoSsLP86cATfLmwnH93H+CLoedZoPsJmIAOTF74q/ZaD4c/v7jMwHAcFib38o/JB/hX936+XbGa6XKQgPIisY6/2o8PjRd6J22FmxPYGZNV+xLct/8Q9gR3k/8YWoA0irZA8b8CFJqwyvCe+NN8oXAPX5eP8ueBXQS0QmvrcAVP5DfRgEQXh0+9YA9lSKTlooVLxM3z14ce42vZO/mKs5yvWw/Spoa887EnsqBFNF5IptLKkw2Nl/D0ViOZn+7iX4fv4+v2ffzfwON82FhPQGcnZIj4aBBaYjgOOquQtsGjO/p44uAwrjIPu6ZJ8gyH0Uqjij15LwBBI7WigCTkxPnnA7fxb5nlfNldzj+Jh2lVA6W3mFwU6LxE5gpk83Drms10ZcZGnMdAPLwN7zQKpV+dRFYGWJbXmhOuw3S7n5MKO1nELjp1D4YqICdleMWLcnaUxJHuiIIghMAKWBiGwFVZalSUBfmdLJH7WKS7iegMComh9FhU2pigHIXKCQ7GNTes305WjYVJHC8ChSCvFDnbxdRgFp1a0DQJmibKdaGQZWZ+P6fk97GYPUy1hlHYICbDJjxn7BY39BRaIEQIU1uYysSVDq6TpkYOMUsf5GTRzTxjmKBwJmSa481Q+lXHBt6Cs4BlolFkXYdwIct8uZ+TnF2cYnZjaAetDQxRJhasBHZekXc0e/tc7th6iJ6CDbjF4apJ0WUPAVLLol9TSKFQhkIITdAyvVA9RzHV7meJ3MdScYh2YphjvAXI8aKVgWsHcOwwj+8Y5J6ePlxEcUjw+DguKyq20dB4LaCRyS2tQSoQholSGkc6OFJSkC456eBOUggbUOzKaxwtkUf0IrRWaFwUDloZOLbAdiU5t4CjCrjaxdUOWnjfj5E9HicFAQqUDY60uH7Dbl5OxpnYJZdvzshgk0YgMQ9PeyqhkUhcrXBdgeNq8q5DQdo40sFSCpPApLU3R7Zo1Bq0clDa9f4hFVK52LJAzsmTcwo40oto8tYEld5pnCk+eEp7FquKdqyEt6ZqBKk1eemQc2zyroNUEqMokK8+u5OHAZAHVQiysmuAZ4YGj5CNyceVLhKFFEX7LQ5pGwi0clHKxVYuGZkjq/LYcuLCtY8WpRTSVeyL5fney5vw9lkemzIek3iMGJ1QimQ2xaAp6QrA8JR6wssWYp12EoFTT8Y6bQnuSSextyLCTqPAdp1lu8ywV2bp1gX2FNIMFryQzIlAabClTbcTpS8sGGxuxThlCYFT5mCeNh9j6XzkKfPZX1vHDlOyx5Ts1Xn2qBz7VI79MkOvHcPFPfzATjwC8OZoBCGe7Y5xy/49eDstTbQXez0SySF7mENBm+5QkPTMToKnL8RcugDrjDmIM+aRmNvOrojJ7oBgr1Ds0jZ73AL7VIG92SFSMgtKj/u30XjDVKl8lh6VpssSxKa2I05bgHnaPKwzFmKesRB70Tz2VkXYZbjsFjZ7VIHdboa9Ms8+maYvl0BqNWEG4UqXQSfLQMikKxym8tzTMU+fg7F0FtbpCwicfjI9TW3sCDrsMB12mDbbybBH5TigcvTYSQreZA7FKpgUNN5Cu/0p+O3OHSSlPbnScUR9FJwU2bDDITNIblon4VMXY5y6CPP0kwksXUx+9ix2BwPs1ja7yLNLZ9mn0uyTSQ44cWyVRExSL/pIhNK42uCqzTvYms8VV6eNzQ8utNZ6+fLlrFy5kiuuuIJwOFx6zetQRTfVnejjyh0PsEn14JgFFC7KKO5dU3zyDUN4Wzhor9iiOMkkAGGZNESa+D+dH+HUYCclS3DelFQqRVNTEzt27GDGjBml2W+IBgpIfvHi73iWneREASVMlOFNhprC9spkCJS2Dj9RAq/Q3ncS1IWr+djUC3hP1amECB6Vv3Ych89+9rNcd911pVnHgEBgMr2lhW+cvpTfPP8sL8Si4/LI/ehHP+KLX/wilnV0i4k0mld6t/GbrhUcMIcRGmxAmsVVuUJ6C9gExQVUI0ZsYBBECIFhWsyt6+QbnR+hTld581FHUccrVqzgO9/5Ds8//3xp1puitSZaSPPfL93MznAUW2VwTYUyBEILLF1cqW0IhHa8wGFDI7QXieV9EYOWyql8svVPOD8yG/MoowZd1+XTn/40H/zgB7nssstKs98UDdy39WluHF5FrqKAi4PEK8/I/J0QAiE03r41IwhMBCYGFcEKPjbt7byvZhmhtzjhIQ98dW2MXirQCAwNm++4hc0//zzIfOnlo6IuaLDyo5fxsyfW8ofe7jHuORsgNMsueTvvuP5+HBV6zZD6m6Ihkxtm79BtyMpDBLTAKU5rveoLioF1Rb8mvK6qt25IGzihIJWBGbRXvI2gnvmWbXSv8awIZtN87+w5kBoeEwdvAH910mzOb2jkOy9t4GDBGTNxPv9Df34s4jEyv6FJ5tPsSPeSNAqAQug/XklvhEAwo6qVWeEpR72r5rGIB4CDy8sDu8gaBbRx5A4vI2o8YiIj6fUIDR2RJmZHWrEw3+yy1zC24uERsCyqLItUoYA7Tk3H0YsHdGUG2J3rRaGOpmpeh0AQFkEW1s+kVoQ9mziKGx2TeKBJOTk2RPfhWt4DfCxzLqYwmBFpZVqoGXGU8dvHLh6abYN7OUQKZXjzM8dCY6SOxZXTCL7FXgTjKR4C6KiqoiedHiOXdiTHKB6A7eTJyP0ocfTrpXRxONAQXuvINE0qA60EdOOb+pIRxks8AGpCAbSGtP36oyWO5xOOUTz+CMdTmlGQSo+Ix05mTJ9emv1HfytvuOcYOfKNI9/1KG42HuIxEYxWPA7zRnZwFPV0PByLeHC4qGMwRKbxvuRR3uhYxeN1vFFdj5Y/UubxFI/x5djFY6IZT/Hgj/y8x/MJ53/oz9+iPzVaxASlwxSVoDT9EcTIX6NMIyG6asw6fv8fccRvoo8iTSTez/sGP/gxpUmgtAjHknx8joGxFY8TgWN8WF73vPkP3pvzusryKBWG0stO6Co9oQvv87+Z0sbZWDXS/v8Tj+PE9xFjg1+HPj4nNr54+Pj4+PiMGl88fHx8fHxGjS8ePhPGCT+v4ePjcxhfPHx8fHx8Ro0vHj4+Pj4+o8YXDx8fHx+fUeOLh4+Pj4/PqPHFw8fHx8dn1Bze2+ruu+/my1/+MqFQqPSasiOXy7Fs2TIeeugh2tvbS7PLDtd1+eY3v8ldd91VmlXWfOUrX+ETn/jE6Pe2mgRWr17NlVdeyR133AF4h3uVM1JKvv71r3PJJZdw6aWXlmaXDQVhcc1wDYNm9Qm2t5XHknPO54LvX4+Lt6npG/OmGROKmcty1UffDul4adabMllWfsEHP/aqePzLv/wL0Wi09JqyRGtNJpOhoqKi7J0ERUdWKHg7dJ4I4kxR8HK53GtOqitnRHEn00gkckLYBMVGUCAQwDT/+M62k4k0Q3z0jhcoNHSghcBQsO0Pv2fr1f+MpZ0x3OxibNGAdFycgidw4g13Dy6/cgvDJBip9Lb7L83j1T329MgLk8Q57/nwq+KxYsUKfvCDHxzfrroTRDKZpKOjg02bNjF9+vSyd3BSSr71rW+xYMEC/vqv/7o0u6wY2Vr6xz/+Md/97nexbe+YqXJHCMGyZct46qmnSrPKEtd1+exnP8tll13G+973vtLssiGH4NsbM/SJSu8ANGFQERTUBTXGiBsTlJkj1hhKsf7+e3jyG59D5VOIYmmPvKa8yuzRMm8xf3n17Vjt019XOl08QntkF/6R/y+9biLI5d1XxeOhhx7iZz/72QkjHs3NzaM+z2OycByHr33tayxcuJDLL7+8NLvsUErx/e9/n29961snnHi8+OKLpVllieu6fOpTn+LDH/4wH/jAB0qzy4Yjt2QfEY/KsEFj2MQ0OMIBl5czDhiw5q7fs+pr//AG4lFeZT2SlvlL+Mvf/IHgtFnokt6H1uVT8kzW9ifMfXx8RknRe4miaHvpyP+f/KS9oxVLi/yG/yovRroV4tXzHw6fAyEAA1EOSRi+ePj4+PzvQx85QT6JcwPHhvCSNkpSeX0RXzx8fHz+9zEyF1DOnYw/xglQ7hNSPMQbRCL4+PhMLMoAJUaSUVbpBPC9JzwnpHj4+Pj4/K+mOHLlJV1MpRdNDgIwtC8ePj4+PmXMSHxVucRZvTqX5IuHj4+PT9lSHoLxRvji4ePj4+MzKrQvHj4+Pj4+o0EXl6H8fyYeCo1Ea1XchqO4alO/ui1HafIZH8pk7s/HZ9SI4p9yteLD8+vFRHFl+liNgI0sNxlX8VBOgXzXNkgOjF3JjwM9ohSvfXVk+SZauqiD29GxQ4evK2sB0Rp74CD6wAbQsjS37BBCYFkmZy2YyhmzGsfX+MYIaRdwDmxBZ6JlYcNviVbkevagD207IWwCIJRL0N6/lYiTPSHqWKA5d1E7S2c1FEWkvDgyUAvAlDbT+zbRkB3A0GOzD6AYE/HQCqU1+ze+yNDGJ7APrQMnBVox9Mz92L/5Eu6KX0Kyr/Sdk4AATLQSxLv30vfyQ+T2vuDt4KNcspufIXPHf+Pc9FVI9LyB0EwSSjE80MPBV1aQ3f0wbnoHWrqkDmwnf8vXsW/5FnrTYyeEs2itCfM/nzqHs+Y2lNVj57qS3n3bGdrwGPa+F9HKRdk2qbUPkb7xa7i/+zYUUmXk3DTDPfs4tH4VuT3Po1MHQUsSOzeQu/E/KVz3H+h9a8rKJkQuReeWBzirdzUz0/sxlUtFLs57H/sf/vah/+TiLXdR4WRL31Z2dLQ28G8fW8JlpzQRKBt7AKFcano2smj/w5wRW0NA2VjSZsHWFXzsse/wqRX/TmfiwHELiFHs0Ry/eKAw0Gx56Wl619xDctfTOPFuBh67i8BD1yCcAtkNL2A/chM6NVwWD59WimjXLrqev5f+dQ+AmyGz5QXyD1yHiPVj9/eQu/bfUT1bEcotffvEYxj0H+rl4PNPMvjcCgq9O0jvW0fu7iswBropJNNkH7wRtf4xcPJlUMNvjGEI/vQdS1k6zcAS8o12nZ40pHQ5uG0dB5+9m9zWx1B2lMQrjyNX3oiVS5HfvgHnt19HR8unUdF/YCfdax+i54XlFAZ2ktz6HM59VxBOD+KkExTu/hVq5/Pg2mXx3Kl8mvYtD3Da7ruZHt1E4/A+Ll7xPU46sAYrn+b0dXdy9rYHiLiZ0reWDSHL5L2nt3P+/DpsQ1M+0gyGktQeXMeiXfdx0oFHqcrHmb3lIc57+TYiySFCfXt55+M/ZsbgDswx8GvHLx4CEC4YAtt2yPYPEV3xB9w7rwezkmjrXIYCTSRXP072rl+jB3pATU6VC2F4G6cZGikUedcll0iTfH41yVt+TWA4Sa5pNsO1nSQPDpC59efIXetBOqW3mlC8PdEMXAxSeYfM9m2kb78eY+9e7MZZRBvnkBhKkVn+W5xXnkDaNroMnIWHcXgzt1Nnt/GPb5+GpR20KhsfDMWhCK0VedslGYsTf/xB0rf8EuW6DLfMYTDUQuzlzeR//2tk3360lJPuj7UEJ29TyKZJbVlP9vc3YBzqJdcyi8H66cR6hkjefSPO1rUoNz+pAqIBJQRaGWSyBayubZz28NWctGsdur6NoeaZpDIupzx5C2esv59KO4UuIyseYVZrPR+7YA41IYU4zhb8eCA0uLaLm4gzfd0jnL76DhrzDsn2BfRVTqV63y7Of/J6pvVvxzgOAdFjIh5FlNIkB6OkXtiAvfIJjHAV2RnTkE11qOltRKvqiT72EInbrkEeOjDpnkNpTSaTJrX7INEbbsKIJsh1TqXQXIvR3kpi6gyGdh0gcct1ONs2TprgUfyRhFbk7BzJrl6S9z2J3HsAt62DbFM9oq2BVHsH/X3DDN32G/SLj09qeV+PpqkqyH9ctoi2qhRoEKqMuh2ARuNql2QyQXT9FjK330BACZyO6RhTmlAzZhKtb2HgxRfJ3Xk9qvfg5NqwxhO7fI7Evh5S9z8E3T04bdPINtRjdrSSaWsntr+H5B3X4mxYXQY2obHtPJmDA7Q8tYp5OzZitreQbW9DNbWS65hJLudwyoM3cNbqO6nJl9MwoSAg4G/eeRJnTBMY0sGQ5Tdl7kpJKpHAXr+ZU1b9jtZ8msLUDmR9PdbMGSTrG6nasY5zHrqOzoE9xzSEpRmjaCulTSQmMpNCHxgifGCIYGMd7vw2ZChCAEG4uprAgnkMtzYTfXoVqdtvRPVNbvffzdsEuqI07BjCzOVwTp5Btq4S1wAjZBGZ1U5uTid9e/YwfN0vUF27J6+8GnBd3L5BGnYOEkzZqNlTyTfUoE3QlkFFazNy3gyigzGGrrsS58mVZeAsADQmmj87fy5vW1BFEC/STclJqss3QWggnydwYICa3QmCkWrcxTPJVUdwDUmoKkRk4WyyLU30rV5N4rdXoeKDk+faBNiOTaE3RsuuKMGsgzu3nWxjLVILtGVidbSSmdVJ/4H9RK+8EuflF2FSD07T2Ik4kZ19NCZyGLNbybQ3YAuFYQpCLa3Ik+aRLGSZu+oPnPHUXVQV0qU3mRSE0Jy/aCaXn91IiDxohZaTWZdvjLRt1N4BGroT1Jg27vx2CtUhtNBYkRDWnNnkmlto2PYKF93yPTqH9o9aQMYs2spAYLiaxp4EM4ckFc2NFBZMxQ4FKQiXglC4WiEqLGrPOo3B2e30P/MY8duuxY32UFDuhHVOvWgrhXIV4WiW5qECwYCFcdFi8pVBlDAAjdIaaQhqps9ELZhG7MBuer/9ZfShfehJePiUVliZFJ09KSpyitCSmTC1Fjdskjc0yhAoyyA8ox155mKGEzH6r7ka+4mVII+9azoWGEIzd3obf37ODKqRGAUQOYWSqjigNQZGeIxoDVoqtJIgFdX9SaYO2NQ0NSGXzceOBBFKgatRCgKRENWnLiA7azrDz68l+uMfoNMp7yTLcTZhXZqUIpBKMaMnTtBVmCfPx5nSgDYNEGBqMIImlbM6KJy8iKHhFH0//x+cF59FF1y8wXoHb/yw9NPGlpHbG6kCU/dlaHADMGcasr0FoYMYwkIYCm1IwlOnELroAvKuzcKHf8dpzz1AxJ78OZDaihD/9fHTaRIZhOuiCwpTCUyK54YY3tzkZKHRKNumoT/GrAGHikgV4tQ5OJVhHAGu4S1UsCIWlScvIN7ZRrBrK+f95lt0DO/FVKMfmj/Ob6spJAbYf8uvmLLxJYJTalAL2lEVATAFljIJKI2hBRYm4aBBy6kLKMydxsDqVSRvuBFzcHDC9qkXaFzHJfbcatz7l9NUUYF1xjyckIlZPORRANoQhMwAImxSvWgu7slzScUT9H7j67hbN4Iz+oo+VqRtM/zKGtTdv6cym8E6cwHZ1koKwhOxgAJLKgwMLKB5+hSsS88kpWz6b7mB3KqH0Plc6W0njOpwgI8va2dJowkFic5rDFszt6mKi+e38rb5bZzc0TiJ3X+Bm80z8ND9hJ94gsqmZvInd1IIcNjticN/acywRfUpM8nOaWFg/VoGv/sNVPcB9Chbb8eDchwGX3iO8MqVVCmH4LmLKDRVeOdeFytSAIYCyzBomtOOcf4iYtkU/Tdcif3S0ygnj9Kmd87QeFe+UlR17eaCW3/CPKUQs1qQMxqRrzmiQmBoAxOonlJN6OKl5Cotlqy4lWVPP0hlITdpNhK0DP764pM4uSqPsEE4JsKGGfWVXDxvCpfOm8LJLbVUHKc3PR6sbIaZz67k5I0vEWyoQp83DydsoosNCUtqTC0QGATCBk1nLCQzby6hQ/s5++af0XlwB4FRNDSPb2NErclGo3Tfehv84W4CLTXk5k3hkFIciObpS9gMxh1yBYGLxTa3kdX5NtYE5tC95ALSc+cxtOoxEr+6An2oe0KGhLTSHHpwBb2//AURN4WzoJk+E7oHc/TFCwzGC2RyAqkFg4UAawptrNXT2TX/7aROP5nhgQNEr/oZ9ub1E9aiH96yheivf0Xg0H6MhW1Ea4IcjOXoj9lE4w7xpIPGIkoVa90OnnU62dxyGtEL307MzjNwy/UUXnga5MQPYRlCsHT6FN6/oJlIwUZmbWRGEsgrPnf+DFb8/TJW/MPZfHRRC1bpmycADTiFPAdu/y3Jm64nWC0ozGug33HoHUrTG80yFM9jOxoXk51ONc/k23gpOItDy95OcuFsBjevI3bt1bj7d09Yr7TvpVcYuuYarOgAzuKp9IQ1PTGbQ1GH/qhDPA1SQExHWFto5QW3kx3TzyJzwQXEkjEGbrwOe92a4rDL+K5UEFpRs38Hi3/3SxYf2o6e2UCio47ueI7e4TwDsQLReAHpCuJU8IrdzOrCVDY1LaH3zIvIRMIseOAmlj1xFxF34o9ENoHTOqfw8ZPbCNkanRWQkhhxm4+f0cEDnzmd5X+3lH9Y1kmVZY5rXb4ZQdehbdVyTnnkNprCNoUl0+hK5+mJZumP5hlOOOQLGoVJj6zk+UI7L5iz6Dr93RQWnUTV/i0su+c6pvbuwzgKP2wULzl28QDSg4Oktuwi39xIbkEDXfkcz2zp5+VtMV7eHmf9zgQHejMUjCArqk7meusifqPOZ3nFJaTOvJT8kjkMbduN7nt1Ud64IiU9jzxKMGSQnNtAn+nw/PZDrNk+yLptMTZuT7LrQAbbtdgdaOa31llco8/jen0W6rSzCV14FlHbIb+/C63Gd7BNFYdVhrbvJjeUxpndQaoxwgtbu1izZYhXtkZ5eUeMV3YMUnA1+wOt3Bq+gOuMi7nGPZ+tM87DPG8ZKcPE3rVnUsQjEjB535IZTAsY2NkCbhbICVRGQ1ahsoqdezL89tk9kxLyKNC4yRTRR5/EaKwjM6uGA3aKZ7cPsGZ7nFe2J1i/M8nBQwXyuoJHapZyo3Eh18m3cWvwnejzLoRT5pAY7EN2dZXefkwRI0lphjasw0nHycxuJFUT5LmNB3hhyyAvbR327HhnFNcJsM9s5reV53ENF/Arexk7578Dcf7pJJ089r69GMrG0AIxjs+eoTR1+3ZR399NblYNqfZKdhwa5rnNg7yyLcrL26Js2pVgKKnpDjSyPHg61xvn8Rt1Ps+1nI9xzqnEG2ppXvccoQlqsB1JZTjEexd2MCsgyGdz2AUFaQOdEogUiJSg65DgjrUHGSo44+oT3oygU6BpzTOEI5r4rDr6nDyrN/Tx/LYka3ckWLc9zt7uHEpY7BTt3GpewHX6Ym40z6fyzKU4ixfAUD81w0MYSr96AuNbcOziIQSNs2az4FvfYPjCc0gHQgymC/TFXVJ5g3ROks3ZZPM2Wgjs6nrsqmYKkQaiZhWytpppH307M674KWLRySCOvShHiwgEOO073yby+c8SrwoSS+WIJvKkCopEQZLOSxIZG6kMVGUVbk0ThaomElYV2grSsGwJM77xVSre8U6wrHFvZbgCZr/v3TT855eJTW8j47rs7c+QzAnSeUU6J0mmC7hKY4eDZGvrKETqiRtVJK0K6hfOZNZX/omKP/tTdCBQevtxJ+9IfrFqC2+7+jkuvWoNr/QbuHkLlRPIjCKfNfn6PS+xL+0U1/hPLEIIIs2NnPKLX5D98IdIR0L0JzIMpfKkcopMXpPJKVI5F1sIcvWtFKobyVXUMWDUYFRW0fGei+j87ncJnXUeYiLGvA3BSX/+59T942dJNNeScxTdgxmSOZdMziZbcEmlMrhK4lRa5BoasGsayIYaSIpq6k9dxKyvf4nIez6ACISLoXzjZ8nSNDl07qWs+sdvsW/2TGwkPf1DJHIuqYJLqiBJ5VwytkKHgjjVjdjVTSSDtaSsEJG5HQxc/rc88g/fIBGMlN5+3Mk4Dr96dgfvuOZ5LrxyLb/eVCCbN5EFhSwoCrbBLc/u46W+xIS0f9+ITDjCpn/6Gi9+4ONkKgIMDAwxlMqTzimyOU06L0mlXRACWRkmW1NHJlzPoKrArAsSuuRMtn/2X9g971SUMI5KPPRxiQdgBgKEm5uQQQulQUqNUgpTSyzlHtGb0JimIGAZhAIBAoCBJhAJE2pqRoRCExPzJgThpiashkYUYEsXF40yDBQCLURxQlJjGiYBy8QyDcxi2QzLJDKlGbOqalwfOIo/TAAIVVdhNdShLAOlNAUpi6elmeiRn0+DKRSWKbFMA0OAFhoCJsHGZsya+nEv7xshteZANMGm/jgbelMMZ1zcLKgsSDvAXc8f4LHe2KT0OkYQpkmoZQq6shKFwHElSmuEtoqDFgYaAyUkpiHB8BY7CkNjoDFDIYKNTYhwuPTW40agrhbRVIcyDKSU2K48fLqmRqCF6c0hYBDAwrAEyjTBkJhWgEBjI4G6uglpsAG4kUqydQ24pokS4LheY0ELgUKjhTf5IRBYhiAUsAhZJqaQCAuoqyVb14iaDBuWikOxFBv6YqzrS3Mg8f/Ye+84u47y/v89c27bvquyqrvqXbJlucg2NhhswPSAISGExAklNhD45ZtCEkICX8IXcOhgbOPebWyKe6+yZLnIKlbvfXu9/Z5zZp7fH+euvF5LWCutdq+S8369Bqw7996dO+eZ5zP1GYOfs5AGklG27HK59rWtuCLDtXT7FkQ5+KPryVeUY4zFd32M0mgcVNA76HsnjjZEtMVxin5DIkTjCfy6UXix+IBvPjzCEG3VhWAXkxDsZNJS9FNK4boFjDHgFZiT3ckSdwtnels5N7qXsboXHXUQpU/wrOtbEYpBD0XQVnCKx+2NbxArGONT43ZzWn4j53ibeGdsP+Uqj1HOwK8aNkSCsylawLHBvKMYH7EW43vU5ntYktvBWWYr74nuYYFqRqs3NqIPbw2/FQGMZ5GcQXKKbfvzXP/6brICMiLjjjcjgCGIIKcEtAjKGox1MWJR1mNeagfnels5127hAmc7ZeIHAn4UPbWh5A1XIBhrUCi0VqAUvuehAFGWukIvZ2Q2c46/lXfqHSxWe0AVT5tL8FuDztLw0Bds1KLQxV8hxmB8H6yh2u1mQWE7SwpbOFd2sjDag6OcEen4vAUVJBHAFUxBaM0Y/vmJl+gmWGMaKfqenyp2fg3yhk8VwfO8wD8bw7hCN2d6OzhPtnNR2T6UMhgVdPSOliHbqgtB4xcxWLEoVZyvR4hENSKWqFfgA92v8KXCw3yZx7hEr2KM7UaJQTES1ysKxhhMcZOwFnBwcLRGUBibZ1p2F5fmH+fL5km+HHmBsaYLbY++gocSQbBisWIPPTglQkRrtNaINTSm9vKXvY9zuf8oX4ku4zS7Oxj9MbLK0T86sW80klakeoS7N+5jQ28m6HkO/NAIIIApRltWAuggGkFgEx5RL8N7el/hC4VH+Yo8xd9EljOGtjeuVRtuBKy1GBvYhIhCKUUsGsWKIe97NGaa+Hz6Sf6u8Bj/J7qSOdJM1JqgN1rcmVX0icOC7/t41uCLxsEBgWhE42gFnsvEXAufyCzny94TXK6e5N16S3EGY7hK+EcQFRiJrzBZTSEX5e7Ve3mpM4UtCvFIGbICtGhA42PxxEOLgxKLVkIs4qBQGDfHzPwu/jr/OF+yj/K38eXETQalnaDzMQjUkImHFazt680Hr1kFkUgERIKhlAXXWFxrMOIHdT1ClR1gwXqB6NnAGSsBrI81Lq41FKyQ84P/DoRm5AosxTqVvn9IsLUYEYxv8I3BNcG0lm89DG8ITcnggfGirG7PcP+eA6RHYBH/SEixx2aLCQwKG9iEMRjfJe955I1HznfxrA+HNncPP1KMkmBMYJnB9I+glEWJwfd8PPHIWY+MVyBvPPygVzdyXq4YiSKw3aAU2tE4WmOsxTeCJ5D3DZ71sSVxyPUNFCC+IIUo65sy3LPzAME4b+QJLDboYAJY1dctE7QKzooZa/GtxbWWgvExvgmexyDpC/U+NOJB0MOMxKJUjRlNWd1YymsnEK8dR7R6LAUUBeOS9gp0F/IU/JGZphArGDEYa3CtxsarKBtVT2T0WCKja0mMrqdi1CR0dDR5zyPt5Uh6BbK+dyicOBSDMg2n8hW7h77nU1VTQ/moMcTGjCUxZjxV4xrwEzW42pCXPN1+hpRXQHxvxDrFR8L6lpQb5Y6Nu9mZyY6gC3srWgTH9YhGaqmonUi0upZYbR0Vo+qpqJuApxPkfI9sMRWMjxEbLIuMhE8+dOcMVFdXU11dRVVVNeU1o6ge04CO1VMQIesXyJg8WZPD+j4xv9hJMsHhwMC9DB8KoayqivJRo6moG0e8Zjzx2np0opaCGPK+S9ItkCwUsCXimPtQgBihNyPcsX03W9IpfFUaAqcAZQ1WfJx4lNrRo6iuq6OidjSJ0eOJ1Y6j4Di4eGRMjh4/i2d8rA1G24Oh76koEZH77ruPxx57jJ/97GckjmLhL9gdLmTyGR7au4Jnm1eRzXVirIOuqMZqQZRD1IkRVYDXGwRmK3ozrTSO4xCPx5k3aTZ/OuEjjNZVR732kUqlGDNmDFu3bmXq1KkDs4+IEcvKA6u5Z9/ztCf3YVQEnaiiTMUxWtCOwtEOvpdFuVm0SHFxNJgeUk6EieOn8vHJ72FepIGIdo5qzO95Ht/85jeZP38+l1566cDst3JImyzbe5u5Y8uT7Etvxy2kUeW1KJUolikCEUtU+xQynaB9rAqm4LQ4RGMJRteO46NTL+LM8llEjrKvYK3liiuu4Nvf/jauOzR762PA9R99H25nir9fsZKhDjqhlOLMM8/k5ZdfHph1RIxYPJvnkW0v8kTrqxRyLeRVFFtWhSMxHK3RGqIOGDcDfp7iAW4otgOnopw5kxbz8frzmOqMQh/ljivf9/nCF77AJz7xCT760Y8OzH4r/dr3xo6d3L71Afal92F8D10+Ch2JohwHrRy0dlDiYnKdOMXDpEHbciiLRRk3uoGPTHk/C8umEpFieY9gx3ng317tppnyYOSrNBVxzegyB31Uh3OEbLaVlu7ncJKrsX4eXV6NisSDqQ/toKMRtBUk340SN5i1EIcYDjqiyZWNITHmfKrUaUDkqJZAHG157Z7f8My/X4Z1U9D3O6H45AaJAoXmi+cv5Wyt+c7KV9nruocEeKgYN+cUPnP974hNnlEc1b5R1mBDz+F+vKWtZx2p1HPE0zspOHEiiWqUjRBBE9WKaFTju1msXwBl0EqIWoXWEWw8hlTOpLLqIiKMe9s1Ji2QybnHJh59lXWgp4XHO1bTHsseWrsY7FSJg8O7x57OknhjcNT/KDgW8RAgj8vtW5+kM+aiIsFx/Tf+5Nv3IASFFsW5NXNZWj2XeF+3820YtHgQFNgo4cW9a3kxvxMSTjBxpovCokwg4UcYXigCY1cIUysn8ic1Z5FQR9XaT4h4OMAlC+ayfk8T2zLJo6jtwXEs4mFF6Mj3cNeeF8glbBAiQxV3zRSd7tujiOsY59XOZ0nZNCJHuaniWMVDgMd3vsJa9kFcBVNW/WwgeO6HR1uFVUHHb17NTC6qXkQZkeDQ1xE+dLziIRiS2W30ulsxMR+lBSv9w/H3LYgXR0QC+o2FPYKiKWK6grGJd+JI2VHNtg+5eOCgMZzS0EgiV2BVRysn4tTJsYiHKJd9nU9AIo0oB1GqWKUKEYVgivYsQd0FBh6YlLI4IjgqxtiyxSSksdhaj4wSyOSPUTz6Y63F9v2kQyp8eId2JJTSOP23Db61ft7EsYgHcGiXlZWilb7JCPtee3sUCl0M7340HJN4FLG2b6FcoaRvbFbckqBs8UG/TTkEHO28XYfiECdCPE40xyIeFJ+4Kc6tBz64r1EdvT1wDDZxrOIBwfy17XMGRUdw2Df+MVSxvKjgpx6h2McrHm/B+gM6mEF993+p7wQzFDukfZIYbOPs984jM/TiMTwci3gAyB+99CuwZUWwsSKoQzm09VmLFDdR9BtWvw2ZnHsUEv42aK2JaAdHOziOQ8RxiDiRQSVHFwt99LZxTPQ18Ih2iOgIEa37pb7X3j4FjvgEFrQfWuugnrSD4+hiiuA4ESI6ViyT88eTc/TC8b8NBURUUE+OE9RxxBmcPQyLTfRrH1prIipCREUP8/zfWrbDJuVwaJP8CSz2W9ARlOqfgqk21S+J7ksRREVAOcUzKcNZ0JOL/vX31hRBqSioKEpHUNpBaQdHaZxiPn0+eBAct3iEDA9v1dW3vhJyjITVGPK/jn7+4xjs//gCI4aEhISE/K9jSAIjhoSEhIT87yQUj5CQkJCQQTFwu1FISEhISMgfRRjCwIghISEhIf87GNLAiCEhISEh/7sIxSMkJCQkZNCE4hESEhISMmhC8QgJCTkqFKCtwVFC1LEoKygbhE0qqXTYCC3yxhtKDnXoNDh9IWOK0ViCW0ODdKTQJCPFodhWDz/8MD/4wQ8GHdtqJEin0zQ2NrJ27VoaGxsHZpccvu/zf//v/2XOnDl89rOfHZhdclhr+clPfsL3vve9kyq21ZIlS3j++ecHZpUkvu/zla98hY9+9KN86EMfGphdMhRQfGdjnhZVUYxBJZTFYFTMB+ewXrokUArW/PZ3PPftr2K9dLBFaKDvLZHiH7qcC6iftZA/u+oOopOmBLVdot37nGvfEI/vfOc71NXVHXVI6ZHmueee45JLLqGiomJgVslhrWXt2rVUV1czc+bMgdklyYYNG9i1axdlZWUnNmbTEJHL5SgUCpx55pkDs0oSEWH79u3Mnj2bhoaGgdklg4kkiH/mG6Qq6w+Jx4E1r9Lx/D1E/FzpeOABKIHOvbvo3rCKRF1tcK97EI66WOY+mx7hMD8CSBDkUiHkkikmzFmIjUeDkunidY8lgADWBpGcF517wRvi8bWvfY39+/cPfH/JorXm+uuvZ+zYsQOzSg5jDLfffjuTJ0/mwgsvHJhdcogIv//970kkElx88cU4ThD0r5RF5JVXXuG73/0upoRuJ3w7Ro8ezZe+9CWWLl06MKtkcHWEZ2qX0BGtOXQTq9vRgmrejMaUrHgA7FqxDHfdSk79ylcpqMQhoRCh391BI2/Tyvoo8XEKOe75xy9BPjXwLSVD39M+7+OffkM8vvrVr3LgwIEBby1tdu/ePaiQ7CPF8YRkHwn6QrJXVVVx+eWXB9cJlziPPPIIH/vYx/D9E3HLwolh0qRJ/OpXv+JjH/vYwKyS4bAh2ROaMWUO6ihuAxgpFLDmnjvJPnc/773yBnKUHSqs7X/9Qwmgilce63QvPzh3ISTbSlqUKYpHadViSEhI6dP/FmYp4XRokqpEFa6IiMaIBhWFP3ovR2kRikdISEjICFLUuRKXuLcSikdISEhIyKAJxSMkJCQkZNCE4hESEhISMmhC8QgJCQkJGTSheISEhISEDJpQPEJCQkJCBk0oHiEhISEhgyYUj5CQkJCQQXPCxSMajRKLxQa+XFoIYIvxyay8cWrnpEGQQ0d+TwZOprJCNBqhKhY5KQ5xCYJgsFiEUgw/XqQYIV0b0KbY+EIbPgE4QASlNaPrhjZi+gkVj/J4hH/+5GK+++kF1CWcgdkjhohQSPeSbd+L39ME1sOKR75pG713fAP//u9DsqWkjDmfy5LuOIjXfQBxk4hY/O5Wen77M9wb/hmaNyO2hEIbiCXZspdC1wFsvhcRQ6GQpvflB8lc9/fI+ifByw/8VMkRj0b4h0+ewS/+Zgml1gXKp5Nk2g/gdTchXhqxFr91P8nbvovc+W/Qtqe0wl34HhXde6nPHKTK60Xj4fhJFmy8j795/J84Y+8zJPzswE+NGCKWSLqd0en91OdbccQn4ueZu/1p/vLhf+K8LfcTN7n+0VBKEEs0Av/4Z0t54F/fNaQ2fELF45Rp9fzVe6ZRHjV94epHFBGLiGCNZf+Gl9jyux/T9tx1SKGT7P4dZB+6EbVhFYWVT+I9fA3SuRexI997ExH27tzCxvuvpu3JKyk0vYjbspPUgzcSee0J3G3rcR+4GrtvLWLcQyOpkbHooO+L7/LSbT+k6fFfkt31Im62m9QLD+Dffw3+zrXkH78R2bAMfH+Eyvn2aAWnzR7PR94xjpoKU2IBJITd619m8/1X0vzM1fgtaygc3E76oWuJbFpObt2reA9fjWneilhTEiNTSXWy4Jkr+MiGKzmt/SUq0l2c8fLv+MiK65iyZw3nvHor8/cuJ2q9wCZG0CsLQCHLqLUP8oHXruRPdt9BndtO47bnOPel25i+by0XrLyJszfeR5mbQSS4GMuxgj7ihVTDj1awZNY4vvCuesq0NzD7uDhh4lEW0Vz+ofk0jLEjZgAD6QsrrpTgW0MmnyObSZM5uJ3eu65CbV5DoWY87fHRpF5aRu7BG5C23SM+AhEFxghuziOVypA7sJ/kH25HVr2AWz2WjspxdG/fSeG+m7H7NgXOogQqvVDIk8skyXa20PPoPZj77yBmYyTrGuhu7SR9/03Ytc+BlGYk3KryOJec08iCCQpFCfXgi1hjKOTzpJO9ZPftpPf3NyIbXqMwegIdlePoWb+BwsM3Y1v3YaUo6iOEFO0YY7G5LLqzlbkv3sXSl+8lkiinq7aBaEszZy67lfm7n0PjYRXYEdRrZQVtBJvJ4yeTTF77NO96/jYmpjvI1DWQzbqc9dwtnLf6XmrcLNJXx323FY5cdR+iurKMP3/3TCbVMeQFOiHioYD3vWMeHzm1mqj1kFKR4X49R4VQyOXp2H2Ajl9cidqyATN+LIWJkzFTZtNcUU/vihVk778N29n0pm8ZbhQKLVCwhs6WVjp++yDuy6/g1o0iNaEeb8pE0nXj6Hp9M703/hxp2xPU+Qg2PAg0t7czSdtjj+E98HsiEiE1fSruxMl0TZhGR1sb7bf+FG/lw2BLT0BOnzmGPzt7NAktIKUz7Qpv9Mp9zyfVlqbt7gcxr62hUDeG3NjxqClT6K4dTfeqVWRu/hl0HRz5ThCC9X16Wzqpf+5BTl/2KInKKlKNUzETG0mPbiBxoIVz7v0VizY/RUQ89AgVWQlEUYg1dKd6ya7ewFmP3sHo3i6yDdPxJkwiNWkGPSmX+cvv4qxX76bCz+Bp8PXIil4fWsG759Xz4QV1lCmN2KF190P7bQBK0Tiqih98Yj5VeDjWoQQ7bRjfkGnrpmxDE3p/K9FZs8iPG4+JQbTSoWr+bHqqRtHyxBOk77wR29MVDP1HyJit9cm3txHb3EL5gTRqbB3upLHYqEM8FsOZNonUhAl0bNlB2xX/gWpvLe4AGDmymQzu7hbKNzfjVFSSWTSdQlmMiNZUT5pIbtZ8uppztN9wPd6Kp8GUjoBUxiJ8/U9OY1R50PsU16IOPXzdL40QClzPJdnWSXzVVhKtrciU0RQm1eOjkJhDfOoUuuom0LL6JTqv+Fekux0RM1ImDEAhmUI27mfsnoOUT64iN2sCbkQjUYfo9Aa6pk3DaWnh9N9cz5LNy4nakbmtUBRYBwrZPP7udmq3NVPletgF08hVxvAiEcrG1+OccirZXpdZj97D4tWPU+EVCO6OtagR3LCglGL8qCo++a6ZTKr1ARcK/pD2J4fc+itjES77wEImV2VwrAEflN/3/Iey6MeOWIvqTlPflKHGKKJLZpAZX4WnVdHfKnTcIXHqLNzGibQ99xS9t1yNbWsaGUO2FpVKMaq5h7FZi5o6FjtrHDbigLUIEIlHiC+YQnZ2A6l9B2j/wX/g7diM8V2CdwwvXiZLVXuaiS0F4uPqMPMn4kWC36IBZS3Vk8Yh5y6gN5ej885bcF98FtzCwK8adiJa8TfvO4XzpkaIuS7KdVFe36RPadiwNRaVyTD+YA/jJEJkZgPulAlYrTE6GK1GEjEqF8ygMG0O6W0H6frRt/D3bEfM8Do1KY70I9ks1QeSTEwbYg2TKEyZjKeDi8YcCxrNqFmTyJ5xCpLuZvZ91zJv80ri3vDbhEJwvBwVra2Mb89QXlODt3QWhco4jlJoLIIhOm4UcsZi8g4seOAGznjlEcr8DEpAycjYikKhUbx/cQPvm12O4xuUBwztksfQiodWcM7sCXxsbh2JPCjXh7zL6LIYp02u48yGWhZNrKMiOrJTAL3btyHLljFeIsRnT8Gb0HfFZnFkYUFQRKuriC+ZT3b6JJqfeozULddhm/YP7/BfhOzeXTjPP8n4nhx6xiS82eMpRMEQLNIhAqKIJcqoPWU22UXT6Nizg44brsbfuhHlD+fQT1Ho6abpd/cysyVJWf0o7LxJ+BVxjAoW/30sRhuMI1RNb4Sli+hK9tBxx43kX3wGRnjX2MKp4/jau6cQzbs4BY2Ts9Q4MU5rrOH0hmoWTCinMj6kTWdQiLUkd24ltnI59dk8Mq8Bd9p4xNGggkbtSGDDTkWC6sUzycxqpGvDZnpvuAZ/+2YYrut6BZQI0a4W5j5/PwuSHpGGcfgzx2HjDgqFwgnmiRRIJErNvCnIknlEezpY+ODtzN30MrFhntbUnsuYVc9zxo7N1FVXIQun4peXgURA+sqt0EpRMWkssTPm40cti+67iXOe+x01+fSIdTQ0moZR1XzlPbOo8Vx0VlA5Q7koljTUcnpDHadOrCGmj698Q9oCxtRW8ckzpzClAmzOw+ZAsoZ3zarjJ38+j+v+agH/eOFsKpzjK/SxImJpWbeG9l/+gujebTB7DPnJVRTEwRUfXwxWLCiDUpqkSeBVjkYvWUJ+1kyannuG7huvxu7adsK3xQoGREjvO0DTzTcRXbcWp7EWZo4npxQF0Rg0vhaCK+kdMiaKG68jsvBU5LRFdG7fQu/112K2bRm2KaxcVxtNd95A/sF7qJw4CjN/IoWKGK4IIl7QIyaKQ5Q8CXolgWmYhn/WIjp7O+m58ToKjz0MZoi7SUdJbUUZX7lgPpO1IZK3kAOymtMaa7jmM6dw/V+cyt+fP53xiUi/aazhQYr9hPTu3TRfew3xbVuRmWMoTK0jpy2uGGxxt5tYQZRDRhJkympQS0+lcOpU2tavo/vGa/B3b0WGwSYUQrStibn338rZLz1GfEoN7szR5MoiuAhWwFgLymIVpG2CpKrEmT0Hc/opOJ1NLLrvek5b/XywC2sYiLh5Jj56L+c+eieNOofMqSdTHcUFfGuDmQAErYSCOKRVBf6kRtRZi0lFDPMfvoPTn/gNVfle1HB2NIvEtOVfPrCA+eUWnQeVE0zKMqk2ztWfPY3rP3sq/3T+TGqix3e99JCJh6MV75g6jounjiFasDg5QWXA9gqj/RjzyyqYW1nLS+sO0lM4sY73SIjrsf87V6C3bUFmjSM1qpzHNzTzwEv7eOqlVp59uY31O9NkbIJnsmP5P9n388XUxfyD/zFyF7yfzMJpNC97gdTyF6BwoofSgSRsfexh0suex51QRWpqDS/t3M8DL+7hyRUHeeqlVpatacclwisynn/w3s8Xk+/ny5n388LiPyW/ZDEtW7eQ+t1vwR2GhidC5/KX6P39w8QqY6Rm17Ejm+XBl/Zy/8pmnni1i+dWtdLckaPd0/wos4QvZS7iq+mL+f2ED2DfeQ4HuzvYe8OvoKkNYwNnOFxo4P0LGnjftGp0LoebF7wseCmhDIf5teU0JsrZti/DgXRhWDeCHPpLIqy76y68NavwJlWRmljD02u289DyAzy2vI2nXmxl5epWLA6vyHi+VriIyzMf4KvZi1l19mcpLJlL6+uryTz8AGoYpgi18ZnyylPMf+73lNfHSE+pZWN7mgeX7+GJF1t4bEUzK15rpSPpsMmM579y7+CLyQ/wpdyHeXDaJfhnLUaad7PwvmupyxdO+KyxAtLbtzL10d9Rl02SnT+Bnbk8j728l8dfauWxFc0882obLc15UqaKf/E+yOWZD3NZ6iNcN/GzFN7/YZrwmbXsDyzeuILoCe5kHo4LTpvHp+dPQuc8bM5i04JKKirymgWV5UxLVLN8exe93vGN5oZMPJTS9PqWW1Zu5afP7+Dpg4KXj0BGcLKCySqeea2HW18/gHuiLeAI6GiMCV/9KhV/+7d01MVp6u6mozNFJu+TzFtyBUVP0scaITG6Dqe+HjV6ErlEFbY8wuQLz2XCf/47ZRdcBInoCV3/UKIBxYyLLqLii18hOW82aQPrdvaQyTmkPSHj+iS7M3gFC1XVMGECetRE8uVjyUYrGHfGbMZ97YuU//mfwnH2Mo4KpahZsoSGf/sXms6YQTYi7DrYQWevj58DN+OQzWlSWU28rJrK8ROJ10yE6npMrIpxM6cy+e8/z6QvfQ07oR6tNPoE1vFAHK3IpJLc/Nx6rnhmB49s6UVyUVQGnAyojMOrO5PcuW4f+WGORKD6klIs/NSnKLv0L0lOmUA677HrYJZUVsjmfbIFS3fax8WBqkqcCZNw6saTLasnG61n3PlnMuGfvkrZn/wpROMD/8yQY50IzUsuYNnf/Bvb50yjIIYDTW10pw2ZvEfWC9peKmOhspxIfT3R+rH4lXWkImVULZ7Nni9+mec/9TU64xGkbxvsCUKA+JTpNH3qUpZ98IP0lDns7+qlLemRznnkXEMq65LMWfyogzdlLGrUGEz1GFoidajG8dT89Z/y4Gf+jdfnnIOnh3eKXhcF+8qnt/KzZft4cmsX2ZzCczWFPJic8PTaZp7c2oxrj8+Ah0w8fGN4Zv0uvvXoJv79sZ38bneeXD6GcTVeXtPU7vCNJ16jgB7WRvcmtGLSO8/FLJqLBxRcD1cEXzsYpREVOGwBHEcTiUaIRCKICppurKKc0WeeRnRKY3BZ/Qmc0wyqSFE9fSaVZy/BjSqs61HwXIxSWDRSfHwioJSgHXCiEUQURkOkqpJRpy8hNn0uDJMRV02exKh3nI+JJTDGwy/kgykUazEiwQK/tVh8iFgkDn5MUcDH05a6uVMof89F4EQITpYOmYm+LZ4VHtrcwree3sl/Pr2bO9Z24BYcyIHNKbp7Fdc8t5WWXLCFdPhK1g8F1bNmET/tVApaMNZS8P1iXQVrSsEaWLCGoCIOOhoDpfEBXVlO3emnE2uYCurE/wJRivSkKexffBapsjI8Zcnks4hWGBUkUTo406oUOhLFicRQjoNSHpGYQ3TWLPYuOhPjJFDDUOuqsop9F3yI5poaCiJkXDCigv1TOlhXEu2DdolEozjxGDoSQSuNsj5lkybQsfgMuqvqir5j+LDAI+u28R/PrOMbj2/mrnUdpHMRyGp0Gg40C/esaWZ/1h340UEz5E9CDqUIOgtkIZdSXLtiC5tSecwIbl8DUDpY5BKChnfo4JSAMQYrgrWWaj/JXG8nC2U3p0bbqLLBfH3weE48SgWpb03LtxZfgohFSgRlBeO5IIK1UOUmmeceYIHdxxJnP9OlC2WDbW7DbL+HEARf5NBhLyN9vwEc8WjMNzHP7OZUtY/puhstgpK+g5wjVOg+RCEGbM4iWfByEW5/ZQ9PHug8dHh/pPpASgeGYRX4xg9sos9OjOCLxjOKajfNAncni2QPZ0SbmGWacIwX1G3fUGaYkGK7MsWIDX3Pt+81sYYKL8VMbz8LzV4W631Md3oJujzDWNB++MZixCDW4iiNtRaNxvgGYy3K95mX28V8s49T2ccCfYBKcYkphUaGdcr1zfQt5wexw1RWUGlDPufw5OYWnjrQgj8ERRty8UARzAX7HqZgIB9j+fYu7tt1sFjgkTGEPkSkGKbkjdeC/m2whRSxiO8yOXeAz+SX8Tn3Wb7grKReuoOTo8oMu9uQYp2KChbHgzGHJeJotAJrDQ2ZJj6dXMbfuM/y5fjLnMUOYhKscwzvjkGFoHCtxTUm8FHF84oRrYloB2t8Ym6Kd2de4dLCM3zBPs+F0d2gvKDBDW/1HoZgsyMi2LzFuDE27Utz5eptFEa8bEFdighGiqO5fogGURbj+zRmW/hM8nk+l3+KL+kXWcgegvFH6aCUCsb6xmN8rokPZ17gr/JP8Dm7jAv0DmI2sKGRwDEOWiy2uJgPQa9OFYUk5mb5eOtyvpB7gr81z/MxWUWNTQ74lpFFrMa4GuNGaOoRfrVmG91+v07zcTD04lHskvnG4hU0rZ0ed2/dz45svqjEx1/oYyUQDglG9TaIc0WxRFZplKNBKaw16EKWqkIXdX43Y0jh0HdYZWTKfyhUgwhK+vq+gTGLWGLGpc5PUud3MUZSxExuRHZ69CGAb6UofMXS9vWYEcRYKv0MdV4Po6SXcnJEjMFR8RHvYPShLIgLmYLDj1dvo9nzS+LkMASjur5Rcn9ijsbBonyPmJ+nxktS4/dQJz3EtSk+iJGPPgCB7TqOg+NEEAHte1S4PdT4PYxSGSrU8G5K6I8SiIgOqkm9ud0rpYJpQWuo87NUF3qpIUkVOfQw7GAbDMZa3ILg2Tg/X76ebbnskPnhoRePImIEm4cnmrt4qrWZkT3X+gYK8K3Bw+JGNdFYBZGIg47HUIkyJBrHE4OnIWUtPb5H1hbIWxdfvzHsHj4EweArS94YSERRFTFUWQxVHkFicQoqQsoW6DZZukyWpJ/FEx8fW4xpNLwYsRgEXykkWkE0UYkuq0SXlUEiio1EyVlIG6HH9+jx8uR8F19ZvJKIAisIwfSaMXEe29rCSx2deBQ7HiPajQgmTn2EAhYXoSwxCh2Po8oTUJZAJ8rIAGkpkBaXbpunx7rkrcEXixkw8h4eFK4WshYkWo4TLYNYGcTLIBbDOBFcFHkLOWvIei6uNRgU5gQvkh8J13rkrME4CqIOujwOiRiqPIGJxciLS04l6VApumyarMniiwnqFztiAv1GJ1nACtoont/WzO0H9xc3Kw3Nw3e+/e1vf3vLli08+uijJJNDM+TSKE5tbGRurJKfvbaGLdnMCVkp+Pu//3tqa2sHvnx4ivW1uXMvL3ZtYnNhHwdGV5OcOZnC7AmYORPITx9DftZYWmo1W2MeOyosO8t89sQNe2Iee6IebWURyhKjqNBlFPslb4u1lmeeeYaxY8eyePHigdmHp1jetmw3z7esY0NhH3ujPtk5s/FmTcSbOY7CzPEU5kymdXycnbEUexKGXXFhT8KyK2HYGfNojkdxKuqodSqOurwiwooVK4jH45xxxhloffR9jJ5sLy+1b+Dl3s3sq4K2CZMozG3EnTGWwqw6crPG0NlQxd5yn11lPrvjlr1x2BdR7I4Ju6MubkUFYyO1aPRRr9ds376du++++y098WNFoZg/ppZFFdX8fMNG1qaSQx6ouLq6mg996EPMnTt3YNYREeBAbxsvtK9jo3uQ/ZWazNzpePMm4s4eS27mWPJzxtM+rpztkTQ7ywhsIm7ZFTPsjnkcLFdEy2qp0eXot6lgH3i6KU+aaDD9qRSxiKI8qo9qvV0Q8m4PPbktZN0dtJYLLdMaMHMm480aS276aNyZ9fRMTLCnLMuOcsO2hMvOuMfuqMfumMd2B3rKKojomqPu7yqgZdN6/D1bmf7Bj+ETOTSi/eOL2IIxLr2ZrWS8dfTEcrRNrCc3dwre7PHkZ40lN2ssySk17C7Ls6vcsium2B+z7I367I14bI0b9sYT6EgVmthRjqQFx3NZfv0vwM0NzDwmFLBoVB2z6+r4zuq17M4Xhsx+G+ctRImI3HfffXz1q1/lwIEDA99zTCileMes2Uy3hnt37CA/xI2uj927dzN16tSBLx8RTyy3bnyEbbqNQsSACtypkuK8K0GNS3GaCIIpl0MhlpUlEXN43+izOKdyHjGcozILz/P45je/yfz587n00ksHZh8eGzS85U3reaR3FbmYW7zYRSHio5RGEQ16kMEx8zfVcrBGYokQ44wx8/lEzZkkisuPb4e1liuuuIKqqiouv/xyIpGj2+YrwMaOndzfvJL2RA6jLRGrkeL6LEdcQlSHnIICxsdr+dyk9zFaVQWCdxSV/Mgjj/Cxj30M3x+aOX2F4tTxozmlppYHduym5wScyJ40aRK/+tWv+NjHPjYw64hYhMd3ruTp/AYKMSGinDetackROpaKN6aqYjrCuWMW8YHqxcT54882D/zbq900U45VIEpTEdeMLnMoRhb5o4hYujNb6Mi/io3mkX4HhPsiOigVNDQrgTj1jZWVCApwlENlYjwT4xeibFm/bz8yClhz753knrufC6+8kTyJQ07cHlH1BLBk89009T4N5b3BCqMqHrwslksIpr37UDoCxelwJWC1pjJaS31iCWVMfVvBC6bPLbFsmu+fPRNSnYd/iINEAUvH19MQL+eJAwdImiDadt8TOJ6/cN7HP31ixAMgHomipDjVcoIYrHgIQmc+iVXBXHywH2EgbxhIH296lxLKdIIKJ3HUPfljEo8iSTdLTtw+9Sq+Gvz3G5J3ZDMQIOpEqBvEyONYxQMg6xdIm9xxLdIroDZaSVQd/e19Qy0eKIhqjaPUW234yNU9KI5FPAB6C2nyeP0M82hrKUABMSdGtfP2o+fjFQ8AY/P4kkP1rX0dBoUqdoQG5vS9pInpyrd1xH2oYxIPAMFagy+Zw1zK8ca/3+wfgu8d+FpEJ9C8/VmaEyUeALHiFn23eFixf/Uez1847+OfPsoncQwUfO+tjW6EUSjGJGqoj9cyLlZLfazmMKmW+liQ35f6XquP1VIfraPqKBrdUFEdK2dcvJZxsbp+ZQr+uz5Ww7hYzZvKOjCNj9Uy2qkctvKWR+KH6vdYU32sltgghONE4dkT2/k5VmrilYyL1xXtoL9dHF2qj9VS65QPm004OkHcqSOm64gfIcV0LXGnlrh+a4rpWmK6+qiF4/hQaB0h5tQU/27/FPyGgb+jL//NZa45KuE40bjWHBKOoWY4nkZISEhIyP8wQvEICRkMxzPWDwn5H0QoHiEhh0OOkEJCTmKG0pRD8QgJCQkJGTSheISEhISEDJpQPEJCQkJCBk0oHiEhISEhgyYUj5CQkJCQQXPCTpgPB4M9YT5SHM8J85HgeE6YjxRDfsJ8GDjWE+bDSf8T5lKMJluRUFSWx4ohGksTrRXrH3+U7MtP867/+C6eShzKs8N0OPKoCcJ8o9Jprv+rjxPNdr4RLqlEOeVd7w3FYzgIxePEE4rHieEt4nGyIBIEbnTA9F2AVYoIIDoIT6dUcIPiIAKRjiQnrXg4jsOmTZtobGwcmFVy+L7Pt7/9bebOnctnP/vZgdklh4jw4x//mMrKSr74xS/iOE7pNr4ijz/+OJdccslJJR4TJ07k5z//OR/5yEcGZpUMeRTffj1z8onHSYQKwhUX/xXEuRqakxgnljeJx8GDBwfmlzR/8zd/Q1VV1ZteK0UnZ61l5cqVjBo1innz5g3MLjlEhNdee41YLMYpp5xSGtfCvg179uzhvvvue+OCr+G/sOKo6avLyspK3v3udzNjxoyBbykZfKIUPv6PpMrqMKq06/Vk5aQUD9VPPK6//nouueQSotHowLeVHIVCgcsvv/yk6mVWVVXx53/+55x//vkDs0oOEeGRRx4hHo/z7ne/G8c5ulDuI8nrr7/O73//e7797W+fFA7OWsuPf/xj1q9fPzCrpFA6wWce24EZMwFjBSmJy7r+ZxFcCdFPPA5dsVDaHBKPhx9+mJ/97GeUlR1dvPyRJJ1OU19fT6FQGJhVsowePZof/vCHJ82axw9/+EMqKipOmjWPRx99lO9+97usWLFiYFbJISL4vs/HPvYxHn/88YHZJYZi3KnnIJEYouDr//zPvP997x/UBWEjgQAPPfQg69at49///ZsDs0sLFRS44Bb4x3/4B/7zW9+ifuzYfjdvlCgiIn/4wx/ki1/8omSzWTkZSCaTEo/H+4dpKfk0evRoufnmmwf+lJLEGCPf+9735Je//KV4njcwuyR5+OGH5eyzzx74cklirRXXdeX973//W+yk1NP1118vvu8P/EklyVVXXSWf/vSnB75csqTTaVm6dKns27dvYFZJcqj7oLUu+XntkJD/SQzVlbknlL7peAVKq5IfcYQMH6ElhISEhIQMmlA8QkJCQkIGTSgeISEhISGDJhSPkJCQkJBBE4pHSEhISMigCcUjJCQkJGTQhOIREhISEjJoQvEICQkJCRk0QyIe/Y+gIm/8S8RivDxiTp4YVNGIw9jqeL9YM6WN8X3EzRbr/STAWqSQAzkJDsgRhBKRQg7syRPTSQHj6yqI6FK24X5+wvpYN9vnQUoesRbr5pGTyCZsIQtDHJfsuMVDEARLpqcVt/sAJtuBNS4ilnzTTvLP34Vsexm8/MCPlhwKxdL5k/nnjy8gdvxVM4QIhVyWbHcrXqoN62YQsfj5DKlXH8FbdgfSsQ/MyDjkt8SwAEQs6c5m/GQrtpAGLFYM2a0v4z93O3JgI9jS6VRYEbKZXgq9zZhsZyBuYvGad5N77jfYTS+UVHmPhAJmTRrN9z53NuMrdUl1gYzvkenYj0m2gJsJ6th4pNYtx33+bqRtV9HB2QFpZBBryPV24vW2IfleEIMYQ2H3ZgrP3o7sXYOIO/BjI4OAWCGX6qXQ247JdgflFUuhaSfuc3dh1j4N/tDFAzxuD6mwaHxeX/44B5bdRXbb80g+SaZ5H+kHrkSeuQP34euwO17CGh95Y4xScoypq+Kv3zubD50xAYehVenjpfXAbnY+fzedr/wGr2MDfi5Fevn9qCduRJ69B/P8bUjv3pKpW2Vc1j54Ay0r7iJ/YB3iFeh+7RnyD16N/8JduI/8GmnaWjIjEON77F73EnueuZXM6w+BLeC2HyDzyA3Y5+/Cf/hazJrHSl5AymMO//Sni/no0nqq3rg8ryRI9XSx9qGb6Vx5L/mmzYhx6Xj5KfyHroVnf4N54kaka//Aj40YXiHH1hUPcWDZbeS2P4v4Lpk9W3Ef/jXO87/BPPhr2LNuyHv0gyeY5bG+z77Vz7L/+VvoXnsf2AKFpl2BDT97F95DV+O98tCQCchxi0efs+pub6OneRfZrr1k9m0hdd13iG7ZQMGppudgC9k7r4I9r6GkNBufoxwuWDCWi06tIaq9kuqxARSyWdJte0k37aDQ00zPC/fjPXY7Ku/TYmtIv/Ic/lN3QrJ14EdHBrH0HNxB9uA23N4WOtc8h/nNr4ntb6dX1ZHctpXMPT+G3qaSmHITK+SSXaSad5Jr24Of7qLzrh/BlpWkdDm97W2kfncl5rVHSlZAFHDBkhlceFoV2neHonEPKZ5boLtpL5mWXRR62mha9jDu/b8imumgM1JGcu1K3Pt/CfnegR8dEcQaUh1N9DbvJN+zn1TLXrpu/QGyezMdJMjs303mlh9i96wdcQERJWANme5Okk27yR7cTqH1IF0P3Ize8hKpeBXp3l7cJ2/Fe+1R8I9/xDRk9iVKKOQ9urftJHnNT4ns3IMdM5ncjFn0TpxEb1sHvVf8J2bjq+Adf8GHmomjK/n0O+cwIeahbaDMgYCMvIxYFD4OhUKUZHeazscfpXD3HTgk6J0zD29mAz3OKJJPPEPu/pvxu7uwdqR8sqAQBI2HQ282S8uLz5K//Rp0R5LMnBmkZ86ga9R4erfupudH/4K07CiJNQVrIZvzSB5oYt/3vkHktdfxa8fhz5pO++QZ9HZ7dN11Pd7LTyPe0PTehpL62nIuPa+RSWUWox2MKq17WBRgxaM3maLlqUdQ99xGLAmFGYvIT5lLe9kYel9cR+6a/4d0dYJVQ+miBo0oTVYU+XSe7s276Pr2/0dFUzNm0nTcOQs4MHo8yZZWeq/7EWbbKnzfxQ6cvx0WFBoHcRS+NuSyKXraemm9+SoiL7+IqZmMO3MmTeMb6WxLkrnnFrzXnkGOcwQyBE9GgSis65Fpaaewcj3S1o2dPo3sxHpsVFM2aRw9M6bR6bq0/OpH5FetKC6ayjBW8JFxlObjZ07lfTPKiYpC2ThCcEHLyEsHKBGwPtlMN9lt+5Dlm3AqqslObcA4inhFJf6s6bTVjqb5kUfI3H0V0tmEGuHK9fIuuZ2tsHw9JHO4p8wgV1VONBIh2tBAT/1EOnYfpPMX38fbsQlGdGOF4HkuybYuUi9tIbZzN37DRAoTJyKRCJX1Y8nNmUtnT4HO22/EXfEU4pbKOp4iFnH40JJGzpmeIGpBG4tTGjOC/RD8bIrMln2w6nWs8SksmkY6odGVcZwZM2gfPZqOlS/Te/UVeAd2Yq0/clYsgipYcq1J8s+/RtR18RomkamvRUUjVDZOo2fKTLoOtNJ103WYjevQI3hBnRLQvpBtS2Ff2oRd9yr+pAlkJ43FVw41EyeTnTWP1mSOzht/RWHlc8fVkT9u8bCiEdEkUgVG700yKucQnT6J3ORafCeY0lY6RmXjFAoL5tOVStF523UUXl2BuIWRM4wiCsWcyWO47H3TSDj5wFEbfUg8hqCKhgY3T+JAJ/X7UpSNHgUzx+GXRdES9PWjVQmi86eRHV9P5+OPkrz9WkzTHoztW2caZoxPrK2XMQfSVMbLUfOnkKtOYItX3DjxKOXzZlKYNoWuXXvpvuUavO0bR2wEImJx0ilG7e+iLg9qTgP56fXktcUXwNFUTBwDC2bQneym4+4bKax4csTK+yaUZkZ9DZ85bzLjygRtFfiqJDpm/dGiiDSnGNuSpaq6FuY34iViIOBYiJeVkZg/nd6GSXSufo3kbddh9u4KhoQjgIggqSzl+7qpthGYPR134hiMFRBBRx2qZkwjN3s6HXt2033r9bibXx+RdTwpioeTzFO9r4varEt85mTslHp8VbxuI6Ipm1CPnTeTjlyOtut+SfaZR8A9thHIcXtGhaJ7+3bqX9/IaM/BmTuZQmMdvlN0WcW7ABwnQu3UBqJLFtLV3UnXrdfjrnk56G2OmJErKmMR/u8lS5hRZtCeD65g0oYIUhw1BzIy3Ehgn1gR3FQPsdWvMrUlReWEevxFkyhURbAEc1NWBC2asqoaKhYvoHvKZLqeW0byN3cgLc1ghm+EJwLi+xx8+klmdKSoKC+DhQ3YUZXY4h3YFkGUxSmLUrF4LnbhTHq2bCV54zWYPcO3iC6AQbBiybe1UfHqKiZ4msjcybjTx2Kd4MlL0Xk5jkPl5HE4p80lmUrSedO1eE8+jhgX8EdoZ5DCQfHJd8xh6cQKHN9AwYW8CXrORABnRGyYYh1bwLouXc89w6xOQ0V1Df7cSXjV5aAclNKB50Moq6ig+ozZ5GY10r76FXruvAHTth8Rb1ivFxYrZHZuY8L6zUySCM78qbiTavG1ICqYmlUWlKOonj0VWTiN3r3b6bz6F/gbigIyjFUu1iO1dw9lG3YwLqtIzJ2JmTIBP+pgNYgKHobWDuUN43HOWEinn6PzzuvIPH4/UsgPepr7uMWjc8tm2n/wX9R2tRGbM57ClFr8aASNAxps8UpeJR7xGIyaPo74mfPp7umm40dX4L/0yoj1LBTCh5fO4j3THHTBx+QEm3Wpr4Zl3ziXV/7lXJ74u3M5f+qo4bSDYPuzKgpDOkvbvb+BJx4jXp3AXdRAviKKpxWO1hgdQVmNUoJyLInaKOMuWEjn1LF0PfUkuVtvQrq6hs+QreXAk4+Sue0GKkSInDYNf3QZviNoLWilQRw0DkossZhD1fzpmEXTaNu8gc7v/xc07Q0MZ5DGPGhE0FbINh9kz3f+k+r9+3FmTMROGgU6cLdBtb1ReU7UoXr6JDhvMV2pDO3X/ZT8ww8gvtfvi4eXeZPqueysiSTyOWzWIDmh0k1zz5fP4eV/O4MX//U8LphWe/yN/RhQYrH5LPvuvh19z91URB28Uyfh18ZRGrRWxY6SAQ1GayLlFVSdNhM7q4Hel1fR/dMfQLIHJTIsAmKtpXXDag5c8V0q053I7HoKE2sDJ6yD9gmBMzbGoqIRyhdMI3faVJJNu2j94Xdw16waPr8mgnugiearfkX5ltdx5k4mM7UeG40dEu8+HEcRjWpqp06g6oIldKdztN9xC5knHwZ3cFNYx25PAp179rL/5z9FtTQhCybRWh9ja1Mva3Z1sWFPN5v3ZOjIWJJRxd1mLt/PLOW/M2fyzOQLSJ67lC4sTT/6L/zNG4avovsxtb6Gy5ZOoNzNI1kXnRNsGhJuhPl1NSyqraSrNcP+jvTAj55QggkzAS3se/ZpOn9zD9HqMnILxrI/mWPd1jSv78izfleB3c0FRAm7zRiuzJzJD9Pnc2XmHSTPv4Tu2VM58PyTpO+/a9CGcUyI0PrSSpK33ETEzeCfPpVmDWv2pFi9M8PG3Wm270tS8AxpI9ybnMtPkmfwy9w5vDr3w+RPW0iyvZWmb/0nJLuxwRhl4F8ZMhQKt6eXTf/0b1Q078WfMore8VVsOpjh9e1pNm3PsG1PgXQ6gqGMp3NT+Wn2TH6YPpOHxl9M7wcvpNXzaL/nNxReemlYHNtAKqIOP/zEaYwzeSQr6JzGpIC8Znp1BYvqasl1FNjUlMEOWw+iH9bS+tQTZO65F0f75JdO5oDxWLUzyavb06ze2suu/Vl8N0FToYpbsgv5UfocfumezyuLPkz3jCl0v76Fju/8B8ZNIyd4dCdA545dHPjmtxiV6cKZPYmuuhib9nawdlsH63d0sm1fL6m0i0ec33iLuTJ9FtemlvL6rD+h49yz6epspe26X2G2bwmG4icaz7Duv3+M3rYOf+4Eeusr2LW/hbXbWtiwq5OtuzvoTrlYpViVruHn6bP4cXIpd47+BJGLLyJpPbpuu5nCxtXBKDsYBL4txy4eCFoJ5fMWkTr1VFLjq9jfmeeVDd1s3Zln684s2/f0sH9/F+LH2DZqPisrT+OFxGk85ZxOas5SYhe/A3X2UohGYZivwFXAtLG17Gnp5YmNXbyyO42bUUha0GmFTikOHIS7Xm1mb2YE1mbEQYlClZUTOesddM2bSo+G5ev2sHl3J9t3d7B1byevb2ki6zm0VIxjTf3pvFZxGs+oRWyqmkfdeWfgXPQeGNcwTPWriMbLqTrlTFKnTiFT5rNpbwuvbWlj8+4etu7KsW13lgMtPl6kmh1jF7Kq6lRWJBawNTaZurMWI+95B878haCixe88gTWvwIqlatYc3NNPpXtSBTta2lm1rZm1uzt4fV836/d0sas5TS8RXpl8Bq/UnM7K8sU8ZpcQnbKI8g+/C3XGUnRFDUqGo47fzMRxY8imkzy5uY1X9+XpTWtsGlQaImlNW5Pl6mf30Om6J7Yuj4CgSFSOJrZ4CckzppHRwpbtLazf1sHOPV3s2N/Dlj29HOx2aauqZ1PdAl6pWsCKyoVsqZhJ3bvOwLnwnehp89A6csLlTwGeCDVLltC1cB49Y2NsPtDBa9u72Lgnw6a9WTbuTNLc6ZJ2HJZNPI0VNUt5quxMnkicQWLxWUQ/8m7UwoUQiQz8+hODNdRMHEdk6RKS46vY39vL0+sP8vreLJt359iyK8/OPVmgnJbKCayunM+LFafypN9IdFoDVR88H33WEpyqmuL04ZsG20fk2MVDKeqmTGXGl/+W1KLp5ETI5l2yxsdosI7GaoUV0CIkyhVl5THiMQetLBHHZ/JZC2j4x38kMmfeMDm3NxBg5baD/OPv1/OFezdxxdO7SRVi2LzGZC25tMMjr7fw/L62YPvdMKNU8D/TLnwPdX/5abKjqnBdn66ch+tE8J0IVmsswZqHigrRBMTjURxH44uhbHwtjX/xKao++OFAoE80CkYtWcykr32F9NhgYTGbToMVtAUlOnCwVog4QqRMiMQjRGJREMEpi9L4J+9j3Fe/BjVVaKVRx2GiR0PZqNHM/Ma/krvgvXgo0rk8nihQDhHRxMShOINIJBHBiSuisQhaK5QqMO6UuUz6u8uILT4NRuB+7z0tHVx276tc+vvX+X8rDrKnx8EWFDYL+bTmofVtLD/QxUjtAVKOQ91551L7t39Lb00FVnxS6RygimuKCkEHfiKiiMYjxBNxok4ERIjW1NDwF5cw6ktfhmg5cOK3H0+cM4sZ//qvdM+bS1580lkX1xciSuOgcZQDNpgfSNRESSQ00Vhwml8caHzXmUy8/O9wps8eHr+WiDPzn/4R/d53k9IemUwvVkWwIohSaMfBNwrwKSuLESsvIxGLodAoralbNI+Jf3s5kRlzUMo5KuHguMSjSCQSAQRjDdYaNAQ9ZlG4hXxx138wjwigtSamhYgCFY1CcV5uJMh5Pp3ZAu2ZAl0pDz+nkJyCrOZAu8c1q7aQ9E/sMPlt0RqiEXwr+AimOJUjIni+hxYpri8bcAye40HEJe54oBSOdlDD6NSU1qiIgy0KtDHm0PP1fA/P+EGeVWgTbPOWiEDUR4mgNMPXYyMQvGg8CkURNtYgEmySECjWOQgRomKJaQcHiGgvWPR3Imh94h3akfB8n450no50gZ6sj8kCWYXNK7YdzHL3uj20F9yRGHQcQkUcVERjleCLxYhFtEKUwohgrEWsRVuDowPh1k6ESFSB46MiAo4KnNpROrbjRcfjweyNBL5LBKzSWFH4JthkAQbtB5slYkACDy0Gx4miHB0sUg8TOhJBinbo+f6hgwZiwfctUnT1SlRwbswJhIOiT9YRBzXIWGhD4lUEi4g5tCtFi+AUd8yIEmKS4yvtD3Nl+lp+bW7iu9H7mc1+lPgoO1L7QN5MsLDnQU5TyFfwX0+sYWemMDLzxAMQBUYLRgXCoaS426O4ImCsYVH3Zv679SauL9zMrWW/4ePyMglTgMA/H5rGHA4fIoAvgmctogInIQqcWAQnEsFaQ8JP8YXe+7iqcB3Xy+1cFltN1HpoOyQmOWgCVxDM9yqCkTOoYJHWepTl2/nCgXv4YfZmrpI7+FnsLhpse3HjcWmgAOtbyCnyqQgPbWjilc5ezAiXsbiRKugJF/9bFetZJIiOp6zHrNR2/qXnTq7MXsv15ma+4KwgbgsoFcj3sKLAiMVg6ev+ODY4c2WtxSpLpZ/kO/vu5prMrVxtb+M/og8y0bYOe1Hpq8e+svVbP1bF+hcsCstZ2df5eebXXO9exa3V91Pjd7/pewbDoFuqBH1c+sKX9fWCg6Qw4uArha8VsWgCZQTXc4n4acolRSUuiYgTNDrhUL9upBELbh7cnMPjGw/yQGsbheDXDXzr8NDf24sEBRRBI0RE0GKJRRwcJShrcIxPzBSI+mkqrUfE9950SLCv0zY8biToUbrGviFcimAIr1XQ0/RcyvwMEZsiZntxJI9VPnbkOvGHaksJaIkQTJopjDW4xgPfJeH1UCEpagSiVo/YFtjDYYylUDD4ec3Gdo+rN2+nMBwLtm9HsYr62lJRlgGIOBEi2sFasGKImgyVNkOMHDHxiVgNtuxYXNWx0a/dWZGigAQdN6stWglRR+NbB9cTymwPUdtNpc4QxQzPNNUREJE3Frz7XtMKFdGID56XxzFZ4rZAufWJmzTmUDc0+Pyh338UDPqJKAGnmPrWVkCCnTEKosohrh2i2iGqomjRWOOTMwXSbo60m8X1CmBtcHAlmNx/8x8ZASwabIzdPXmu3LKJ3NHW4DAQPF7ACI7joCMax4mgHIVyIvgCrvjkrUfaz5PzC5gRi7UT7IN/46xGFK0iKB3DcYIpNFEa3wp5Y8m4LlnfxViDJjivMpz0PeWgV2xRWqEcB+0IylFoR6NU4NgKtkDBFsiZHHmbxxUXq0vHThBBFaCnEOeHL62h3fSdzh7ZMgZ9HwtW4YpgnAhKR1A6inZiKCeCFKdbMl6BlJfDNR6+yBudjuJPGDZPIaCsBUvQiXAiOE4Ex4kSiQQbfIwIed8n77nk3AKe7wVbzKFY0uGt90OdeK1xHI3jODiOQzQarINaY/GsoWA8sl4B15pi9/gNxXjj32/PMbdUC/jKsru3lS3xAq+P0uycWk3+vOkkz5lC79nT6DpnOnsXT+XVURW8lLAsj7m8EMmwTPWwXHXxXOEgG7LNBLPgI4lCRJF14Z7te3g9lT7qCjzRZP0863MHWVdtea0uhnv+KaTPmUXqnJkkz55N77nzWTOxlhUVhhfjeVZEc7wQyfKCk+YF6eaV9EG6vOyw/RrX99jce4BNtZp1oxMcnD+V/LlzSC+dQeqcKXSf3cCOuWN4sUqzssywMu7xUiTPSyrHSpXj+eRu9nrd2GEosRQPWO7tamej6WZ1lWb3jIlB/Z7ZSM85U+l6x0wOLp7CKzUOryRcXornWeFkeUGlWKHTrPDaeT29h7TkR2Srbn9EwDhx7t68nac7W0e8VfWR9bJsLuzn9RrLqpo4rUvmkTlnGqlzp9JzVgPdZ09l24w6Xq52WJnwWR7JsTyaZoVOsly6WJneQ6tJvdEzPsEIwubOPWwqd1lbF6dl/hT8c+aTOms6ybOn0XXONHbNm8BL1ZoVMZ8VsSzLo0lWOD28rHpZlm1hS7YFb5gicwvQku1hrd/F2roIO6ZNwjt7LumlM+hdOpXk0mm0LJ7Cito4y8tclseyLI+meV5184LuZYXXwqZ8C3nxBlW/SkTkvvvu47HHHuNnP/sZicTbxXEOlMmKsLf7IDfteZJN/n5cJ4+vQOkoEAHlFCc2FSIWJDhJ3jfQ1wocramOjeKyKR/irMQ0jnYjXiqVYuzYsRQKx3as/nCcNqqOzy+ay5WvrmNrNjfk4jF69Gh+/OMfc+mllw7MOjw2WC96aOdybut4jlQsExyuc6LBUphSKHTgILQpnnIO3IVCBfULRJ0Kzhl/OpeNuYhyjm4h2lrLFVdcQVVVFZdffnlxU8TbYxFebH6d2w88wUHpxHUEUVGUE5xwPjTQBJQxqKJEBL8kCgq04zClYgL/2ngJ43VNYC1HYRaPPPII//Vf/8XKlSsHZh0RsUJXvodvrbudplgXns1jHA06AiooL0qhlUKMi5K+aYkgKaUQcaitGstfjXs37ymfi6Pevj8mIvi+z4c+9CGefPLJgdnHhAIWT57In02Zys1r1rI1lx2aIwb96l4pxQ3X38Bf/dVf4ThHN79orOWJA69yS9PTJKMpAKyOBfarOFSPiiAqbN85jqDqg2nDWNxhat00/nPcn1El8aOyB4Crr76aZcuWcddddw3MOix9/e+dbbv58Y77OZBowYpCq1hx519QMKPBRDSO8XB8wRRFQqlgNkXrGFMrp/I3k97LotgkjvZWlUwmw4UXXsi9995LQ0PDwOwjkhOPb628kW2JdlyVDWxX9zv+IKCURsQD8Ytbyt+wYa0dRpWN4kuT3s8ZiRko5RxViY9BPN6gYHx63BQuwU4ZLcW5s2LZBtpu/3+/8d+K6ng5tbrsqOePT4R4BBVZnPc7AQxaPIqW3OtmSEshWDvos+5+BI2sr4fzRqaIwloFjiKuHcbGa47aiI9VPABSfo5eP4soQR+mvG9buwLlOkpFopwowbrD0XAs4gHgez4dXi8+LqKiwRHio6TPwVmEumgZFU4imIp9G06EePRHHU09Hy39fs6xiIcVIe3mSJlcP/fcj7evLrDgWMWYyjp0v0jBfS7wSAxWPGyxvJ6bp4vioUpRbzqiLdggZIa80SZEvXkjtBKIKIeaWBXlTuyPlrE/xyoenvFpLfRilf/GFPdh6Z8z4F0ijIpVkXACP6wO85a3ICLyhz/8QS677DLJ5XIyJNg/nvr+0xT/f7Akk0mJx+N9lnhSpNGjR8vNN9888KeUJMYY+d73vie//OUvxfO8gdklycMPPyxnn332wJffnkN2eazWWKTve44Ca624rivvfe9732InJZf61lMVorSSG2+8UXzfH/iTjogVEdvX2Pun/k7g7dJR1utArrrqKvn0pz898OXjxto3J9Mv9X99sKTTaVm6dKns27dvYNZR0M/BHi4d5qW3pEFy9N2swfDHFKvfdu1g10VIyAjSN0JWoTWeUIqN/tCMyYDX3zaVAkVJHVg0reyhFExdBaloWcPEwFINSANfGsjhXnsbTox48NayH7HQISEjzFHMNL09oX0fFtVXv8XU/7+POpUKf7RcfS/qfuktbyod/uhvOTpOnHiEhISE/K/hOLzwSUooHiEhISHHxf8u0egjFI+QkJCQY+HQYCMUj5CQkJCQkKMiFI+QkJCQkEETikdISEhIyKAJxSMkJCQkZNCE4hESEhISMmhOSvEIAtIN5+nN46cv5tEbd5+UburPwLxSTSdTeU9W+seeG/ibSi3Rr82dLJx05ZViYMRrr72WD37wg0SH467r46RQKPAP//APGDM8IY+HgsrKSj75yU9y9tlnD8wqSZ544gkSiQTnnXceehivsT1WNm/ezMMPP8w//dM/DcwqSay1XHXVVWzYsGFgVmnRz58ppbj0ry5l6dKlJ4WjW7ZsGdu2bePzn//8wKySxHVdfvGLX/DFL36R2tragdklxyHx+P73v09DQ8NRR8scSXzf5/777+d973sfFRUVA7NLDmsta9asYd++fSdFo6NYZgjuNz4ZkOIVnCeD/fZhTHBfeknT31yleN/1SWIT1lomTpzIeeedNzCrJPE8j2XLlnH22WdTXl4+MLv0kGJU3csvv3zoouqeYFKplMRiMdm1a9fArJKkUCjI5z//+bdGLA1TmEo99Yuq+5a8kyBdcsklA5tjyZLJZI4jqu7wc3J0IU5yTsY1mpCQkOHlZPMRoXiEhISEhAyaUDxCQkJCQgZNKB4hISFHpv8KQkhIP0LxCAkJCQkZNKF4hISEhIQMmlA8QkJCQkIGTSgeISEhISGDJhSPkJCQkJBBM/TiUdyV8aYNGuFOjZCQkJD/UQyteEgxxpAIluD/xQqIDKmAnGwnMYeVvnuVSzyEli79IoYMGwqtFFqFVnEyMSTiIQT6YJVgdPBvLUAuTXrd09j2XcEbSgkREAtiiv8Pxi2Qf/057J5XsDaHwQZ5JUwiqvmPz57DogmVQ/MwTygR4tEYHztvNhctnHASlDdwZe86pZFLz5tBZGBmKaIUNdUx/utvzmZ81ckRJLIiHuUz75rLudNrSssmhKJvsFixQadVoNDVQnb1I9ieA1hkKPvFJwQ/nyH/0gPQtCHwd0PE8T8rsSgxrHrqfvY/cR3e5ofR+Q6U8el8/FZi9/0EHvwJdO0Z+MkRQ6yhafOrbH/wVyRX/QHyvVjfI736abyHrsTc9X3UjpfRxpZ0T0gBH73gNC67uJGGUfGSLiuAUoap48v5j08vZs7kCk6GAMOj66r47Aen84EzqnEo+SpGI/zth87kC++fSU2ZU9rFVYDSnDG1nm9+bD4zxiVKao7bK2TY/PQ9ND9zM/62x1F+FjfdTeqJW+CBqzD3/RCd70aVSMdYjM+ulx5iz+NXkVx7P4iPl8vQ8/TduE/eSO6eK6Bp/ZAJyPGLh7KgDK0Ht9G9+3UyTTvxu1ppvu0Kosvuw8169GzcSv7enyI9BzBikBHuzYsImZ4OevZuIbV9DdbN0PPKM+TuuwHbmyLT3k721h8jO19CrFtSBt2HAhrq6/jnP5lKXOXQfatMfYtNJVNkdWiSKqI1n//IEuaMNTjWltxgdCARrXj/4gl8YFEN5UrQqBKq18Mzb1o9X7ionoTNofEHZo88/adURVEe0fzjX55OXU2hX2ei/5tGDmuE9pYWevasJ9OyCz/VS/tvfkHZK8/iZvKk1q3Du/U7SG8TWB/s0E7PDxYjho62Nnp2bqZ396v46Q56n7wV9dxvMeks/v4D5O++GrN3K+J7x13W4xePfuQKeZLNB+i4+xaiLyxDKuronbmQrlHj6F6/kfwNP0Dt34oaYfGg6FtzXp7uZA9dLz5L+o5fkbCQmzKH1glz6e4t0HvL1XjrV0AhByIlNUCtiEf56wvnMHuMoBn5+nw7FPDORY1curQOR0xJOIc/ioLJY6v41PlTGB03YIe0qQwpwQ1/iuqyOJ97z3TqqzyM1qhgrFRaSN9zVzha8afvnsuFM2NolSu2yr7OxsgjgC+GVC5DsrmVAzf9lOgrK3DrxpGavpCeyno6V71C5u5fYdr2DVmP/ljRooha8AseXV1Juh57gMLjj6OjFWSnzuFg7SS69+wm/9ursbvWB4J3HAzNUxLAs+Tae0gtX4v36ivYsWMoNE7GlseJNE4mOW4CHWs2kL7pKsz2TSO+lmCNJdOTIr9pD5lbr6cCS65xPG51OeUTJpJpnEl7Wwfdt91MfvVKxCsEPYsSwFGwdHY9f3JaHRXaC6pS+l8SWkoICkvDuFF84+PzqYkXsFYQUxp1eSQ08Kl3zOCCGQkiVqF8+g3n+nrGpVHjCo2jNectHM/Fp4ylCo2y0s9RlxKqWC7FvIaxfOWiRqKqgKg+0SihuhXwXY90cwfJZS8RfeVFGDuW3MRxSE0FzJhK95jxdL60kuQdN+Ef3D+ym3lEEGPo7enBW7uV/B9+Q6QsSq5xMn5VBdHGyfSMm0T7ls303nkD/u6tx7UWfdziYURjRWFyGRJ7u6lty5GYPI7c9HrcqAYFkUScxIzp9MyezsH16+m+7VrMjo2B8g3xTqyjxeRd4vu7GbW/l1hlFdl5jeQry4KiOJqyxvH4s2bQ2dJE103X4q1bHTycESjrQEZXV/LJc6cze2wcDIhfwuKhIBpR/PW7ZnLG5DhRX1B+6YvHjIaxfOk9UyjHA2Owvu1npiXk4ACLYVxNgk+/YwpTqxXaOohXqlNsQaexMh7hcxdMY/YoiBiNKmiU6btzyo7ovOuhEiiDSfZQsa+byvY8kZnTyU4ZixsN/ECkrIL4/AWkxo2lc+UL9N52A9LRFviIvjSMCODl8kR3tTP6QJJIXRX56RMpxKOIUjiJGIkpDaQnN9CxeQOdV/4Is3vbMXfkj1s8lFKI51G7Yy+TenxiDePJzRqHFwvMoI9IIkHd3DnYU+bRun4d3Vf9HNO875AxDQfBbgmL9Q3x1iSTulxi1dX4Z80hXxEvdtQEX1tsxKFiWiMsnk9XdzdNP/4vzKZVKDuyQ1Ol4IzpdXz01NHEJA/WYn0ZzmocNIunT+Rjp06g3BgoCJIvbfGIAD/8zFImJDw0FuUVMJ7CquIDGG6v8DYoBefPn8hHF44mLnmUl0e7gi5Rm9DAO+ZP5uIF46i0BuW5KFej/L66HSHxKJ4qwFq0BzrrM2ZPD+NSirIZU3CnjMWLFK9UVBYLRMsrqDplAfmpE+l6+QV6fvVDVC6DqGEuv4Cfz1Hb3MmErjxlY8YgpzTiJyKHZlw1ikgiRvXcGWTnTaN35zY6rvg2/p6dxzQCOT7xEMFtb2Pbj3/A9F37iDaMprBgPH7UQQ+Yb/WVxcQsFQsm4546jZbdW+n40fcwB/Ycs/INGgEvV6Dl4fsxv7uLstoq/DNmkh+wB1MXh/1aW2qnT0YvmUUh79H6ve+RX/kCJp/DjIx5U1ee4GvvW8xoa1FZIAdlFt47fwyfO3cqnz9nGgtGV5TMbHddeTmfPb2BedUWVTBIHiIenDOtji+eO5XL3jGNi+dPPE5DHCqCRf0/P+9U3l1fRixj0SkHm4sxpbaCvz17MpedPZVLFk5kbHm0RMYdMKGikn9470Li+TySBckpIvksf3bGeC4/ewpfOHs6U2oTAz82YoyrLefTSyYwNeFjCxrJClFfOH/mGC4/bzpffsdMLpw2lsgw17AUZ9QERa79IFt//n1G79lBZHo97rSxZKP9x5wahUKsQVdGqTp9NoVp9XSsfoX27/07fvM+7DBuWMj39tD8mztRK5ZTNqGO/Blz8CJxIkqjpTghKALKR8Vh1KLZpJbMo6PpAN0//zHupo2IP7jyHlebzXR0sPO6a4m/uALbUEVqWi1NPXn2tGbZ35ahqTNHb9bHVRHW+WN5vjCF5/0Z7J5zAalFp9KxaydtV/wAs383WHPCh3rWWnb/9g90X/8rElVQmDOelkKBptYMB1qzNLVm6Ul5WFF0mgTLvQae8qewfsa7SV2wlC6vQOt11+KuXY0+zsWmYyHmKC69YAHnjwUnm0eyBunxKc9ZvvzumVz556fwrffNY0y8NE4kOErxjpljuXhuLdGCj8kWsBmDk/P59GmT+NWnF/KLP13MaROqjs8QhwiFMGt8HZ8/ayJlXhovb/FyIGlYNLmKn/7pKfz8kwv51CmTKNMgJTDcS0Qc/vHDZ7K4wieaFlRWYZKWMs/yLx9cxC//fD7/8M7pVEZKxCa04oJ5E3jPjEqcQgGV87EZS5nV/OXSBn7xyXn898cX0lgdP5Gu4LAoCTrEqeZmtvzwvylf8zJ6SiU9k2vZ05umqTnD/rYcTR1ZcgWDh8PL3kSedaewTM9h39nvJz13Jl2vraLnml8jTS3H1KMfNJ7Hvttup3D/b0mMipObU8/enh72tqXZ35alqT1LKutjlWK/X8nyQiMv2GnsWPR+vLNOo33PLrqv+xX+3h2HzrwdDcfeZkXIp5Jo1yM5YxKZWePYn3ZZ8Xo7qzYneW1zL2u29bCnKU1OYjxavoTrohfya3k3v42fR/KMdyLnLCFfVg7JbKDnJ3gaWYslt20zielT6Z4+hjZd4OXN+1m5sYPXNvWwZlMvW/dkyPtRdkYncFP0fK5W7+Qacw65eafhXLgEf/xY/GQ62KE88A+cQBSKsTXVfGTGGPY1pznQ4ZHNKPycwqQEeg1uh+GWp7fzWkvqaJ//CSUecThj2gQKvQV2NGUo5GJITiMZsL2C7dGsXN3N7St2MbKTgQFRpTm7YTTlxmNna5qWLotkFaQESQqm17J3f57bVuzhYLow8OMjwqT60Zw9IcGug0kOdHm4aY2kBUmC6rH0tiiuf3oXu7qzAz86IlRFHM6bPoHerhz72gx+ViMphSQVtkfweyPc//x+frf+IGbYrVjQCLlUEqeQIzd7CsmGKnZ0dLFyfTMvbexkzeZe1m7uoaXDpeCUcUfVO7me93K1eScPVr4L84534Z99Cq4TRdLpgX/gxGCF3O69RGdNpXdWLU35HM+v28NLG9t5ZWMHqzd3s/tADpEEW3QjN+t38WvzHq4z51Bx+jwi5y0iH49iczlE5KgX/Y9dPJSirqGRGV/5EsnTFpBSPl3ZHF15l4IRXFEUjJD3DMpaojVlRCorcMoSeDqOLksw+cKzmPR//h5n7lzQx16Uo0VFIsz5//6OxGc+S29FlJ50kp50gbwneBY80WTzCh/BryonWlVLoqIKVyuMchg9bwaTv/Q5Ks49F5zh7ckJQkcqy5fuWsnHb3mVyx7ezbpWsBmQnMHPWV7a2sW9G5rI2mA+dqTJ+4brn9/AJbe9yqdue41XWn28nIPJKvy8oqPb8J+Prqap4A+7mzgcvlge3riPv7zzZf7ktjX8aEUTXj6GZEFnFU42wkOrmnj+QAdSInuDmrt6+es7X+Tjd67m357Zz/ZuB5PTSF5hclFe2NLLQ9vayJfITsGMb/jRY2v51C2r+YvbV7EzHcEraCQv+DnNroMuP3h2I+mRKK9SoDRjp09n1r//B10LTyGnHbp6M6TzFt8ofKtwPcFzDShwx5URqSonVlFBShLYqgomfOR8xl72eSLTphXXyE4wsSgz/8/X0B+4mFQ0SkdPkmTO4BnwbODb0jmDweJUxIhUV6Cqy8npKJKoYMz5pzP+K5cRnTkPpRzUUZb5uDy2jkaJjRmDxKJYsRhrQAQlh2YE0TYYDioFkUiESCSC0g6OihCvrCQ6YQISjQ786hODUiTGjkXX1iIieJ6LSLDoTyDgiIAxFoxCxYVIRCHKwbEQ1ZrY2DHoyooR8RYFz2Nre5ItnRm2d7tk0hqdV5isQ0+74jdrmtjYkykJ4QCwIhzoTrOtPUjJtMHmBXKgsg63LtvFqo40BmcE3e8bWKAtnWdre4qt7WkOJguYvIW8YDKwp8Phpy9vI22CnVcD00iQzRfY3tbL1vYUe7vzFLIKXIWfh6Z2n3vX7mdXKn3UvckTjWeF3Z1B/W7vzJLJO5DXSE7hZh1+/sImtmUKI2rDTjRG2YQJmGgCg8bzbDD2V8Gmm2AnlmBxKY85ODGDdjQiDo4IZfEEkfpxmNjw+bWy8eOhohIr4Pk+QhSURnAQFcHiIMpilGAjDo52iFiFRogkyonVj0XH4wO/+Y9yXOIRoBFRWKuK695FJyBCNpfFaFDK5aze9Xwku4JL7Ct8ylnDRNqxjkFGyGn0HfkTFUwJIYLxPMRaHOszJb+PD6RX8gF3FZckNjEq0oNVCpwS6NWLoK1BeYKfs5CL8MyuHh7ZdXDky/ZHsNYirsW6sGpPN7dt30/W2r69xgPfPsJoMILJCX7OIZWP8e8Pr6TN82CEBeOICIgHklaYZIyntrfx6N79BK6v9FBAPOdjMj426/DC5jae3deGVyIVa7SPVR7G8Yu7pxTWWjzfw7fg5H0+0PIiH8qv4oNmNR+NrqGWXnQkggq23Qz8yhNKUMa+4wTFTc/G4BfcYqdemF5o5eLCy3zQvMYlZRuIWe+YLXkIxCOYIxOCwGHS72BSeaICLIif55zMRj7uvsgnZBXnR3dRQwptLFqGWT5EYRA862P67/JSimgshtYa6+eYUGjmw9mX+FOzgs/oNYz2ksECqZRGQxQE6xlUxtLcK9y0dhstXmlM/xwJz4BJQXuX4baN+9iVzgx8S4mgih0KkILgF6Lcv76JR1rbSlqcRQTj+ZiC4kAX3LR2OxkppbgIA1H4BYPkNQd7LHdtPcCeTJ7+J2pGEt9afGuD4IfFRq+1JhEtQ4xCe1ku7F7FJ/Mr+HN5mXfJDiptbuDXDA9KsGIwAyJhOFoTjUYQFL5fYGqhmY/nX+Yv/BV8OraeqC289ezzUTq4IRCPYi++z0hFQRCQHawgvsH3PHK+S9ovkPE9PGMRIyilh/0QrKji4SkRdL+hfLBNz2JVICqeZ8j7PjnfxbNeMWxNcIhpmIt8WEQE44LYCm5dvYMVXd0lseh8JASC5+7GeXl/ikf2N5N7i9WWCkEDFAFMlF1tHjdu3UlBlfRxGsQKft7i+3F+vno9a1O9eP3CnZUagkZMFJNzeG5PM8+2tOKVUklFwFqUDSpQlATTVcrHYPHFUjCWjOtRsB6e9UcuhJFSxbIZRL0R61eUgLKI+Hi2QB6XrPVJGw/X+sXxSf/vefM//xiDF4++gzTFc2lGLD5CHh+/IsGYmTMZNXM2o2bPp27eIspnLCAfryItPj3WpdvLkPIyFMTFs4XiGY9hqvCgHjEa8kpRSNRR3TiTymnTqZs5jbrZ06iZM4t8ZS1dDnQ7QlJc0l6OvHGxthRchwpiFokC4/B6S5rrd+6gUCJz2kdCAZGCQ4/ncMOWHRx0C8P11I8NJWiBXA7u3L6TDckeSvwsZuAwJM7Te9q558AeCsN6BHfwaKtw8op2V7hpy046/JGVDunn21AKhU9OxYjWjaNu2nSqp0+nbvZ06ubMItHYSDqeoNsRerQhaQpkvDyeL/hYwA5ftF0JFmytQNZApqyW8TNnUj19BlUzZ1I7cza1U2eRjVaRFKHXePT4BXrdHK5XjKBgi+O9QRRZiYjcd999PP744/z0pz8lkXj7w0QiYBV0ZLq4YesjvFrYTk6n8QW046BU9ND8YBDGxkGMf2iKSiNEVBCkqbF2Fl+f9nEanbqjniNMpVKMGTOGLVu2MG3atIHZR8RgeXDzc9zZ9hyZWBZPIhCJg0RQ1qK0oB0FeIjxcHQEa0zQAHUEpRXjy+u4tPFizq2cQ5SjC3nteR6XX345N95448CsY0ABDlPrx/L9pWdx/Ysv8mxnO6IUIv37AlJSriMKXP+Ji2nf1cm31r5KdnB2OgIo/mTeVC6dOIVvrHiFLfls6Za3uMv9jIZJfGPRYn6wbBmvplOBMxz43hJiVDTKwx//MPev2chPtu/Apc9zDx2XXHIJv/3tbwe+fHiKTrg738NP1tzLBtmNGxU80aBjYHUQcUCDEwXfz6MJDuEZsYjSKO0QdTTz62ZzeeMHBuXXMpkMF154Iffeey8NDQ0Ds4+IQbjz9Uf5ffpV0vSAjqJ0HK365tgVSkewNoc2QVDSIFCCBQvaiTBr9Bwub/wQ0yNjgou5iuE2/xjHIB59Q3qhNdXFyt5ttEdygMWxGm2DqaHgORTnCgWsEyw0UnR/fTucHDRnjZrHgvjko3TFxy4erhju3fkCybI8ygkWyd9kq4f580qKh4f6/q00C6omc3rlTOLEDvuZgQyteAAoKssSzCurZEtvFylTyhNWARpY0jCBPS0d9HjeMJ69PTaUUtSXlTE2Uc6mro4SkuEjU1dezoREObt7usiVxCj5jxNXDmdPnsCqAwfIDK1mHGJQ4kEwHby/p5VnujbglgfTP1Ls9B4q4mHafJ+fUIFrJhFNcHrNHObEx51w8ciaAr/dtYx8uUFpiwrGPdC3gCCHOZQmge9VxanYCBHeMXoBs2MTjn6pX0TkD3/4g1x++eWSy+VkMNjDvGCPkMQG7++fzOG+4yhIJpMSi8Vk165dA7OOiv5l6ksDy3u497zp/YMou+u68rnPfa6vWxWmMIWpmIoXj56wdMkllwxsjn+cYqO2RT/xlnZ/mNQ/39jg08Hnj9ZDBKTTaVm6dKns27dvYNYfp/g3A49qRKx9SxkPlwb+tsEy+DWPfrxFnVTxnM1hEv0OkPelvkNWw03/MvWlgeU93Hve9P4RKntIyP8kSm58VGzUqugn3tLuD5P652sVfDr4/DB5iOLfDDyqBhVMS71dGvjbBstxiUdISEhIyP9OQvEICQkJCRk0oXiEhISEhAyaUDxCQkJCQgZNKB4hISEhIYMmFI+QkJCQkEETikdISEhIyKAJxSMkJCQkZNCE4hESEhISMmhC8QgJCfkfS6ncoPg/kUOBER999FGuuOKKowiMOPLkcjnGjx/Phg0bmDx5comESj8yIsJXv/pVbr755oFZISEhJ5BPfOIT3H777QNfLkmy2SwXX3wxd911F5MmTRqYXXIcEo9vfvObxIo36ZU6xhhef/11FixYQDweH74YMseI7/s0NTXhOA61tbUDs0uKvp5aZ2cn7e3tJ1XPraysjKlTpw58uWRpbm6mqqqKysrKgVklh4jQ3t5OLBY7ZMOl3O5EhJ6eHjo6OohGh+ku8eNERFBKMXPmzJOizIfE47777uMb3/gG8UFegj5c9DfUdDrNaaedxrPPPsukSZNQSpW0IXuex3//938ze/ZsPvWpTw3MLilEBGstV199NT/72c9wXXfgW0qWU089lQceeGDgyyWJMYavf/3rXHzxxVx00UUDs0sOz/P4yU9+wvTp0/nkJz+J1rqk25y1lrvuuov//M//xCveO38yMGfOHG6++WYmTJgwMKv0kGJI9ssuu2zQIdlHir6Q7Lt37x6YVZK4ritf//rX5eabbx6YVZIYY+R73/uexGKxt4S4LtWklJKzzjpr4E8pWTzPk0svvVTuv//+gVklST6fl69//ety4403iu/7A7NLkquvvlqi0ehbbKWU08KFCwcfkn2EKP05qpCQkJCQkiMUj5CQkJCQQROKR0hISEjIoAnFIyQkJCRk0ITiERISEhIyaELxCAkJCQkZNKF4hISEhIQMmlA8QkJCQkIGTSgeISEhISGDJhSPkJCQkJBBc0LFQ0TwshnEKwzMKlEEk+5F/JMnFo5XyGNyvXCSBDDUSjFlbCWNYyoGZpUm1sekuxH/5Inx5ebz2FzqpLEJjI9J9RQjdJwcTJswioa6cko3ulc/RPB7u0CGNvr48YuHWBBD28F9ZA9uwe/ah/g5rPFJvv486Ss/h3n6asi0lYxxiAjprmZ696zBa9uMmCxifFJb19B787/h3/z32O79WLFDXuHHSjadoufgdvKtO7G5LsQa8u376b7tW3hXXYbsfQ1MaTs4pRwmjK7mx393IX9yRgORgW8YQYy1dLc10bt3I17bTrA+4hfIrX2WzDVfwz76c8h2lYwNA6R6u+g5sA2vbQeS60KsT7Z5N+nr/h7/+q8gzZvA+gM/NmK4hRxN29eQbdmMSbdhxcNNddLx2+/j3XAZZv2j4GYRa0qqngcyoa6C7//1KXz+gtKyYURItR8g3bSVfPtuEIt4Lpl1z5K96m+xv/2/kO4csro9fvEgEI9Vj9/DrkevIfX6Q/jJA3S9+iTub39OrLOLwvLH8J67B8l2lIQzFmto3ryarfddQ9szd0Cul9SW1WQeugF9cAfZ7Rtw7/x/0LQRYeTLC8K+HZvZ/MCv6XjqakzzK+QObib1+19Suf01/LZ2Cvddhdn+MuLlwQjYIbORIUABioiGT10wg4vmxNHilk7xAOO57Hj1KXY/+HMyq36DeCnSa54l++gtSHsL2ZVP4D56DdJ1oER69MKu9a+w8Q+/pO3pa3Fb1pDfvZHsb39O5MAucvubKPz2Z9i96xDjlsSdN72dHay6+0ran76B3N5XKbTspfe3vybx2gryrd3kHrsLf/NyMBakNPv0cUfzvtMnc/6i0Xi6NLwDxaZufJftKx5i2/0/oX3FLdhcD8m1y3AfuxmV7ib92jL8R36NdOwPBPo4zXgIxCNAofB9n3RvD+3PPEru7uuIFgok6xvokHLSTz9M4YFbkHR3STQ+0Yo8QiqToWfDanrvvobIwT3kRk+mvWo83Vs2kv/djdi9W0COv6KPD4WSCMZEyOTypHdsJXP3zegN63HrJtI6qpGuvc3kfn8LdttqLKXUcwuEQwFzG8Zw+UWNRJVbfL2EEIUiQsFAOpWm+/mnSd97E3T1kKxvoC1WRWr5s+Qevg1pP1gSNhxBoXxIZ3Nkt28lfc/16B3b8MZOpH3MZDr27iN7383Y3ZtQJdBpAwEF+Xye1N6d9P7uRpyXn6dQPZauUQ10t7SR+f2N2NXPBm2uxFBAw5hK/uLd0xlVoUqkTgegNJ5nyPR20/Pqc2TvuwW6ukjWT6E1XkfvyucoPHYHdLYO/OSgGTLxAEh2d9O1chWFBx4mnvfIT59Oftw4vGnTaFFxOh9/kOTd1yElML/pWyGdTdOzYw/pG35BWdM+/IbJ+OPGEGmYSveEmTSve53UHTdg9+wInMWIFlko+C6dza10/uEx7IaNePXjSI4bj5rUQHJ8A+17mui99RrsrtdLwrkFCAqhMu7wH5csorHGoEShbImJB4LB0ptJ0/rKGlJ3XofTm8GbNhVbX49pnE5rrJquZS+QvO82bGfzyNqwgBLB8326m1vp+v0DmG2b8SeMJzNmLGrSeNL1k+nYtJnem6+EfVugBEYfnlegbV8LyYefwr74EmZ8PdmJ41D19eQmTKGzuZPOm67EXf4I1vglY8YOEAEuedcCzphWjmMsypRcFwhE4aZdUht3kr/tFlRHF/nJ0/FHTUJPmU5HopLuZU+T+8NNSKYnmDl6Szq6Sj9+8RANSpMvZMnva6d8WxtlysFfPIt0eQKFIlpdSWzBXLpi5fQ88TCpu6+HdO/AbxpWbMHF7Otk1JY2nM4C7oKZ5OsqERTRaDnV06aTbpxCy9rX6L3uZ0hX+8CvGEYE37gkO9qoWHeQWGeBwpRx5CaPBcfBiQqVkyeSmzKB7j376f6Pf8NsX18SU4QBwsVnz+Pd86tJiAUrWHt0BnqisUhwW6IS8vk0/p4W6nanKcsLZt40/IpyHK1JVJQRPWUuHVUJOp98hOTvbkfSqZG7aVGB67n0tnURf20fsa4cdnojufpRKDRRxyHWOIlkYyOdOzbS9l//Ci37Rtwm/EyO+I42Ei096BmTSE8egxvROBFNecNk0vNnsr+9g5YbrsJb/hhQGptXjIKZk2r55/dNpBoXrATTayWCEPQXc4UC3fvbqN2RxvPymHmTyFeX4WiIllfhzJ1LZ2UtrY8+RvqqH4PnFU0imCEYjBwet3iIVviuR11zF40tBSrrKimc1kAmrlGiECUgglOdoPJdZ9Ixqo7Opx4j+ds7kZ7hXYAUkWARyTfEOpI0thWojJYRO28RuZoyrFKIUnha8GMO1TOnYWbPoHXLJrp/8i1sy/4RcRZiBSeZZvKBJKOsIjJ9ArZxNAAGixJBxTRVs6aTOmUmbcal+Uf/j8LrK7FuBisyYj04pWDGhBouP7eeWvGhIEjeImaECtSPwBwEJYDrUd3aS2NHgXhFGe55s8mXRzGALV4PWlZeQe2pp5IfP572xx6g965rkO72ERnlWd/HSaaZdCDJWCdOdE4D3vhRIApbbNXRiKZm5hQKs+fTnc7Q9N1v4m/bCMO8mzBwbILt6qV+bxcTsorozEm4DXX4CpS1WA1GW+omTSJx/pmksgU6b72JwgvPBOt4I0xNIsr3/uJcKqNeUH++RUuwe3DECfo++K5LRXuK2QezJOJxnMXTydVUY5SHFYPRhkR5nPKFC0k3TKDthefp+fH/QzrbESuDFpDjFg8/3UvLQ/czfu1Gymsr8OY1IpVlwZylCobWShQaRaQsQc05C0jX19H+8H0k770d2905PI0v0DDEQsfLL6KefY7aRBly2gzStXHemEUJnoQWIVoWpXLRdNx502jesIHuX/4Qf9sWxPrDtlBmjaFn2xacJx5lfDKDM2cK3ox6rKNAgRZwrMKKxkQdaudOxZ42l1R3J12/vhr3tdVQKBytPQw5FfE4nz59GkvqK1EFi+TBKQjzxlXygQXj+OCCcZw5ddTxG+IxIAgC+G6BjueeoOKlldRUV8EpU8nHItiYg9EEK0gWtPWJ18SIL5lDtnEiHQ8+QvqmX2MPHkSsHbZukPV8etavo3zZM9T7BZx5M3EbJyGOwjjBWrMWhRJNNBZj1MKZ5OfPpLu1hc5fX4m7fjUyTNcLiwBGSO3aSfKeu2nMG2RmPd6MsdiIE3g9pQJxEQMRTfXUyTjnnkJPPknH7TeQX/Ec2JFbA4k6Dp88ZzbvbowRyRZQeQedU8wZU8XF8yfwwQUTOXPKGCqjI7T3SoHJZel+/jmqVq2jsqYCtaQRW1VORBRagnqOWIUVh3hNnMoz5pCdNp6Ol14geeu1mObBbwQ5rjbrJlM0/fYP5O+8lbIqTX7WWFLlEXrzPumMRzZrMEYhOBwwNWz2atld1Uj3kjPpGT+K1od+T88NVw+fgFjhwNNP03n9L4l27cOfM56uyigdqTzJjEsyXaDgWZRSpK1mg1fHJmcCLQuXkjttPi1r19Fz3a/xNm1EDdOCXve2bTRfczXR7RswM0eRmVpLd94jmTOksj6uF4w+MqLY61awW8bSMeNUsucuobWznc6br8Nb9zLKDE95+6OUYuHEUXx80XgqxcVkC5iswckZ/uyU8Vz1qQX86lOLuWjqmBHZ8qhQ4Lrsv+cOUnfeQsxm8GbVk6yIkc0b0lmPVMHgika0pq0QZYtby57KySRPP5vUzAZan3qS3ttuwu7fH0xlnCj6vlqgZ9NG2q6/GnVgB2b2WLKTKunJ5+nJeqRyPnkXrBKyEmVHoYrtagzJuadjFp9C995d9Nx4Lf7m9YFDPoFFhkA9ktu30nrjr9GvrcSZPY7C5Fp6XKEzY0jlDTnXoq3Csw678hVs9sewf/I8us4+k+5Mku6briX7xGNghn/bsQLmTxrDX53RQIXrYnMayQg66fGB+eP5+Z8t5BeXzOOShWOJ6xHqo4mw/4nHSN51C46fxMyfSG9FhK6sS2/WJ5UzuBasMvSIZr1fx87yKXSe9R5SMxpoW/4cqdtuxja3DMoejl08ROjYs4vmJx9HxMc9dSwt+Dz52l6eeLWJ5eu6WLmunZ0HUmRVgrujZ3CFfT8/cN/HLdUfpOP8j9I9vp72p5/Grh+GBV4FGI99N96MbWslN6eernLF8vW7eW51Ky+s7mLl6k5e39pNpqBYb8dxpTqfH5r38gv7PjJnvZPCufNp3rSJ3Lr1KH8YnLHA/mUv4m3ciDt1FMlJ1Sx7fRdPvXaQ515tZcXqdlasbSXrR9gUa+Snsfdyhf8+fuy/h1XzP4J6xxJaW5vIPfsUjMAht/Kow6fPmsmcyiiSV5CLojMOpBXVNsp4pwzpdbh31Z4RmdlWQKatnfZb70In8+TnjuegsTy1eh9Prm7ihTXtvLiqlX37M2RUFbcmlnKFvJcf+O/nqrJL8N75ftrnTqR51Yu4G9ahTrANG4L1zA0PP0Vq6w4KU8bRM7aCR1/bzCOvHeD515pZ8Vobr6xrxzUxtjCB/45exHf99/Nd/z2sOe1DFM5aSPOe3WRXvoAx+WDsdSKLbbz/v703j7PrqO59v1V7OKfnQa2pNc8Dnh1btmWMIVwIBNAFbEwcng18iCEhD5L7kvfyCcRJLoHEwXAJ94rBQDCDLdvYIIMlbGwseZItybJledJozWqp5+4z772r1vtjn5altiR3t3ryvfv7+ZQlq06frlN71fpVrVpVh8ymZwieeoZwXj3Z6XW8cKSDtZsOsG5rK09v7Wbj1k5aujV7nOncLlfy9fBq/t38Ieua3wtXXEpbby/td6+C0GJFGK01ngKqUz7XnDeD82pcJG+QQggFwWahJvKY7qYwOXh8WwuZMBqllvUjn6flth8iuQ6KCybQkjL89sn9/P65Fp54/ijPPN/KztcyhLqaLUxnJe/ilvDdfMv7QyrfcSW5udM4+swGgn074wnQAD/E0MVDKSYvWsyFX/kqRz/0Hrodn9augJYeRTZKkw8U+ZIhVwzjfZEJDdj6iYSVE8i4dejGWhZ9+iPMXvk/0VdchaihN2WgaN/nvG/8KxNu/mdaq31ae9o51lsiW7IUQiEfueSKPlZV4NQ3YWubMTWNdHqViFvJtLdfysJv30LNB1eA6/d/++FHwds+fi11N99M56L55EqGvUcKZArlvg2hJ1tCRQ46lUYmTKRQO4Eev4G8rqbxvEUs/O83U33TX4Of7v/uI05gLL/YvIdP/Pw5rv/ZVrZ1aopFTVQUogIUii5/+6tN7M+O0ZkPBXXTprH42yvJ/vln6Um7HOzqpDMTUiwp8kVDKbDkciElY1FTp2NqJ1GqbKRT1WGqKpj/4T9i5v9cif+u/wLOCNqwigerOLDss5+i4W+/SOuMRnKliCOtBUoFKARQCIVMroiJIkytC1MmENQ1UEzVk0lPYMLbL2beLf+d6j/9DI5XhVJx+HOkUJ5Lw4oP0fgft9K7YCqFKMfRtk5yRUtQsBTyQi5vKJQUTlUldtIEpLoRk2qi6NQyceE85n/tH5n0b7difR9NHFIeDURBZC1rXtzDZ+7ewvV3b+HuPRFh0cEWLLZgMFnhtxtbWXewm3C0Ytn9qaxi6crvkf7zm2iv1rQc66C1EFAoQT6wFCIhk7NoidBVNUhDE7aqkW4qodpj2offxcxb/wX//EtAD9wezsranVSK1JzZWN8nAkKxWCsoQPedzi4LmdYa5Ti4rodFsBicmgpSc2agXIdR2XdSippp07H1dXGsO4oQkTh8IYKIxVqDsQUCZXBSgqcVWiRO1dOQmjIRVVs14A4+W7y6WvxpzVgVbzoWjUEphZQ3cgWwSsX1aPA0oaNBNI7nk546EbehPt65HmVCY3lqzxFWv3qYX796hINdRWxRIA+S0zyw6TCPHOggHIWJw2lxNLVLF2ErfQQIrSUCbOymoPxnnEwBViu0oxEXHCwVVZVUT52Ckx55ce7bykxNaMCbNgWLEJqIQhQRakWkHczxdiusUkTKQTxNqB1UKLjaJ908Gaemsv/bjwiCJl1bj9M0mWL5yG2pUIqTaUQQLWhHgdj4fJIrkIqfS6gjjKdINzWQmtSE0oCKsztHBYFCGPHM/i5++VIL973YwXNHQooFMHlLlFNsP6L51uYdlE6ILI46CmpnNiO1tYhSFIMSoh0sCoMmtGAkth6tPcRRWM/BKBetXdyqWiqnz0BXVgzKrw3LUxCJtx7F2tjRikWLJQojrLXoKGBRYQ/Lop1cZndxuTrMJJvD0QpIxbOfMSDOMIj9qmCxJgIraANTiu1cGr7C5bKLq1OHqFNZBAVO7LhHHYnFAhGU1nEULoo37i1CfdDNxcXtXB7t4Eq1lwVyGGeU9mUGioksUrJIoNh1NM/3tu6ht/yZxgMGiW1CQBE7N2MNosC1EUtyO7k82sFydrHc2U0VxbI7HwPi+Q5i42w7LfFBzCgMy+MRJpR6WJbbxfJwF1fq/czXh3DGIkAoClGxAEdKY3ERpRBlMTbA2BClLHVhL+fld7Hc7uYyvYu36Xa0WETpMfMRfYgqi4MIqmiweaG7R/PVhzdxuDRGK+c3EKedi4kzwVT8T4i1WGMRsTSG7VxY3MmyaDdX+IdwbAkHNaQT/cMgHuUZu5g4W6Lci0aD0gprLW5Y5A97nucTpUe4wa5nhbuVydKJQuJzIqOJKCwQSER0QvRUoXAcF6UVYvLMLu7j2sx6PhE+yqfcjTSZrvK8yY6BuxCsxA8fVV5EKHBdFwWENmR6/hDXZh7jxtI6bnI3cYE6gCujv8F4JqLIYnNQyCjufeUwL3T2lnVj7IeeBSKxsXOQ+B4uVZ5YWIlwwixXdT3PJ8J13Gif4P9yN9MovfGEYgyaH688LdbauL0C2saZQSihZEOac618PPsYNwaPcpO3ifM4iJaofN5/dIhNNXZOFo0ojaiys1LxqkM5IDZiYv4I78s+zZ8U13GDPMnVzmsowqH4teGn/IzFKkxREQY+v3zpCGuOHCMaBxYsEp+dstaWcwhjlIoTV+Kst4D5pX1cX3qMT5n13ORtojKK10zxlLgv/3BgDIPnVuVVR3yWQMX/hFXgeC6IYI3BMwGpKEeaHCnJx+ctxmDGKeW0QMozttguFQqFVvGM3lqDDUOcIIsXZUhJoe9TomJ3MfrEzxZOmOtqrVEIkQlRpkTK5KgwWapVEVfFIcPxRGQspuDw/LEcq/ccJDsGGWBnwvQNHpHyoBOUEoyJiKIAHRXxwxxpm6eCkHgaMkYI8djqN4Z0OaQZRhZlAlImS9pkqCJfnqzFtj4WCBBF5uQRVJ4ICSBG8EwJHfaSkiyuCtDWxLcRjLmClHstFFTe58DhIj/f/hp50eNmmImUVx4nNEgpheu4aK2JTIQ2JSpMnrTJUa2Dsj/TgBOvZE98wzfhrMRDgEgiQmUpaUPoCirlYV0P4/ioVJrIc8liKNiQjAnoikrkbESIJRBLNJqhlfKhsBKGklaEbgqVSkHah5QPaReb8sipFD0WujV0SkhPVKRgQgIsoTWjJnqCYBBKEpHXIVkVQdrDei6SdrE+KF9TMgE5ieiKSrQHBdqDHPkowIghFIsZSyd3AirQ5IMUq7e38Go+Nw5aFYtFZA2hBIREGNeL9/A8i3gK7afQnk+ooNuW6IhytJdydIdFighFDFFZdkYLKZ/QDxGK2kJVGl2ZQtIupBwc36EUWXJSotOU6AgLdAR5smEJayNCGx4Pz404Eju1CEOkIVBgfQ9SPpLykZSH+D6RdshZQw8hnVKkWwKKxhChCawZtQyrN8MaIV9S/Pi1fbyQyZb3X8ZY2CRehUZiCBAKjgspD0nFvoKUS6ihKIoMEZ2mSHuYp6OUp2gNgQiRHbwFKxGR1atX8+CDD/Ktb32L9AA2/my5uwpBnqeObmX9q48QZFsoWA+pbMLVKRzXRWtFynVwol5sGH+/gFKKlPbwXA+3tpZZsy7gXRMupUFXD/gRZDIZmpqa2LFjB7Nnz+5ffVoMhudadvLIwcc4enArofWRyiaUqsB1nbi9KRcVdUKpB0e5KAFXuzhOCi/tM2nWYpZPvoy53mRc4pXKmxGGIV/+8pdZunQpN954Y//qUxILlLC/9xhr925g38HNFLLd2MopOI6P4zk4WuNql4qUEPa2oVSEUnH4zdUuvu9R17yAy6ddwdL0dJwBzhWstdxyyy380z/9E8EwHSbzgZ984L8gvRFffOoJ2s3wpjUqpbjkkkvYuHFj/6rTImIp2hJPHn6VDXueJtf+MnlVQZiuJ+W4uI6DqxxSvocpdeKYfDlsqHFcF9d1SVdWMXvGMq5oPI8pXt2AY/NRFPGZz3yGj3zkI3zoQx/qX316BPZ1HmLNrt+z/8hz5At5bN0MlOPhOApXO/iOT4WvKPUeipNnFDiOS0q5VFVUUj91IZdOXcaCVDO6b0b9Js0ulUrcfPPNLF68mBtuuAHHcfq/5JSIFQ72tvDw4Q28vPtxbFgk50zC86vRjofrOjiOQ9qxqMIxhACj4/b6eDiuT03zTC5pXsYlFQtwOfn3nqnt3/ve9/jCF75AGA7HPk88P//zKy/jasfjHzc9x6vFYnmWP3zh4XPOOYe1a9cyY8aM/lWnxSA8dXArG/Y+RWvLy+RJoSon4DsejqNxHIXvplCqF4rdZS+g0Y7G93zSlQ3Mmn4hVzZdwCS3FjXAhIQhiUffoG/LdvCblk0c8XsRJ44VD9Yh+Lh8YPLlLPGb442bATBU8SjZiLt3PsohvxvrqdeX/EqV9zPi/1flzUegvFx+vV2+43Fp/XyuqFpICv+0hnsiQxEPAGuFjYe2sS63g6hSI8qCGuB8vfzRtNIsrZ3DB2ovItU38N6kzSMhHg5wzblL2bGvhZcyXcN+7+9QxMOK0BX28rPd68hVRIgWrJLjV+oMBFFQoyp4Z8P5XFA5a8DXVQxFPMTGceHH92zmKfMapqJv7TSw39knFEoUFzUu5uqat5Ee4KgbqngYsWxt28W6rhcppgWjT9+vSjjBKvrGnUJpxUS3kRumXEka97gBnzwy38hwiwcIfzB7JpWFgA3HWsuSEU/yhouhiEdRQn7y8m9prywgXtwaG28pnbFtfREUhabSqeD9TRey2G9Gq4E92yGJRx+RNeRNgFGx41VDjEumHJ+08s5oCCeSyWaY2DSR7Tt2MHvWrP7Vp7UoESETFREpL4Lj3j39D5wGX7uktR+vOwbwo0MVDxGhEJYIiI7/noE6ihNxtKZGV5z8k2d4m5EQDwDHcTAjtM8xFPEQIBJDLirG/xcbxRmG26lRQNrxSOuBTSYYqniUV+75oECg+rZpFTKEpBPfdUnrVDmp980ZqngIEJiQggkGvW1x0ssFar3KN+zXnEmrh1c8YrTWx/cWRoKhiIcVS2+UP24PlP3EGbrmlFQ4Pr5y458cwA8P3upOwNUOtV4FDW4VDW419V7VkEqF9o5nEA2oQDnGXN6h719Og1KKWq+COr+Ker+Keq+6XN7YpjOVSp0aYMDq7FBKUemnqff72llNg1c16FLrVLyxf8eAkRKOoaIATznl51od97NfRcMgS71fRdoZuHAMlb6QWKVfQb1XQ71XS71X84b2DKRU6XgdOsJNRgEpx4v79RS2+Ybivl7qTyxeFVqpciLD62W0sXZsEn3OhFa67B9qTvIT/f3Wm5WU9mIbG2C/npV4/B/LADs3ISFhmCiPufKU8XhJGDsS8RgqYziDT0j435b+K+R+4+w0/5wwBiTikZCQkJAwaBLxSEhISEgYNIl4JCQkJCQMmkQ8EhISEhIGTSIeCQkJCQmDJhGPhISEhIRBk4hHQkJCQsKgScQjISEhIWHQHL/bavXq1dx8882DuttqrMhms5x77rk88cQTTJ8+vX/1uCOKIm655RYWLlzItdde27963GGtZeXKlXzzm98c1rutRhKlFOeffz5r1qzpXzUuMcbwN3/zN7zvfe/jPe95T//qcUcQBNx6663Mnz+fa665Bq3H97xTKcVPf/pT/uEf/mFY77YaaRYtWsTPf/5zmpub+1eNO46Lxze+8Q3OPfdcXNft/5pxhzGG2267jU9+8pNUVlZi7ck3zQ70WuzR5Omnn6axsZHFixf3rxp3iAjPPvssO3fupLKyclz2Z38KhQLGGN7xjnf0rxqXiAgvvvgiS5cuZc6cOf2rxx3GGDZu3EhjYyNLlizpXz3uUEqxbds2Nm/eTGNjY//qcYkxhkwmw2WXXUZl5eh8x/zZcFw87rzzTj796U/j+37/14w7isUiK1as4Gc/+xmTJ0+G8mBknAqHMYYf/ehHzJo1i/e+9739q8cdIsKqVauorKzkgx/84IBvUB1LNm7cyJe//OVxd/nimWhqauKLX/wiy5cv71817oiiiB//+MfMmDGD9773veN+5SEi3H///bz00kt86Utf6l89LikUCnz0ox+lWCz2rxqXHBePhx56iG9+85tvibBVJpNh4sSJg/4+j7FiqFeyjxV9V7LX1NTwuc997i2xGl27di0rVqwgiobvi3lGmmnTprFy5UpWrFjRv2rcMdQr2ccKEWHlypVs2LCBO+64o3/1uCSfzzN58mRyuVz/qnHJaacPSqlxXRJGjqSPE97qKKVwHOf4d6C8FcpbjdOKR0JCQkJCwulIxCMhISEhYdAk4pGQkJCQMGgS8UhISEhIGDSJeCQkJCQkDJpEPBISEhISBk0iHgkJCQkJgyYRj4SEhISEQZOIR0JCQkLCoBlW8RDAimAplzAg6m5FClmk3+WF4w+L2BDb2wa5ThAD2PKnGqeIEOV6kJ42sOPnTic5oZz874INikhPK4Rvjft7ACbWVTK3qXJ4B8tIIRbT2wG97VC+7238EltJVMrH486U+lnPqaxo7JGghO1uw4bFt0AfO6A86qorOG9uPcN5jn0YxkP8gA+/tpOuvS8QdL4GUQEVhhS2rSd/11cwT/4Msp3jxg5EhN72I3TsfpbC4RcRU0CMIbf3FXL33Erp1/8DOvaCjB/By/Z00rn3BfIHt2HzrSCGYsteen9zG8GqryCvbQEzjq5Pt4aj27eQP/ACUe9RRAxBvpfs478gWPXP2K0PQinb/6fGHdWVaf7vj17EP17zNrz+lWOK0NveQtfuLZQOv4Tk2xAbUNz/Krl7vo6991+RI6+OKxsuFfIcfXUTxYPbsJlWEEsp0033w3dQvOtryI4NEBXGjXjYKKR9/w6y+17AdO4DG2GLefKbH6J491eQzauRKD+mbXwzFJYKT/E3117I9z576bDa8DCIhwUitj31IIcfu5Pi9kch107nMw9SWPMT3N0vUXrsAexj9yCmgJWxNQgAsYZju19i9yM/oX3jvUjQS/bADgprf4jZ9SyF59aT/81KOLZr3Ay+1kP72PPY3bRvupvg2IsUDu4ks/Z2nOcfobB3O8U1P8DufhbM+PjuAmUCtq35MUefWkXhwPOEmU4ya34GD99NtHc7hYdXYV54ZHwJXj+0Uly6cCIfWNZITaWBYZ23nS2WI7tfZM/6VXRsupewYzuFfa+QWfufOLufJbNrG6U130cOvTxubDjb3cG2NT+h85lfUDzyCrmuNrof+E9ST94Lu7ZR+u1PsLs2gR0fl1uGQZ5dG9Zw8Mk7yO/+PRJm6XjyAczDd6B2v0z4yN1Ej6+CsND/R8cNSgnLlk7h+uUTqXCHNzpxXDxOvNJ8cJd0xWJgTUCp0Esh00nnuoeIfnk7uruL7ub5tIcO3Q/fT2H191FR7vjvGlPEEpVKFLK9ZA+/TOb2r+O8tofilOm0Vk8it2UL+ftuxx7bVw5hjWWbhSg0RPmQIJslv/8AHff9GLV1I2bCJDoaZtK7fz/51T/E7HsZsYZILIIMae4mImf9jAQoFfMUM10Uulro+PWPsL//DVanaJ80i+7uXjK/+hF2y+/Ajg/B6099dZqPXjmHeU0aNeheHEkkDllGEUEQkOnqIr9/J12/+D7Oqy+Tb5rFsZpmcq/sIrj3h8ihHbGAjPFk3lohCIrksj1kWvbTc99tyONrkJo6jk6aSXvLIQr3fB+7b1t5zKkxFmxFKSxR7O2h2Juh5aFfETywiqhY5OjEabTniuR/+ytKj/wcwhxGbBzFGsM+7k99TRXXv2MuU+tk2LcOTlp5DE40TsaKJZPJsv+JJ+m9707oyBHOnUc0aQL5BXNpFSF//y8prvoBlMZeqcVaCtkc7Xv30fKVr+LuaSFsmkrQ2Exq1hLaqqfTtfkZsnd+Fzl6cMxjm1YJeWNoa22l5Rf34GzaiG2aRHHSTLwZ0+lpmEb7rj10/PBrSMteHAFk6M9z6EjZ0Sqs1XS193Lkvl8SPbAGnaoms3Au0ZQpdE9fQFtXnmMr/43wifvGpYBcvmQSH1/WgK8FZBgW6cOGimPZaHKFgNYjhzhy+52obbsImqeTnTyB1OzptNdP4OhzW+j+/teR9mP932QMEKwp0drSxrFf3IN65DHcxsn0zpiDbp5BZuJcOg+00/vVmzHbnkeisd1zFFGEVpHNFGn5/Trsz7+Ply8gs+fhTZ9JZs58WnMZen95L8WH7kGHpZOlbuyaDoCjFX907iTet6QOX1zEDK8Nn/W7iajYrxZC5EA7Dbu6STs+0cULKFVXYBXUVNfinXseHRXVtD+4hsw9t2N7OsfUIZsootjWTd0rbVTmDWbBdApTG7DaotKa6nPnk5k6jaMbN9F5+0rMof1j2F6FREKxvRP94mFq2ktEs5vJT59A5FiUsvizppOfMZeuQ60c++rfY7a/CCYaUwPOZ7Pw2jHqDmZwJk4it3QmkaNxgapJDZQWLqFLqmm9/U4KDz+AFMbP9xhMrqvk71acR1pH6MhCyYyz1QeEUUhwtIv6l1qpzCvMvOkEE+txjEJp8OfPJDd3Hm2793Dslr8n2rcLsSfMjkcZBRS7e9A7Wqhp60VmNlCYO5kIC46iYtZUOhfMpjOXo+1/3ULp2ccxpWAsmlpGsIUAc6CDit2dqJpG5LxFZCs9jEBVwwS44EpaUbTdcy+5h36NFMeHDSulmDWpjo+9cz5N1RFICYJoWNdxZy0eFo0JLV5bK5NaCtRUVqHOnU2p1seIRUk8AU43NuJcdhFdtdW0PfgbsvffjWQ64yyh0bIOERCLNRFOexdTDmZppAL3nLkUm+uw5RkzSqF8h/TSuYRzZ9CxZRNd//ldzP4xEhCxqO4umvZ30JwR9JzJmNmTsFpjsIgy6EqXykVziRbMJ9t6jM7v/jvh1k0QhaPrKSTu56C3l6ajvUzpCPGbJ2AXTSF0QcTGwQgl1M6cgrp4MRkb0Hn3zyk99jBSzPd/x1HH0/D595/PRVM1XhCiSgGEJ/ZiXzhlOIfiwBHAGoPb2cWUIzjHBmoAABYLSURBVD00GQ9nwTTMzAkYR2HLo9pN+aQXzKE0bxYdu3fT87++TrT9JQRTDmiOIiJE2SwTjuaZmrVUzGgmmjudSLuAQgs4yqFhTjOFC5fQle2l86c/INyyAYJSnA3Z/z1HELEgYYh/tJOmo3kq62oxF8wjX+Eh1sYTCQUVTZV4F55DxlV0rbqD3G8fgGLfpv/YoFG4aP7rsrm8Y3YFngUdKQiG117PXjyCgL0PrGbWK7tprKzEvG06xboKBHXSELNKSDXUUHHp28jU+bSvXU3PPXcghUz/txwxRECMpXfbNnhkHU2ejyydQWl6HeJoRCsQhbIKhcarqqDi3PkUF8ygbdPTtN/2bcxrO0dXQETo2bUT/ehDTO7KkF46FzNnEtbzQDtYBQqFYzSe51OzaA7mwnNoO3CYzp/9gGDbFghHbwUiAsXuLg7/5IfM6sqQmj4Rs6SZqNLHqng/xZSTudFQPXsa7rIL6A0COu/8CcH638YrpjHk4oWzuPHSqbjFAKekcYpCk+9z9fwG3jWvnmUzq6lPx05vJOlbILyhWEvvq6/gPbGBplIE58zGTm/EOuqkJokGpypF7XmLMecu4tiuHbTffhvhyy+OWmq3SJy+nz18gMw9dzG71+DNnExp7kRMykERjzVU7Iy161O7YDpctJTurk46fvaflJ57CokM2NExYhFBwhJHHljN1B07qa+vRs6ZRVTtI1qwCkBQAlYUlVMn4l66mO5USPtdt5O5907I50dfoMsoNPOmNnDTlTOoCgMoWCgaal3NO+Y1cPW8Rq6YXU/aOTv7PSvxiIpFXvvFXag776TOFJFzpxI0pChJhMjrxikoAjR50dDYQMWyC8nUpOj8za/o/N53oJiNpX4kQ5wCENG69Xlab/1XKtsPoRZPpTi5mlA7GBXrtUKBchDjkjdpoop60hdeQPHcuXRvfoau734Ps3P3qGWwFA/s59h3vo3/4lb04mYy8xooObEDthKhxWIBqzwK4pD1fJzFs5Hl53DswG46vr+S6OWXR03wCt0d7P/hdzBP/B5vcgPhkmaClIcRhaMMjnJwlY9WLoF1CayDNE/CXnk+bWGeth/eRnj/feUV0+gzoaaCL141jykS4BYF8gI5zcVzGvjJpy/mjs9cwv9z9UImpVwUo2MDJyPkd+/m6MrvkN7/Gv7SKQTTKwm0JRRDhEGUwloHMQ6BaAopn/RFS4kuXULb9m103LaSaNdOxMrIjbcySlkyh17j6Pe/R/rJJ3Bm1ZOfX0+p0idCYSR21rq82ZxVKQpuFXr2dOwlS+hpbaf9P/6DaNN6RKKzTuQYEEHAq7etRP3qLqpcwS6eSFDtYq2J/Zq1KAtaFKG4FJWPM3Ua7uUX0+lB5y/vonPV7aji2Oztph3D1/7reczSFievUXmFycD0+jS3/9ky7vzMH/B3Vy2i1ju7r5ceuniIcHTnTnoefgRT6iV36Sz2RwEPPX2Q+59oYfVjR1jzzCFe2Z+hR1fxL8Ur+UTm41zTeR1frbiOzndfQ3tdHZ3r11N88sl4VqFHcDKn4sM92//la9DVQ3H2JDprfB58fh93PXqQ+9bvZ/Vje9m6p4u8WB6KpvLJ3If5ePZa/sxcR+Ydf0T2kqW0vrKN7MYn4tn8SCPCC2vWUti2nWjORDJTq9i8bT+r1x/gV+sP8+vHjvLI5k5KotngNvPp8AN8InM913d/mCfP+1NKV1xBa2sbPb+6G4JROJQnQtdjTxP+7nGcap/SkgZ2dvZw75N7WfX4IVY/2cFDTx/hSFuB9sDjn7NXck32I/xp97XcWf9+3He+nW5rObjqdmhpw1iDGWnvdgIaeP/bZnDZlBRBtkAuL4QFTZAVVEnRiIPOaR7d1saeTGFs8hGs5aVVP8XseoVwbiPtk6v43fO7ueuxvdz3+GHWPN7CUxsPI+LylJnGJ3Mf4WO9H+Pj7R/mxYuvJ1h2Ce3795L/3QMQ5BEVZ+WNFBJZso9uIP/YBqI5E8jOa+Llozl+8fs93L/+ML9Zf4T1m1tp6/V5IWrm77Pv5rrua7m+cB13zPwYpeUX0ZPJc/Q730EXsuWjASOHANs3P0fxN78Faylc0MxrpSK/fvogdz9+hPueOMLajS0caMvRTZq/jP6Y67r/hOs6Psp3J36C6IMfpsUVco8/SrBlIwxzhtOboYD3XHoeVzc3EeaLBIUIm7WoDPh5xUTr4hXT3LX1KJ2ls/NhgxeP8tpZgAmzZzLv05+k833vJONrWrqLtPQYTOShrIsJNLlcgDIR1dPqqJxcR+2EWoqpSsKJdcy88Y9p+ssvkL70MtCDb8pgUV4Fi/72v1Fx06c4NtHnSGcbrd15osggRiM2RXcPhMaldlI99dNqqG1swGgP7aSZevUfMOVL/42Kd74TvOE8bnMalGLx+99P5Wc/RefC2eRsxEsHWsmHEBowaPK9eWzRJZWuoGHaJKqb6kjV1FJSKaZcvJDJn/8UNTd8Cny//7sPP0pRt+xipv3939F20Rxy1nDgSBvZrMGJFBJoosAhmwe/soKGaU1MbGigpq4Wna6gdk4zTV/4JE1/+bcwdRKO0jj9f8cIorXiUEcP/7F+J//06H7ue7kbk3fROXByguQcntjRxS+3H8FIHGkZSU4M+x4vymHR9Tfif+pP6JrWQD4bsPdIHht6qEhjI01PzhAAFbU+Nc21NE5owKlJ0eNWM2X5uUz5q89S8eHrUH4FSjRqBFVQOQ51y5fT8NdfpH3hFEIbcPhwK4WSEJqIiIhcydCbD3HrK6iZUkdtUwVV9TXg+DSct5CJf/VnTPiL/w+prC4Hw0cOBcxcupgZX/hLWt59GRkdsv9YN12ZAEJBIkVYshSKgnUd/NmN1E2pw2+sp8upxZkwgbk3XUfNn38B77wLQY9se09FT283X31oK19bt5c1r3aQLyhMSRPmIcgID245wpN7jhGd5Spu8B67bMVKKSpq65lw1VUE9TWUbEgoEUZMvLdQfshKQFtwHI3nuWitEHFwjEPtlMk0vPtdUFcPZ5EmPFCU4zBl+XLcJYsJEaIoQJDjC574fEOcdmyIUL6DduINdIBUVTUNF1yEP33WqLQXoG72bKouWUbk+0ShpWTisJoSyqm4CqviIkqhPYV1HEQ0rl/BxAvOIzV3PujRccPVzVOpu3wZpVQlAFEpAIlzzPsKNk5cwLFYTxF5mtBGiBYaF8yi9qq3g+uW+3h0+hkgssK6Xcf41uN7+Mb63fzmlQ6ikgMFsAXNsU7hu0/sor0Y9YXoRx8FDfPnk77wfAJXUQyKhIFFSxxGOb58twotLp7r4WgHR2vEGpy0T8NFF+DOmIFo/boqjRRKUTV3DhWXXELBd4msoVgMUUohKOKtZx3PSZVGeR7aTSPKxQLa82g8fykVV1wC2kPU4F3WYKlqbGDSH3+AUt0EIoQgNEQW0Lrs15w4ai0Gz9doR+FoDUohSqibOZX6ZZdBbf0Id+4bEWDdKwf4xpM7+fd1e7j/pU4KeRdyGrKw76hl1XMHOZI/+8O5w/AkdDldV2Ft+VCaiv9TKBUwGlARcwsHuDDcxSXsY5naxyTbjXZMuQVnp4BDRYR4u05pxLqIsWAjlFgaC11cmN/FJeEulnuHqFFx2EepkzclR41ybNhaQZVnM2EQxHsfQH3Yyfn5HSwLd3CF2s8COYozSpuip0NUnNdj4zwEjAhReY/GM4Z5hcNcFO1lmd7LYr8d1wpqdFf5Z0AhBkzBYvMKU0rxgw272XCs+7i1jo3Vxv5IlKLv9rVIbLzPgVAKg+OH1WrDDOcUd3FxtIcr3MMsklYcAY2DHk0jLguUKMFIfHRVyjZhxWKsQWxEfamTt5X2cWG0j2XsZYnfgasCUNGY9LYQH5aNb8UAVT6WEIYRFotnAy7o2ceFpT1cbPZyid5LteTiTIVR7N43EqchKEAb4g3zXESp5PDgSy08dawdMwzdOSTxKEeuykXiDVux8cw9nsOjlCHl+yDg2CLv63mWzxYf4vPyKB9LbWWC7kVEgx35rJVTYUWwfZveKhY47WhEaSQssqB0gBsLj/A5Hubz3pNMMm2IsuWmjn57YyOOf78ur3o8zytnfATMyh3mxuw6Phs+yufdDVyk9uLK2cU0h0Y8myxZS+HEfSEBx3FwXZcoCtFhlvfmNvCZ0lpuMo/wLncPiiDu4zFwFCdTzgCygpQsJvTZvLuD217cQ3iWS/3hQkSITIRF0H4ayhMbz/dRWmFskZml/Xwy93tusg/xRX8jS+UwjkSjljzRR9/hYyuxd9CALq/ctNaxkBnDpGILK3Lr+IvoQT5nH+VqtR1to9E9oNnn2AAjEBLvu9l4qY8j4GqNEXCjIh/vfIS/iH7HX+l1XKOfo9729n/HMcUaTVjShCWPva2Gb7/wChljyuPs7BiWp2KVjTtYFMpqEB2HpsTDCYUwCCEqoKM8ji3hKUFhUFhEj+45BEFhBUIbEdkTHJUStI6vZjE2xAQBEuYhLOKoCDXSAe4zcorrQhQorVFKCKIIa0oQ5lBRDlfyY3pnVJ+0WgETR1AwWiFO+e+A2AjHlFAmjyd5HCmhxaKVNybifCqUgA0VnVn4xtad9EhfmuZ4oG/qFs+IKTtjR2kUGhNFmCDACXLoKIOyvShdiqei8cvHhL4RF8uIwtEOynWwNr5uRYVF3KiAp0I8LK5VIGNjE3FmlcJiEVXe5FLx3pixiiiyOCYPUQ5tCyiJxqKZZySyhqBoKAQO//b4Fo4EwbDZ8FmJR5/59uXuW1/jNtTiNVThNdbgNtZh6mopOJpeG9AZFegMc2SCAqXIEKLi1cco9Xg8YBShGAIsJuXj19fj19eRrm/Ab6jFbaih5KTJCfRaodsEZMMSRRMRGYu1I5ud8kaECEtJG/JY0vV1eHV1+A31+PU1VExowPguRSxZMfTYgLwNKNiQCBOHCeT1O65GvuWxLRiEUGlI1ZGumUCqtpF0fQNeXS1UVpMXh4yBbhPRFQYUo4hICeG4uKYkXk9bIAo9fr3jMM92dREh8XbNqPXlqRERxAoRQkELbkMtqlx0fR1+QxNFP01WWbImImMisjakZEIisUTl0NFoIQKRjYiskBWwNY14tfU4dfXounrcujpsRZq8WHpMiY4wTzYsUjQRIYJRry+WRsdTxPdwWSuEAm66ksq6RlJ1DaTrG0g1NKKraygpyJiI3rBAT5AnGxUJrcGIHRcXwAIoG1+t8+vtB7i/7RjhMHagEhFZvXo1Dz74IN/61rdIp+Ml8JmQ8qnxTCnHM60v8tjLDxEWj5ANoKRqcbwUrnZxHI2fckg7+fjac6Vw0HiOi+u4VNbXMnnyBby/aTn1unLAhpHJZGhqamLHjh3Mnj27f/UpESDCsvXwqzx65BmOHHwOY6GkanDcNFq5aK1J+R6+LqFtIc6UUBZPKzzHwfUqmDpjKZdPupi5/lScAeYChWHIl7/8ZZYuXcqNN97Yv/qUSPxwONB7jPv3rGf/0eeIihkyYRrXq0Y7GkdpfNehqkKhw16sjuPKrnJxtUvKq6BmyhyWNV/CuenZOCpu75v1s7WWW265hZqaGj73uc/hum+eD943TNqy7TzR+jwbX3oQG+boDSuwbnX8zN14tZROaVJSAEIEwXEcUtrDc13S9RNYOPNy3ll7Hj5uuSP6/bJTsHbtWlasWEEUDU+oTqH48JI5/PW8BXzpqc081dXJcO8gTZs2jZUrV7JixYr+VW+kr4MV7Grdz4OvPcKBYy8QhCV6qMFx0jha4zkOvvaoqtCYoD3eH9PxDD/tpPBSKeomz+PtzctZ5E3FYWDx+VKpxM0338zixYu54YYbcJyB2b6IcLD3KL878BQ7XnsSG5bottVoncJ1XRwVJ9JUeKBML+j4nIqrXTzt4vk+9RNnsmTGJVyRXoCHM+Bkle9+97s8/vjjrFq1qn/VaRGBfFDgwYMbeXrXOlThKLmogkhV4zgaR2scR1NR6ZEiT2SKaKVRSuO6Lr528OsamTfzCq6qfxv1qmIg3QtALpdj8uTJ5HLDc8WJA/zJojl8ev4C/t/Hn+H5TGZYU9+HIB7xrMWKcLi3lQeObma/7kCUxSkvn/tn/p04/k+M/igFKSfF+5qv4OL0bJwBdvNQxSOQgJ+++hD7nA5CLz4DP5BolBKNKEGUpUKnubr+XK6oW4SPN6CBNxTxQMBgeGz/Fh4tbCdIDd4pKqtxHI9zGmbzkfplpHlzEWCI4kHZMrZ27GJt6ya63SJWCQo37qOyEZzgA0+JEpieauK6aW9nkqqL4+Gne/EJDLd4gGJhUz3za2pZv/8Q+RFIPhisePSNq4d3buQpu5OiX77teQA2DPHegxBPLi5tWMJ76i6gos8m3qSPhyoe1lqeaX2FtR3PUfICVDkl/6Qmn7CyeCOC5yimVUzkk5PfQyX+SRe4nqnZgxUPWxa7Qx0HufPYU7T7WQQXhY4PhKpyDmnZjhXle/3Kn0YA5cR7wJO9Jj40cRmLUpMHnJww3OKhgPMnTmSyn+apliPkrRnWUzJDEI/XMeVN3L4lcJ8jPpV4UP4wb3DWKt40cwYRQRuKePQR2njAyQk+qX+TTuT4a054kUM86z/pBWdgSOJRpu+g3JnaeCZU2ci9E1dJ8T+elqGKB+XECSPle4jO8DvOhELhKj2onP5hF4+yfSiljmfbHGeoD6MfgxKPEzDWYNXZ24RbXokOhCGLB2CsPTk55QQG+oSVAle5A349QxUPQFkbHznoy6zs82sDaO+Jz8TRDoNp8XCLB2X7VeVkheFm4B77FDhK4WkHX7v42sVzyqVvyXlC8fv+3veaE147GOE4WzztxO1RLl65+GconnLxeP3vbjm8VT5iMeI45f5NaWdIxdcOntblFJfXjwGMFFrp48+7f18OtHgqvvNorJERGnRni6OdN7XbM5XYjgfm/M8WDXhKk9IuKeWSolxUXPq37ZRFx20eaYvQfRfda43neK/bcPnPgbQ3pZzjZeRb/OacmGo83IyI1+7zq32lz1+NfVcOkXLjVRw+HqPP0r9XB1sSEsaIPhPsP4EZaBlv9G/fSaXsKAa4L/NWZkTEIyEhISHhf28S8UhISEhIGDSJeCQknAo5Q0n4P4/xHEYbIxLxSEhISEgYNIl4JCQkJCQMmkQ8EhISEhIGTSIeCQkJCQmDJhGPhISEhIRBk4hHQkJCQsKgOUk84q9hTcpIlLda/56K/q8Zb+WtSv/PMV5L0t6RLW81jl+MeOutt7J48eJBXYI3VkRRxO233851111HZWX8XdnjGRFh69at1NbWMm/evP7V4wqt9fH2+r7P0qVLj99iOp4NfP/+/Tz88MPjuo39qaqqYvny5cyaNat/1bjDWsuWLVtoaGhg3rx5J91sO17ZsWMHx44d46qrrupfNS4xxnDHHXdQKpX6V41LlIjIvn372Lx5M8aYt4RRUO7ogd7sOR7oc2pvlf59K7bX2uG8cHp0eCvZcBAE8Vfdet5bwi6CIMBaSyqV6l81brE2/jrvtwJK3iotTUhISEgYN/z/z3D/MH8oqeYAAAAASUVORK5CYII=;" vertex="1" parent="1">
          <mxGeometry x="168" y="120" width="491.38" height="500" as="geometry" />
        </mxCell>
        <mxCell id="6JbfAsY4XZxCklSKtB8j-2" value="dp[i][j] = i행 j열을 오른쪽 아래 끝으로 하는 구역의 마을 구성 가능 경우의 수" style="text;html=1;align=left;verticalAlign=middle;whiteSpace=wrap;rounded=0;fontSize=16;" vertex="1" parent="1">
          <mxGeometry x="50" y="40" width="570" height="30" as="geometry" />
        </mxCell>
        <mxCell id="6JbfAsY4XZxCklSKtB8j-3" value="i" style="text;html=1;align=center;verticalAlign=middle;whiteSpace=wrap;rounded=0;" vertex="1" parent="1">
          <mxGeometry x="108" y="410" width="60" height="30" as="geometry" />
        </mxCell>
        <mxCell id="6JbfAsY4XZxCklSKtB8j-4" value="j" style="text;html=1;align=center;verticalAlign=middle;whiteSpace=wrap;rounded=0;" vertex="1" parent="1">
          <mxGeometry x="440" y="90" width="60" height="30" as="geometry" />
        </mxCell>
        <mxCell id="6JbfAsY4XZxCklSKtB8j-6" value="dp[i][j] = dp[i][j-1] + dp[i - 1][j] - dp[i - 1][j - 1] + (1 + min(left, up, 대각선 방향 dp값 증가량)&amp;nbsp;if grid[i][j] == 0 else 0)" style="text;html=1;align=left;verticalAlign=middle;whiteSpace=wrap;rounded=0;fontSize=16;" vertex="1" parent="1">
          <mxGeometry x="50" y="70" width="660" height="30" as="geometry" />
        </mxCell>
        <mxCell id="6JbfAsY4XZxCklSKtB8j-7" value="3" style="text;html=1;align=center;verticalAlign=middle;whiteSpace=wrap;rounded=0;labelBackgroundColor=default;fontSize=15;" vertex="1" parent="1">
          <mxGeometry x="230" y="200" width="50" height="30" as="geometry" />
        </mxCell>
        <mxCell id="6JbfAsY4XZxCklSKtB8j-8" value="1" style="text;html=1;align=center;verticalAlign=middle;whiteSpace=wrap;rounded=0;labelBackgroundColor=default;fontSize=15;" vertex="1" parent="1">
          <mxGeometry x="180" y="150" width="50" height="30" as="geometry" />
        </mxCell>
        <mxCell id="6JbfAsY4XZxCklSKtB8j-9" value="6" style="text;html=1;align=center;verticalAlign=middle;whiteSpace=wrap;rounded=0;labelBackgroundColor=default;fontSize=15;" vertex="1" parent="1">
          <mxGeometry x="290" y="260" width="50" height="30" as="geometry" />
        </mxCell>
        <mxCell id="6JbfAsY4XZxCklSKtB8j-10" value="10" style="text;html=1;align=center;verticalAlign=middle;whiteSpace=wrap;rounded=0;labelBackgroundColor=default;fontSize=15;" vertex="1" parent="1">
          <mxGeometry x="350" y="310" width="50" height="30" as="geometry" />
        </mxCell>
        <mxCell id="6JbfAsY4XZxCklSKtB8j-11" value="\1" style="text;html=1;align=center;verticalAlign=middle;whiteSpace=wrap;rounded=0;labelBackgroundColor=default;fontSize=15;" vertex="1" parent="1">
          <mxGeometry x="400" y="370" width="50" height="30" as="geometry" />
        </mxCell>
        <mxCell id="6JbfAsY4XZxCklSKtB8j-12" value="2" style="text;html=1;align=center;verticalAlign=middle;whiteSpace=wrap;rounded=0;labelBackgroundColor=default;fontSize=15;" vertex="1" parent="1">
          <mxGeometry x="180" y="370" width="50" height="30" as="geometry" />
        </mxCell>
        <mxCell id="6JbfAsY4XZxCklSKtB8j-13" value="0" style="text;html=1;align=center;verticalAlign=middle;whiteSpace=wrap;rounded=0;labelBackgroundColor=#FFFF66;" vertex="1" parent="1">
          <mxGeometry x="180" y="120" width="60" height="30" as="geometry" />
        </mxCell>
        <mxCell id="6JbfAsY4XZxCklSKtB8j-14" value="0" style="text;html=1;align=center;verticalAlign=middle;whiteSpace=wrap;rounded=0;labelBackgroundColor=#FFFF66;" vertex="1" parent="1">
          <mxGeometry x="225" y="120" width="60" height="30" as="geometry" />
        </mxCell>
        <mxCell id="6JbfAsY4XZxCklSKtB8j-15" value="2" style="text;html=1;align=center;verticalAlign=middle;whiteSpace=wrap;rounded=0;labelBackgroundColor=#FFFF66;" vertex="1" parent="1">
          <mxGeometry x="340" y="120" width="60" height="30" as="geometry" />
        </mxCell>
        <mxCell id="6JbfAsY4XZxCklSKtB8j-16" value="1" style="text;html=1;align=center;verticalAlign=middle;whiteSpace=wrap;rounded=0;labelBackgroundColor=#FFFF66;" vertex="1" parent="1">
          <mxGeometry x="280" y="120" width="60" height="30" as="geometry" />
        </mxCell>
        <mxCell id="6JbfAsY4XZxCklSKtB8j-17" value="3" style="text;html=1;align=center;verticalAlign=middle;whiteSpace=wrap;rounded=0;labelBackgroundColor=#FFFF66;" vertex="1" parent="1">
          <mxGeometry x="383.69" y="120" width="60" height="30" as="geometry" />
        </mxCell>
        <mxCell id="6JbfAsY4XZxCklSKtB8j-18" value="4" style="text;html=1;align=center;verticalAlign=middle;whiteSpace=wrap;rounded=0;labelBackgroundColor=#FFFF66;" vertex="1" parent="1">
          <mxGeometry x="440" y="120" width="60" height="30" as="geometry" />
        </mxCell>
        <mxCell id="6JbfAsY4XZxCklSKtB8j-19" value="5" style="text;html=1;align=center;verticalAlign=middle;whiteSpace=wrap;rounded=0;labelBackgroundColor=#FFFF66;" vertex="1" parent="1">
          <mxGeometry x="500" y="120" width="60" height="30" as="geometry" />
        </mxCell>
        <mxCell id="6JbfAsY4XZxCklSKtB8j-20" value="0" style="text;html=1;align=center;verticalAlign=middle;whiteSpace=wrap;rounded=0;labelBackgroundColor=#FFFF66;" vertex="1" parent="1">
          <mxGeometry x="550" y="120" width="60" height="30" as="geometry" />
        </mxCell>
        <mxCell id="6JbfAsY4XZxCklSKtB8j-21" value="1" style="text;html=1;align=center;verticalAlign=middle;whiteSpace=wrap;rounded=0;labelBackgroundColor=#FFFF66;" vertex="1" parent="1">
          <mxGeometry x="599.38" y="120" width="60" height="30" as="geometry" />
        </mxCell>
        <mxCell id="6JbfAsY4XZxCklSKtB8j-22" value="3" style="text;html=1;align=center;verticalAlign=middle;whiteSpace=wrap;rounded=0;labelBackgroundColor=#FFFF66;" vertex="1" parent="1">
          <mxGeometry x="440" y="400" width="60" height="30" as="geometry" />
        </mxCell>
        <mxCell id="6JbfAsY4XZxCklSKtB8j-23" value="0" style="text;html=1;align=center;verticalAlign=middle;whiteSpace=wrap;rounded=0;labelBackgroundColor=#FFFF66;" vertex="1" parent="1">
          <mxGeometry x="500" y="240" width="60" height="30" as="geometry" />
        </mxCell>
        <mxCell id="6JbfAsY4XZxCklSKtB8j-24" value="3" style="text;html=1;align=center;verticalAlign=middle;whiteSpace=wrap;rounded=0;labelBackgroundColor=default;fontSize=15;" vertex="1" parent="1">
          <mxGeometry x="230" y="260" width="50" height="30" as="geometry" />
        </mxCell>
        <mxCell id="6JbfAsY4XZxCklSKtB8j-25" value="3" style="text;html=1;align=center;verticalAlign=middle;whiteSpace=wrap;rounded=0;labelBackgroundColor=default;fontSize=15;" vertex="1" parent="1">
          <mxGeometry x="230" y="310" width="50" height="30" as="geometry" />
        </mxCell>
        <mxCell id="6JbfAsY4XZxCklSKtB8j-26" value="4" style="text;html=1;align=center;verticalAlign=middle;whiteSpace=wrap;rounded=0;labelBackgroundColor=default;fontSize=15;" vertex="1" parent="1">
          <mxGeometry x="235" y="370" width="50" height="30" as="geometry" />
        </mxCell>
        <mxCell id="6JbfAsY4XZxCklSKtB8j-27" value="6" style="text;html=1;align=center;verticalAlign=middle;whiteSpace=wrap;rounded=0;labelBackgroundColor=default;fontSize=15;" vertex="1" parent="1">
          <mxGeometry x="290" y="310" width="50" height="30" as="geometry" />
        </mxCell>
        <mxCell id="6JbfAsY4XZxCklSKtB8j-28" value="7" style="text;html=1;align=center;verticalAlign=middle;whiteSpace=wrap;rounded=0;labelBackgroundColor=default;fontSize=15;" vertex="1" parent="1">
          <mxGeometry x="290" y="370" width="50" height="30" as="geometry" />
        </mxCell>
        <mxCell id="6JbfAsY4XZxCklSKtB8j-31" value="3" style="text;html=1;align=center;verticalAlign=middle;whiteSpace=wrap;rounded=0;labelBackgroundColor=default;fontSize=15;" vertex="1" parent="1">
          <mxGeometry x="290" y="200" width="50" height="30" as="geometry" />
        </mxCell>
        <mxCell id="6JbfAsY4XZxCklSKtB8j-32" value="3" style="text;html=1;align=center;verticalAlign=middle;whiteSpace=wrap;rounded=0;labelBackgroundColor=default;fontSize=15;" vertex="1" parent="1">
          <mxGeometry x="333.69" y="200" width="50" height="30" as="geometry" />
        </mxCell>
        <mxCell id="6JbfAsY4XZxCklSKtB8j-33" value="3" style="text;html=1;align=center;verticalAlign=middle;whiteSpace=wrap;rounded=0;labelBackgroundColor=default;fontSize=15;" vertex="1" parent="1">
          <mxGeometry x="400" y="200" width="50" height="30" as="geometry" />
        </mxCell>
        <mxCell id="6JbfAsY4XZxCklSKtB8j-34" value="6" style="text;html=1;align=center;verticalAlign=middle;whiteSpace=wrap;rounded=0;labelBackgroundColor=default;fontSize=15;" vertex="1" parent="1">
          <mxGeometry x="400" y="260" width="50" height="30" as="geometry" />
        </mxCell>
        <mxCell id="6JbfAsY4XZxCklSKtB8j-35" value="6" style="text;html=1;align=center;verticalAlign=middle;whiteSpace=wrap;rounded=0;labelBackgroundColor=default;fontSize=15;" vertex="1" parent="1">
          <mxGeometry x="340" y="260" width="50" height="30" as="geometry" />
        </mxCell>
        <mxCell id="6JbfAsY4XZxCklSKtB8j-36" value="10" style="text;html=1;align=center;verticalAlign=middle;whiteSpace=wrap;rounded=0;labelBackgroundColor=default;fontSize=15;" vertex="1" parent="1">
          <mxGeometry x="400" y="310" width="50" height="30" as="geometry" />
        </mxCell>
        <mxCell id="6JbfAsY4XZxCklSKtB8j-37" value="11" style="text;html=1;align=center;verticalAlign=middle;whiteSpace=wrap;rounded=0;labelBackgroundColor=default;fontSize=15;" vertex="1" parent="1">
          <mxGeometry x="340" y="370" width="50" height="30" as="geometry" />
        </mxCell>
        <mxCell id="6JbfAsY4XZxCklSKtB8j-38" value="6" style="text;html=1;align=center;verticalAlign=middle;whiteSpace=wrap;rounded=0;labelBackgroundColor=default;fontSize=15;" vertex="1" parent="1">
          <mxGeometry x="440" y="260" width="50" height="30" as="geometry" />
        </mxCell>
        <mxCell id="6JbfAsY4XZxCklSKtB8j-39" value="9" style="text;html=1;align=center;verticalAlign=middle;whiteSpace=wrap;rounded=0;labelBackgroundColor=default;fontSize=15;" vertex="1" parent="1">
          <mxGeometry x="505" y="260" width="50" height="30" as="geometry" />
        </mxCell>
        <mxCell id="6JbfAsY4XZxCklSKtB8j-40" value="6" style="text;html=1;align=center;verticalAlign=middle;whiteSpace=wrap;rounded=0;labelBackgroundColor=default;fontSize=15;" vertex="1" parent="1">
          <mxGeometry x="825" y="255" width="50" height="30" as="geometry" />
        </mxCell>
        <mxCell id="6JbfAsY4XZxCklSKtB8j-41" value="2" style="text;html=1;align=center;verticalAlign=middle;whiteSpace=wrap;rounded=0;labelBackgroundColor=default;fontSize=15;" vertex="1" parent="1">
          <mxGeometry x="500" y="150" width="50" height="20" as="geometry" />
        </mxCell>
        <mxCell id="6JbfAsY4XZxCklSKtB8j-44" value="1" style="text;html=1;align=center;verticalAlign=middle;whiteSpace=wrap;rounded=0;labelBackgroundColor=default;fontSize=15;" vertex="1" parent="1">
          <mxGeometry x="445" y="155" width="50" height="20" as="geometry" />
        </mxCell>
        <mxCell id="6JbfAsY4XZxCklSKtB8j-45" value="3" style="text;html=1;align=center;verticalAlign=middle;whiteSpace=wrap;rounded=0;labelBackgroundColor=default;fontSize=15;" vertex="1" parent="1">
          <mxGeometry x="445" y="205" width="50" height="20" as="geometry" />
        </mxCell>
        <mxCell id="6JbfAsY4XZxCklSKtB8j-46" value="5" style="text;html=1;align=center;verticalAlign=middle;whiteSpace=wrap;rounded=0;labelBackgroundColor=default;fontSize=15;" vertex="1" parent="1">
          <mxGeometry x="505" y="205" width="50" height="20" as="geometry" />
        </mxCell>
        <mxCell id="6JbfAsY4XZxCklSKtB8j-47" value="5" style="text;html=1;align=center;verticalAlign=middle;whiteSpace=wrap;rounded=0;labelBackgroundColor=default;fontSize=15;" vertex="1" parent="1">
          <mxGeometry x="560" y="205" width="50" height="20" as="geometry" />
        </mxCell>
        <mxCell id="6JbfAsY4XZxCklSKtB8j-48" value="5" style="text;html=1;align=center;verticalAlign=middle;whiteSpace=wrap;rounded=0;labelBackgroundColor=default;fontSize=15;" vertex="1" parent="1">
          <mxGeometry x="609.38" y="205" width="50" height="20" as="geometry" />
        </mxCell>
        <mxCell id="6JbfAsY4XZxCklSKtB8j-49" value="2" style="text;html=1;align=center;verticalAlign=middle;whiteSpace=wrap;rounded=0;labelBackgroundColor=default;fontSize=15;" vertex="1" parent="1">
          <mxGeometry x="549.38" y="150" width="50" height="20" as="geometry" />
        </mxCell>
        <mxCell id="6JbfAsY4XZxCklSKtB8j-51" value="2" style="text;html=1;align=center;verticalAlign=middle;whiteSpace=wrap;rounded=0;labelBackgroundColor=default;fontSize=15;" vertex="1" parent="1">
          <mxGeometry x="609.38" y="150" width="50" height="20" as="geometry" />
        </mxCell>
        <mxCell id="6JbfAsY4XZxCklSKtB8j-52" value="9" style="text;html=1;align=center;verticalAlign=middle;whiteSpace=wrap;rounded=0;labelBackgroundColor=default;fontSize=15;" vertex="1" parent="1">
          <mxGeometry x="555" y="255" width="50" height="30" as="geometry" />
        </mxCell>
        <mxCell id="6JbfAsY4XZxCklSKtB8j-53" value="10" style="text;html=1;align=center;verticalAlign=middle;whiteSpace=wrap;rounded=0;labelBackgroundColor=default;fontSize=15;" vertex="1" parent="1">
          <mxGeometry x="610" y="260" width="50" height="30" as="geometry" />
        </mxCell>
      </root>
    </mxGraphModel>
  </diagram>
</mxfile>
